<svg width="348" height="100" fill="none" xmlns="http://www.w3.org/2000/svg"><path d="M105.84 45V2.312h11.008V45H105.84Zm42.496 0-7.168-14.464h-5.632V45h-11.008V2.312h21.376c9.472 0 14.848 6.272 14.848 14.208 0 7.424-4.544 11.392-8.512 12.8L160.944 45h-12.608Zm1.216-28.608c0-2.944-2.432-4.8-5.312-4.8h-8.704v9.6h8.704c2.88 0 5.312-1.856 5.312-4.8ZM166.84 45V2.312h11.008V45H166.84Zm15.616-6.016 5.824-8.256a19.287 19.287 0 0 0 13.632 5.632c3.776 0 6.08-1.6 6.08-3.648 0-2.432-2.752-3.392-7.296-4.352-7.04-1.408-16.897-3.2-16.897-13.312 0-7.168 6.081-13.376 17.025-13.376 6.848 0 12.8 2.048 17.344 5.952l-6.016 7.872c-3.584-2.944-8.256-4.416-12.032-4.416-3.648 0-5.056 1.472-5.056 3.328 0 2.24 2.624 3.008 7.36 3.904 7.04 1.472 16.768 3.52 16.768 13.184 0 8.576-6.336 14.272-17.792 14.272-8.64 0-14.656-2.688-18.944-6.784Z" fill="#fff"/><path d="M106.736 94V51.312h17.984c8.768 0 13.632 6.016 13.632 13.12 0 7.104-4.928 13.12-13.632 13.12h-11.584V94h-6.4Zm25.024-29.568c0-4.48-3.264-7.488-7.872-7.488h-10.752V71.92h10.752c4.608 0 7.872-3.008 7.872-7.488Zm11.372 8.256c0-12.672 8.768-22.08 21.504-22.08s21.504 9.408 21.504 22.08c0 12.672-8.768 22.08-21.504 22.08s-21.504-9.408-21.504-22.08Zm36.416 0c0-9.408-5.888-16.384-14.912-16.384-9.152 0-14.912 6.976-14.912 16.384 0 9.344 5.76 16.384 14.912 16.384 9.024 0 14.912-7.04 14.912-16.384ZM225.315 94l-8.896-32.96L207.587 94h-6.848l-12.224-42.688h7.168l8.832 34.24 9.344-34.24h5.184l9.28 34.24 8.832-34.24h7.168L232.163 94h-6.848Zm24.421 0V51.312h28.672v5.632h-22.272v12.48h21.824v5.632h-21.824v13.312h22.272V94h-28.672ZM311 94l-10.176-16.448h-8V94h-6.4V51.312h17.984c8.128 0 13.696 5.248 13.696 13.12 0 7.68-5.184 11.776-10.624 12.48L318.424 94H311Zm.512-29.568c0-4.48-3.328-7.488-7.936-7.488h-10.752V71.92h10.752c4.608 0 7.936-3.008 7.936-7.488Z" fill="#FF5C00"/><g clip-path="url(#a)"><path d="M48.955 42.254c.55.595 1.09 1.127 1.57 1.708a1286.34 1286.34 0 0 1 7.081 8.63c.672.826.648 1.135-.166 1.861-3.082 2.753-6.118 5.564-9.3 8.197-3.01 2.49-6.174 4.791-9.282 7.16-.978.745-2.002 1.43-2.993 2.162-.39.288-.685.358-1.056-.066-2.31-2.642-4.65-5.258-6.965-7.898-.552-.629-1.194-1.48-1.607-1.973-.042-.05-.087-.098-.132-.145-.673-.709-.222-1.086.362-1.516 1.63-1.202 3.275-2.384 4.873-3.63a464.552 464.552 0 0 0 7.819-6.213c2.687-2.188 5.335-4.425 7.99-6.65.608-.509 1.18-1.062 1.806-1.629v.002ZM45.632 82.68c-1.565-1.51-3.069-2.942-4.552-4.395-1.294-1.268-2.541-2.584-3.86-3.826-.518-.487-.392-.802.071-1.138 1.546-1.124 3.107-2.226 4.648-3.355 1.945-1.423 3.944-2.782 5.8-4.315 2.999-2.477 5.904-5.068 8.838-7.623.779-.677 1.523-1.393 2.276-2.1.829-.78.859-.788 1.563.09 1.478 1.846 2.961 3.689 4.42 5.55.87 1.109 1.654 2.288 2.562 3.364.497.588.41.995-.096 1.432-1.431 1.232-2.858 2.469-4.305 3.682-1.506 1.263-2.986 2.562-4.56 3.733-2.725 2.025-5.5 3.98-8.282 5.928-1.44 1.008-2.937 1.935-4.523 2.974v-.001ZM78.16 29.21c.142.067.275.224.37.328.239.26.476.52.714.783.475.523.947 1.05 1.42 1.574a113.25 113.25 0 0 0 2.877 3.108c.599.616 1.209 1.22 1.839 1.804 1.442 1.336 1.228 2.467.595 3.91-1.46 3.333-2.987 6.632-4.983 9.684-1.43 2.183-3.01 4.261-4.659 6.28a219.793 219.793 0 0 1-5.208 6.12l-7.967-10.206c-.092-.117-.185-.24-.216-.385-.093-.445.42-.822.682-1.115.399-.447.803-.89 1.201-1.338.757-.853 1.5-1.72 2.195-2.625 2.038-2.652 4.108-5.296 5.915-8.105.965-1.504 1.797-3.088 2.604-4.682.796-1.573 1.675-3.114 2.166-4.82a.651.651 0 0 1 .081-.187c.119-.177.25-.188.375-.129l-.001.001ZM66.192 19.336a.251.251 0 0 1 .388-.089c1.16.954 2.291 1.86 3.388 2.806 1.65 1.422 3.273 2.875 4.903 4.32 1.647 1.46 1.678 1.543.694 3.578-1.137 2.349-2.144 4.786-3.522 6.987-1.68 2.683-3.639 5.197-5.57 7.712-1.252 1.633-2.673 3.137-4.014 4.702-.992 1.158-1.175 1.124-2.163-.082-1.74-2.123-3.528-4.204-5.29-6.308-.832-.995-1.636-2.014-2.477-3.001-.366-.428-.338-.728.046-1.152 2.128-2.349 4.298-4.664 6.31-7.11 2.19-2.663 4.135-5.513 5.616-8.65.56-1.184 1.088-2.382 1.691-3.714ZM87.955 40.357c.13-.064.27-.035.419.141 1.71 2.032 2.949 4.42 3.976 6.87.608 1.454.464 2.603-.125 4.052A56.614 56.614 0 0 1 84.69 64.54c-1.996 2.599-4.238 4.97-6.58 7.255-.124.12-.255.246-.423.29-.313.082-.62-.147-.838-.387-.44-.481-.754-1.06-1.076-1.626a48.759 48.759 0 0 0-2.817-4.39c-.268-.373-.552-.772-.569-1.231-.015-.442.225-.854.516-1.188 1.284-1.477 2.673-2.865 3.958-4.344a66.692 66.692 0 0 0 3.777-4.726c1.213-1.68 2.325-3.435 3.281-5.276.792-1.523 1.474-3.1 2.159-4.673.343-.787.686-1.574 1.045-2.354.15-.326.443-1.346.831-1.536v.002ZM28.313 69.92c.66.736 1.314 1.477 1.97 2.215a279 279 0 0 0 1.514 1.686c.054.058.11.115.167.173a.386.386 0 0 1-.061.595c-.69.46-2.057 1.51-2.213 1.627-.888.671-1.773 1.347-2.662 2.018-.382.288-.765.576-1.148.862-1.256.935-2.414 1.998-3.56 3.065l-.098.09c-.409.379-.814.761-1.224 1.14-.14.129-.28.258-.422.385-.068.062-.133.125-.2.188-.061.058-.134.144-.21.18-.002-.036.068-.09.093-.117.034-.036.08-.063.11-.104-.06.102-.136.192-.221.272-.072.067-.158.132-.262.117-.194-.03-.335-.22-.482-.334-3.026-2.362-5.883-4.91-8.483-7.74-1.285-1.4-1.152-1.174-.089-2.491 1.568-1.945 3.367-3.73 5.235-5.395 1.897-1.69 3.967-3.182 6.01-4.774a.461.461 0 0 1 .616.044l1.172 1.224 4.447 5.073.001.001ZM73.94 75.38c-.117.196-.194.486-.382.623-3.657 2.666-7.258 5.415-11.016 7.932-2.736 1.833-5.669 3.376-8.539 5.003-1.262.717-1.53.54-2.557-.596-1.166-1.291-2.45-2.475-3.684-3.707-.793-.791-.78-.964.15-1.58 2.687-1.778 5.427-3.483 8.053-5.35 2.53-1.797 4.964-3.732 7.4-5.658 1.67-1.319 3.278-2.714 4.894-4.098.595-.51 1.05-.536 1.49.178.944 1.528 1.927 3.033 2.867 4.563.385.626.709 1.29 1.046 1.945.107.209.166.444.276.746l.001-.001ZM31.535 91.307c-.177 0-.32-.102-.524-.19-.247-.106-.493-.21-.74-.317a16.592 16.592 0 0 1-1.44-.693c-1.493-.829-2.952-1.723-4.406-2.622a25.917 25.917 0 0 1-1.738-1.147c-.409-.3-.959-.5-.773-1.2.038-.142.102-.275.177-.4.616-1.039 1.595-1.793 2.562-2.509 2.798-2.072 5.68-4.03 8.56-5.984.224-.152.48-.311.745-.257.191.038.342.182.48.319 1.244 1.22 2.48 2.446 3.752 3.634 1.284 1.198 2.608 2.354 3.915 3.526.727.652.766.884-.061 1.41-1.514.964-3.105 1.807-4.626 2.76a129.37 129.37 0 0 0-2.925 1.905c-.888.59-1.74 1.216-2.697 1.696a.582.582 0 0 1-.26.07ZM63.975 2.01c.077-.034.22-.012.46.097.74.338 1.546.639 2.242 1.062 2.424 1.22 4.746 2.628 6.908 4.276 1.16.884 1.96 1.8 2.577 3.124a18.502 18.502 0 0 1 1.693 6.435c.173 2.322-.21 4.608-.456 6.91-.06.556-.423.414-.75.146-2.957-2.438-5.931-4.855-8.905-7.274-.59-.481-.638-1.026-.584-1.795.25-3.61.236-7.4-1.778-10.56a21.065 21.065 0 0 0-1.067-1.48c-.232-.303-.553-.846-.339-.941ZM77.638 11.11c1.124.5 1.956 1.581 2.765 2.473a53.734 53.734 0 0 1 7.022 9.739c.601 1.067.942 2.252.956 3.486.02 2.288-.198 4.572-.357 6.852a1.388 1.388 0 0 1-.073.371c-.246.688-.65.225-1-.08a28.017 28.017 0 0 1-1.21-1.137c-.79-.78-1.547-1.59-2.338-2.366l-2.537-2.494c-.413-.407-.823-.82-1.24-1.225-.631-.614-.808-.97-.624-1.854.29-1.393.318-2.793.32-4.208.003-1.494-.03-2.995-.271-4.472-.284-1.74-.852-3.418-1.418-5.087l.005.002ZM74.856 77.512c.916 1.746.86 3.554.504 5.259-.192.915-.965 1.88-1.742 2.469-2.989 2.266-6.31 4.02-9.79 5.363-2.015.778-4.095 1.37-6.192 1.88-.482.118-.967.23-1.45.34-.451.102-.914.294-1.303-.058-.169-.15-.283-.353-.38-.558-.146-.314-.278-.635-.443-.94-.09-.166-.158-.364-.095-.542a.544.544 0 0 1 .158-.224c.16-.143.365-.213.556-.305.21-.103.413-.227.62-.338a339.346 339.346 0 0 0 4.397-2.396l.322-.178c1.07-.595 2.138-1.196 3.2-1.807 1.441-.83 2.816-1.788 4.176-2.75 2.329-1.648 4.62-3.346 6.935-5.014.138-.1.33-.128.527-.199v-.002Z" fill="#fff"/><path d="M93.867 51.682c.031-.074.143-.043.132.037-.64 4.553-2.563 10.358-4.462 14.448-3.73 8.03-9.447 14.241-11.904 15.662.082-.358.182-.712.28-1.064.098-.353.126-.74.159-1.105.069-.769.073-1.543.033-2.313-.03-.544-.081-1.086-.149-1.626-.043-.338-.092-.68-.055-1.017.048-.448.294-.768.573-1.099.326-.384.714-.707 1.073-1.056a86.738 86.738 0 0 0 2.181-2.202A64.529 64.529 0 0 0 85.8 65.67a48.888 48.888 0 0 0 5.688-9.1c.585-1.208 1.311-2.4 1.831-3.64.077.019.355-.785.55-1.25l-.002.002ZM52.378 93.434c-.01.019-.037.03-.068.037-.118.03-.239.051-.359.072a31.997 31.997 0 0 1-1.683.237c-.718.081-1.437.14-2.157.176-1.42.071-2.842.054-4.26-.037a47.757 47.757 0 0 1-4.221-.468c-1.913-.295-3.804-.712-5.7-1.102-.103-.02-.212-.045-.288-.12-.362-.352.756-.954.98-1.085a360.393 360.393 0 0 0 8.562-5.14c.303-.19.635-.385.992-.356.65.053 1.261.886 1.711 1.3.654.601 1.306 1.206 1.957 1.813a631.088 631.088 0 0 1 3.214 3.018c.495.468.981.965 1.306 1.571.022.04.024.065.013.084h.001ZM93.63 44.084c.037-.118-.417-.698-.49-.82l-.584-.975-1.178-1.97c-.504-.845-1.005-1.691-1.505-2.538-.426-.724-1.055-1.471-.95-2.363.223-1.92.51-3.832.744-5.75.06-.494.008-1.001.008-1.668 2.414 2.647 4.64 13.874 3.955 16.084Z" fill="#fff"/><path d="M35.222 1.091c-2.77.957-5.843 2.375-8.348 3.564l.929-.891c.664-.678 2.33-1.159 3.245-1.42l4.174-1.253ZM5.81 30.272.082 44.141c-.011.027.002.037.005.066-.057 2.964-.311 7.434.434 10.821.021.186.29.198.327.014M8.94 31.093l.363 39.153c0 .059-.02.114-.057.16l-1.183 1.409a.25.25 0 0 1-.4-.023c-3.686-5.626-4.673-9.646-4.729-11.37-.062-.648.105-1.277.236-1.97.1-.529.228-1.056.34-1.582.228-1.057.452-2.114.675-3.172l1.723-8.196 1.754-8.344 1.275-6.064M13.101 67.452l6.544-5.41a.128.128 0 0 0 .044-.126l-6.671-30.381c-.017-.076-.13-.064-.13.014v35.805a.13.13 0 0 0 .213.099v-.001ZM16.584 30.584c-.035-.08-.157-.042-.14.044l6.028 29.003c.01.05.07.075.113.045l4.678-3.69M37.296 48.847l4.157-3.62a.056.056 0 0 0 .003-.082L23.184 26.818c-.061-.062-.159.016-.112.09l14.167 21.931c.013.02.04.024.057.008ZM44.483 42.549c.935-.623 1.984-1.525 3.253-2.959a.28.28 0 0 0-.035-.442L25.465 24.554c-.059-.039-.124.041-.073.09l18.702 17.898a.285.285 0 0 0 .39.006ZM50.386 36.677c1.281-1.26 2.428-2.489 3.363-3.67a.492.492 0 0 0-.178-.788L27.457 21.498c-.023-.01-.041.022-.02.036l22.3 15.217a.5.5 0 0 0 .65-.075ZM56.897 29.659c1.385-2 2.876-4.117 3.416-5.178a.235.235 0 0 0-.154-.36L28.73 18.06c-.073-.015-.104.088-.036.116l27.912 11.57a.239.239 0 0 0 .292-.087ZM61.762 21.157c.777-1.247 1.666-3.443 2.168-6.346a.12.12 0 0 0-.12-.14H29.128c-.05-.001-.056.069-.008.079l32.515 6.46c.05.011.1-.01.127-.052v-.001ZM64.246 11.396l-35.13.285c-.062 0-.072-.087-.011-.1L62.79 4.268a16.512 16.512 0 0 1 1.456 7.127ZM60.604 1.946l-32.161 6.25c-.016.003-.023-.018-.01-.024 1.434-.628 3.944-1.554 5.324-2.166l8.16-3.624 2.676-1.189C45.51.786 46.437.171 47.445.043c.59-.075 1.186-.038 1.78-.002 3.274.203 6.53.322 9.7 1.246.577.167 1.154.367 1.679.66ZM19.506 29.07l10.377 24.99 4.562-3.37-14.797-21.695c-.055-.08-.179-.013-.142.075Z" fill="#FF5C00"/></g><defs><clipPath id="a"><path fill="#fff" d="M0 0h94v94H0z"/></clipPath></defs></svg>