<svg width="263" height="201" viewBox="0 0 263 201" fill="none" xmlns="http://www.w3.org/2000/svg">
<path d="M233.493 144.645H138.443C137.626 144.643 136.843 144.318 136.265 143.74C135.688 143.163 135.362 142.379 135.361 141.562V3.08223C135.364 2.26611 135.69 1.48428 136.267 0.907689C136.845 0.331092 137.627 0.00663463 138.443 0.00524902H233.493C234.309 0.00663463 235.092 0.331092 235.669 0.907689C236.247 1.48428 236.573 2.26611 236.575 3.08223V141.562C236.574 142.379 236.249 143.163 235.671 143.74C235.093 144.318 234.31 144.643 233.493 144.645ZM138.443 0.136744C138.054 0.133971 137.669 0.208072 137.309 0.35479C136.949 0.501508 136.621 0.71795 136.345 0.991671C136.069 1.26539 135.85 1.59099 135.7 1.94977C135.55 2.30854 135.472 2.6934 135.472 3.08223V141.562C135.472 142.345 135.782 143.095 136.336 143.649C136.889 144.202 137.64 144.513 138.422 144.513H233.493C234.276 144.513 235.026 144.202 235.58 143.649C236.133 143.095 236.444 142.345 236.444 141.562V3.08223C236.444 2.29965 236.133 1.54911 235.58 0.99574C235.026 0.442367 234.276 0.131483 233.493 0.131483L138.443 0.136744Z" fill="#F5F5F5"/>
<path d="M123.863 144.645H28.7922C27.9752 144.643 27.192 144.318 26.6143 143.74C26.0365 143.163 25.7114 142.379 25.71 141.562V3.08225C25.7114 2.26521 26.0365 1.48204 26.6143 0.904306C27.192 0.326574 27.9752 0.0013907 28.7922 0H123.863C124.68 0.0013907 125.463 0.326574 126.041 0.904306C126.619 1.48204 126.944 2.26521 126.945 3.08225V141.562C126.944 142.379 126.619 143.163 126.041 143.74C125.463 144.318 124.68 144.643 123.863 144.645ZM28.7922 0.136756C28.0105 0.136755 27.2608 0.446915 26.7076 0.999151C26.1543 1.55139 25.8428 2.30057 25.8415 3.08225V141.562C25.8415 142.345 26.1523 143.095 26.7057 143.649C27.2591 144.202 28.0096 144.513 28.7922 144.513H123.863C124.646 144.513 125.396 144.202 125.95 143.649C126.503 143.095 126.814 142.345 126.814 141.562V3.08225C126.814 2.29966 126.503 1.54912 125.95 0.995752C125.396 0.442379 124.646 0.131495 123.863 0.131495L28.7922 0.136756Z" fill="#F5F5F5"/>
<path d="M262.99 176.766H0V176.898H262.99V176.766Z" fill="#F5F5F5"/>
<path d="M118.425 103.676V14.1016L81.8479 14.1016V103.676H118.425Z" fill="#E6E6E6"/>
<path d="M116.415 16.1107H83.8518V101.667H116.415V16.1107Z" fill="#F5F5F5"/>
<path d="M116.415 22.3856V29.0708L83.8518 61.6343V54.9438L116.415 22.3856Z" fill="#FAFAFA"/>
<path d="M116.415 46.3073V59.0675L83.8518 91.6362V78.8707L116.415 46.3073Z" fill="#FAFAFA"/>
<path d="M101.351 14.1016H98.9264V103.676H101.351V14.1016Z" fill="#E6E6E6"/>
<path d="M118.477 57.821H81.8005V59.9618H118.477V57.821Z" fill="#E6E6E6"/>
<path d="M178.912 103.676V14.1016L142.336 14.1016V103.676H178.912Z" fill="#E6E6E6"/>
<path d="M176.908 16.1107H144.345V101.667H176.908V16.1107Z" fill="#F5F5F5"/>
<path d="M176.908 22.3856V29.0708L144.339 61.6343V54.9438L176.908 22.3856Z" fill="#FAFAFA"/>
<path d="M176.908 46.3073V59.0675L144.339 91.6362V78.8707L176.908 46.3073Z" fill="#FAFAFA"/>
<path d="M161.839 14.1016H159.414V103.676H161.839V14.1016Z" fill="#E6E6E6"/>
<path d="M178.965 57.821H142.288V59.9618H178.965V57.821Z" fill="#E6E6E6"/>
<path d="M233.178 14.5697H186.66V32.0954H233.178V14.5697Z" fill="#F0F0F0"/>
<path d="M231.074 29.9914V16.6736L188.764 16.6736V29.9914H231.074Z" fill="#E0E0E0"/>
<path d="M192.467 29.9914H196.496C197.121 29.5615 197.592 28.9428 197.841 28.2259C198.089 27.509 198.102 26.7314 197.877 26.0068C197.652 25.2821 197.201 24.6485 196.59 24.1986C195.979 23.7486 195.24 23.5059 194.481 23.5059C193.722 23.5059 192.984 23.7486 192.373 24.1986C191.762 24.6485 191.311 25.2821 191.086 26.0068C190.861 26.7314 190.873 27.509 191.122 28.2259C191.37 28.9428 191.841 29.5615 192.467 29.9914Z" fill="#FAFAFA"/>
<path d="M194.707 22.0386H194.25V24.4213H194.707V22.0386Z" fill="#FAFAFA"/>
<path d="M195.791 21.3075H193.172V22.1228H195.791V21.3075Z" fill="#FAFAFA"/>
<path d="M200.84 21.3075H204.48C204.724 21.3075 204.958 21.4045 205.131 21.5771C205.304 21.7497 205.401 21.9838 205.401 22.228V29.9914H199.92V22.228C199.92 21.9838 200.017 21.7497 200.189 21.5771C200.362 21.4045 200.596 21.3075 200.84 21.3075Z" fill="#FAFAFA"/>
<path d="M202.892 19.6559H202.434V22.0386H202.892V19.6559Z" fill="#FAFAFA"/>
<path d="M203.97 18.9248H201.351V19.7401H203.97V18.9248Z" fill="#FAFAFA"/>
<path d="M212.864 29.9914H210.161L210.318 28.2662L210.455 26.7461L210.671 24.416H212.359L212.57 26.7461L212.706 28.2662L212.864 29.9914Z" fill="#FAFAFA"/>
<path d="M212.57 26.7461L212.706 28.2662H210.318L210.455 26.7461H212.57Z" fill="#F0F0F0"/>
<path d="M215.889 29.9914H213.185L213.343 28.2662L213.48 26.7461L213.695 24.416H215.384L215.594 26.7461L215.731 28.2662L215.889 29.9914Z" fill="#FAFAFA"/>
<path d="M215.731 28.2662H213.343L213.48 26.7461H215.594L215.731 28.2662Z" fill="#F0F0F0"/>
<path d="M219.344 29.9914H225.656C226.287 29.7284 226.677 29.3917 226.677 29.0183C226.677 28.203 224.809 27.535 222.511 27.535C220.212 27.535 218.35 28.203 218.35 29.0183C218.329 29.3812 218.713 29.7284 219.344 29.9914Z" fill="#FAFAFA"/>
<path d="M220.012 28.1083H224.967C225.467 27.9032 225.772 27.635 225.772 27.3457C225.772 26.6987 224.304 26.1727 222.49 26.1727C220.675 26.1727 219.208 26.6987 219.208 27.3457C219.208 27.635 219.513 27.9032 220.012 28.1083Z" fill="#FAFAFA"/>
<path d="M220.791 26.3673H224.178C224.52 26.2253 224.704 26.0412 224.704 25.8414C224.704 25.3995 223.699 25.0419 222.458 25.0419C221.217 25.0419 220.212 25.3995 220.212 25.8414C220.244 26.0412 220.454 26.2253 220.791 26.3673Z" fill="#FAFAFA"/>
<path d="M51.7143 25.7889H47.3119L47.6117 22.4805L47.8116 20.2713L48.1377 16.7052H50.8886L51.2147 20.2713L51.4145 22.4805L51.7143 25.7889Z" fill="#E6E6E6"/>
<path d="M51.2148 20.2712L51.4147 22.4804H47.6118L47.8117 20.2712H51.2148Z" fill="#F0F0F0"/>
<path d="M56.6428 25.7889H52.2404L52.5402 22.4805L52.74 20.2713L53.0661 16.7052H55.817L56.1431 20.2713L56.343 22.4805L56.6428 25.7889Z" fill="#E6E6E6"/>
<path d="M56.343 22.4804H52.5402L52.74 20.2712H56.1431L56.343 22.4804Z" fill="#F0F0F0"/>
<path d="M40.2112 15.2429H39.6432V18.1989H40.2112V15.2429Z" fill="#E6E6E6"/>
<path d="M41.5524 14.3383H38.3071V15.3481H41.5524V14.3383Z" fill="#E6E6E6"/>
<path d="M37.2814 25.7888H42.5833C43.4502 25.2185 44.1101 24.3838 44.4649 23.4086C44.8197 22.4334 44.8506 21.3699 44.5529 20.3758C44.2552 19.3817 43.6449 18.5101 42.8125 17.8905C41.9801 17.2708 40.9701 16.9362 39.9324 16.9362C38.8947 16.9362 37.8846 17.2708 37.0523 17.8905C36.2199 18.5101 35.6095 19.3817 35.3118 20.3758C35.0142 21.3699 35.045 22.4334 35.3998 23.4086C35.7547 24.3838 36.4145 25.2185 37.2814 25.7888Z" fill="#E6E6E6"/>
<path d="M71.4018 22.9327H61.3398V25.6941H71.4018V22.9327Z" fill="#E6E6E6"/>
<path d="M72.9745 25.7888H30.975V30.1597H72.9745V25.7888Z" fill="#F0F0F0"/>
<path d="M34.3307 30.1597L36.2505 34.499H39.0908V30.1597H34.3307Z" fill="#E6E6E6"/>
<path d="M69.624 30.1597L67.7042 34.499H64.8639V30.1597H69.624Z" fill="#E6E6E6"/>
<path d="M221.864 160.435H194.376C194.221 160.435 194.067 160.405 193.924 160.346C193.78 160.287 193.649 160.201 193.54 160.091C193.43 159.982 193.342 159.852 193.283 159.708C193.223 159.565 193.193 159.411 193.193 159.256C193.193 158.942 193.317 158.641 193.539 158.419C193.761 158.198 194.062 158.073 194.376 158.073H221.864C222.178 158.073 222.479 158.198 222.701 158.419C222.923 158.641 223.047 158.942 223.047 159.256C223.047 159.411 223.017 159.565 222.957 159.708C222.897 159.852 222.81 159.982 222.7 160.091C222.59 160.201 222.46 160.287 222.316 160.346C222.173 160.405 222.019 160.435 221.864 160.435Z" fill="#E0E0E0"/>
<path d="M221.795 131.874H194.508C194.054 131.874 193.687 132.241 193.687 132.694V136.05C193.687 136.503 194.054 136.871 194.508 136.871H221.795C222.249 136.871 222.616 136.503 222.616 136.05V132.694C222.616 132.241 222.249 131.874 221.795 131.874Z" fill="#F0F0F0"/>
<path d="M207.815 117.867H204.959C204.959 117.867 190.789 88.7224 194.634 84.2043C199.594 78.4185 206.032 94.9816 207.815 117.867Z" fill="#F0F0F0"/>
<path d="M206.915 117.867H206.447L197.443 88.3594C197.434 88.3314 197.43 88.302 197.433 88.2727C197.436 88.2435 197.444 88.2151 197.458 88.1891C197.471 88.1632 197.49 88.1402 197.513 88.1216C197.535 88.1029 197.562 88.089 197.59 88.0806C197.618 88.0717 197.647 88.0685 197.676 88.0711C197.706 88.0737 197.734 88.0821 197.76 88.0958C197.786 88.1095 197.809 88.1282 197.828 88.1509C197.846 88.1736 197.86 88.1998 197.869 88.2279L206.915 117.867Z" fill="#E0E0E0"/>
<path d="M209.498 117.867H212.359C212.359 117.867 226.529 88.7224 222.684 84.2043C217.724 78.4185 211.286 94.9816 209.498 117.867Z" fill="#F0F0F0"/>
<path d="M210.403 117.867H210.866L219.876 88.3594C219.888 88.3039 219.879 88.2458 219.85 88.1967C219.821 88.1476 219.775 88.1111 219.721 88.0945C219.666 88.078 219.608 88.0825 219.556 88.1072C219.505 88.1319 219.465 88.175 219.444 88.2279L210.403 117.867Z" fill="#E0E0E0"/>
<path d="M210.345 117.867H207.815C202.224 91.0418 204.459 68.6246 210.124 72.8377C215.789 77.0508 210.345 117.867 210.345 117.867Z" fill="#F0F0F0"/>
<path d="M208.862 78.2974L208.562 117.877H208.115L208.399 78.2974C208.4 78.2383 208.424 78.1821 208.467 78.1409C208.509 78.0996 208.566 78.0765 208.625 78.0765C208.655 78.0735 208.686 78.077 208.715 78.0868C208.744 78.0966 208.771 78.1125 208.793 78.1334C208.816 78.1543 208.833 78.1798 208.845 78.208C208.857 78.2363 208.862 78.2668 208.862 78.2974Z" fill="#E0E0E0"/>
<path d="M221.58 117.562L221.206 118.545L220.975 119.166L220.302 120.949L220.07 121.57L219.381 123.4L219.144 124.021L216.188 131.874H200.03L197.074 124.021L196.843 123.4L196.154 121.57L195.917 120.949L195.249 119.166L195.018 118.545L194.65 117.562C194.596 117.406 194.58 117.24 194.602 117.076C194.624 116.913 194.685 116.757 194.779 116.622C194.872 116.486 194.997 116.374 195.141 116.295C195.286 116.217 195.447 116.173 195.612 116.168H220.622C220.787 116.174 220.947 116.218 221.092 116.297C221.236 116.376 221.359 116.488 221.452 116.624C221.545 116.759 221.605 116.915 221.628 117.078C221.65 117.241 221.633 117.406 221.58 117.562Z" fill="#E0E0E0"/>
<path d="M204.133 136.871L203.302 139.548L191.736 176.835H189.474L196.811 140.311L197.506 136.871H204.133Z" fill="#E6E6E6"/>
<path d="M226.892 176.835H224.63L212.722 138.443L212.233 136.871H218.86L219.029 137.702L226.892 176.835Z" fill="#E6E6E6"/>
<path d="M221.864 155.296H194.376C194.062 155.296 193.761 155.171 193.539 154.949C193.317 154.727 193.193 154.426 193.193 154.112C193.193 153.957 193.223 153.803 193.283 153.66C193.342 153.517 193.43 153.387 193.54 153.277C193.649 153.168 193.78 153.081 193.924 153.022C194.067 152.963 194.221 152.933 194.376 152.934H221.864C222.019 152.933 222.173 152.963 222.316 153.022C222.46 153.081 222.59 153.168 222.7 153.277C222.81 153.387 222.897 153.517 222.957 153.66C223.017 153.803 223.047 153.957 223.047 154.112C223.047 154.426 222.923 154.727 222.701 154.949C222.479 155.171 222.178 155.296 221.864 155.296Z" fill="#F0F0F0"/>
<path d="M133.11 200.767C193.474 200.767 242.409 199.041 242.409 196.911C242.409 194.782 193.474 193.056 133.11 193.056C72.7459 193.056 23.8112 194.782 23.8112 196.911C23.8112 199.041 72.7459 200.767 133.11 200.767Z" fill="#F5F5F5"/>
<path d="M35.0987 184.672L33.8574 191.62L37.7549 191.652L40.3428 185.308L35.0987 184.672Z" fill="#FF8B7B"/>
<path d="M33.5838 190.447C33.5838 190.447 32.4845 190.279 32.8317 191.62C33.1788 192.961 32.7423 196.191 33.0736 197.432H47.3119C47.3119 197.432 47.091 194.355 44.4927 194.276C41.0107 194.15 39.3854 192.14 39.3854 192.14C38.8594 190.736 37.981 191.204 36.5556 191.357C35.2565 191.483 33.5838 190.447 33.5838 190.447Z" fill="#4A3589"/>
<path d="M32.9527 196.585H46.9701C46.9892 196.589 47.0089 196.589 47.0278 196.584C47.0467 196.579 47.0644 196.57 47.0795 196.558C47.0946 196.546 47.1067 196.53 47.1151 196.513C47.1234 196.495 47.1277 196.476 47.1277 196.456C47.1277 196.437 47.1234 196.418 47.1151 196.4C47.1067 196.382 47.0946 196.367 47.0795 196.355C47.0644 196.342 47.0467 196.333 47.0278 196.329C47.0089 196.324 46.9892 196.324 46.9701 196.327H32.9527C32.9336 196.324 32.9139 196.324 32.895 196.329C32.8761 196.333 32.8584 196.342 32.8433 196.355C32.8282 196.367 32.8161 196.382 32.8077 196.4C32.7994 196.418 32.795 196.437 32.795 196.456C32.795 196.476 32.7994 196.495 32.8077 196.513C32.8161 196.53 32.8282 196.546 32.8433 196.558C32.8584 196.57 32.8761 196.579 32.895 196.584C32.9139 196.589 32.9336 196.589 32.9527 196.585Z" fill="white"/>
<path d="M61.7449 185.198L62.0184 191.62L65.9212 191.651L66.9889 185.834L61.7449 185.198Z" fill="#FF8B7B"/>
<path d="M61.7501 190.447C61.7501 190.447 60.6508 190.279 60.998 191.62C61.3451 192.961 60.9085 196.191 61.2399 197.432H75.4782C75.4782 197.432 75.2573 194.355 72.6589 194.276C69.1769 194.15 67.5517 192.14 67.5517 192.14C67.0257 190.736 66.1473 191.204 64.7219 191.357C63.4227 191.483 61.7501 190.447 61.7501 190.447Z" fill="#4A3589"/>
<path d="M61.1242 196.585H75.1469C75.1766 196.579 75.2033 196.563 75.2225 196.54C75.2417 196.516 75.2522 196.487 75.2522 196.456C75.2522 196.426 75.2417 196.397 75.2225 196.373C75.2033 196.35 75.1766 196.333 75.1469 196.327H61.1242C61.1051 196.324 61.0854 196.324 61.0665 196.329C61.0476 196.333 61.0299 196.342 61.0148 196.355C60.9997 196.367 60.9876 196.382 60.9792 196.4C60.9709 196.418 60.9666 196.437 60.9666 196.456C60.9666 196.476 60.9709 196.495 60.9792 196.513C60.9876 196.53 60.9997 196.546 61.0148 196.558C61.0299 196.57 61.0476 196.579 61.0665 196.584C61.0854 196.589 61.1051 196.589 61.1242 196.585Z" fill="white"/>
<path d="M68.1881 186.123H60.6929C60.6929 186.123 59.115 167.325 60.2511 154.812C61.1611 144.734 59.9092 135.024 56.9269 125.178C56.9269 131.669 56.6481 138.07 55.8749 143.188C53.1136 160.829 41.0055 186.123 41.0055 186.123H33.505C33.505 186.123 35.0829 167.646 39.4696 155.406C43.8563 143.167 43.8037 128.97 41.0055 116.452C38.2073 103.934 42.7465 92.867 42.7465 92.867L54.2129 92.0465H66.7207C66.7207 92.0465 72.6905 124.279 72.9272 142.062C73.1639 159.845 68.1881 186.123 68.1881 186.123Z" fill="#4A3589"/>
<g opacity="0.2">
<path d="M68.1881 186.123H60.6929C60.6929 186.123 59.115 167.325 60.2564 154.812C60.914 147.302 60.4227 139.735 58.7994 132.373C58.2839 129.985 57.6563 127.589 56.9164 125.183C56.9164 131.674 56.6324 138.075 55.8329 143.193C53.1136 160.829 41.0055 186.123 41.0055 186.123H33.505C33.505 186.123 35.0829 167.646 39.4696 155.406C43.8563 143.167 43.8037 128.965 41.0055 116.447C38.2073 103.928 42.7412 92.867 42.7412 92.867L54.2181 92.0465H66.7259C66.7259 92.0465 72.6905 124.273 72.922 142.062C73.1534 159.851 68.1881 186.123 68.1881 186.123Z" fill="white"/>
</g>
<path d="M59.4832 183.962L59.5726 186.434L69.2348 186.413L69.4505 183.962H59.4832Z" fill="#4A3589"/>
<path d="M32.9527 184.02L32.7949 186.492L41.6524 186.471L42.5203 184.02H32.9527Z" fill="#4A3589"/>
<g opacity="0.2">
<path d="M58.7994 132.379C58.2839 129.987 57.6563 127.589 56.9164 125.183C56.9164 125.183 58.6995 112.502 57.5739 103.776C59.7417 113.153 60.1572 122.85 58.7994 132.379Z" fill="black"/>
</g>
<path d="M68.2459 58.6836C69.2979 62.4181 70.1026 66.1946 70.8758 69.9816C71.649 73.7687 72.3538 77.561 72.9797 81.4796L73.0954 82.2685V82.4684V82.5052V82.4632C73.0891 82.431 73.0803 82.3993 73.0691 82.3685C73.0567 82.3178 73.0353 82.2697 73.006 82.2265C73.079 82.4476 73.1874 82.6554 73.3269 82.8419C73.7984 83.5279 74.3131 84.1832 74.868 84.8038C76.0357 86.1713 77.3454 87.5231 78.6761 88.8643C81.3428 91.5416 84.141 94.1978 86.9287 96.8066L84.404 100.052C82.7419 98.9737 81.1587 97.8481 79.5597 96.7067C77.9608 95.5653 76.4039 94.3871 74.8259 93.1616C73.248 91.9361 71.7489 90.6527 70.2341 89.2378C69.4307 88.4848 68.6737 87.6838 67.9671 86.8393C67.4961 86.2733 67.0936 85.6536 66.7679 84.9931C66.641 84.7285 66.5355 84.4541 66.4523 84.1726L66.3839 83.8991L66.3524 83.7729V83.7308L66.305 83.5782L66.1209 82.9471C65.069 79.3178 63.9381 75.5833 62.9335 71.8752C61.9289 68.167 60.9295 64.422 60.1195 60.6508L68.2459 58.6836Z" fill="#B55B52"/>
<path d="M90.3109 104.375C90.5373 104.421 90.772 104.397 90.9846 104.307C91.1972 104.217 91.3779 104.065 91.5031 103.871C91.6284 103.677 91.6926 103.45 91.6873 103.219C91.6819 102.988 91.6074 102.765 91.4733 102.577C91.2893 102.316 91.0737 102.079 90.8316 101.872C91.3576 102.35 92.1255 103.097 92.4095 102.819C92.8672 102.319 90.6686 99.7574 89.5587 98.6791C90.7212 99.3366 92.4516 98.9211 91.7047 98.5476C90.8316 98.1163 89.7902 97.4694 88.1754 96.5489C85.94 95.2603 85.0195 97.4589 85.0195 97.4589C82.2476 99.2051 84.3831 100.767 85.4508 101.793C86.5186 102.819 88.6435 104.912 89.3326 104.539C89.6008 104.386 88.9907 103.734 88.5646 103.318C89.0576 103.783 89.6414 104.141 90.2793 104.37L90.3109 104.375Z" fill="#B55B52"/>
<path d="M66.1841 54.8597C66.1841 54.8597 70.3919 55.9906 70.9179 62.092C71.4439 68.1933 72.3643 71.0021 72.3643 71.0021L67.1992 71.7542L66.1841 54.8597Z" fill="#4A3589"/>
<g opacity="0.1">
<path d="M66.1841 54.8597C66.1841 54.8597 70.3919 55.9906 70.9179 62.092C71.4439 68.1933 72.3643 71.0021 72.3643 71.0021L67.1992 71.7542L66.1841 54.8597Z" fill="white"/>
</g>
<path d="M69.4609 61.9027C69.2611 67.5833 73.4584 70.8443 68.4458 74.9102C67.9935 79.8018 66.4523 83.7203 67.7042 91.5627C68.1197 94.1926 45.6393 97.2275 42.7464 92.8724C38.0862 85.8558 44.6452 76.993 41.321 61.4608C40.5478 57.8579 41.9732 53.8183 45.4552 53.387C46.3862 53.2766 47.3698 53.1767 48.3796 53.1083C52.3035 52.8453 55.5225 52.6559 58.9834 52.9294C60.13 53.0241 61.3135 53.1556 62.4444 53.3029C66.5312 53.8289 69.6135 57.5686 69.4609 61.9027Z" fill="#4A3589"/>
<g opacity="0.3">
<path d="M69.4609 61.9027C69.2611 67.5833 73.4584 70.8443 68.4458 74.9102C67.9935 79.8018 66.4523 83.7203 67.7042 91.5627C68.1197 94.1926 45.6393 97.2275 42.7464 92.8724C38.0862 85.8558 44.6452 76.993 41.321 61.4608C40.5478 57.8579 41.9732 53.8183 45.4552 53.387C46.3862 53.2766 47.3698 53.1767 48.3796 53.1083C52.3035 52.8453 55.5225 52.6559 58.9834 52.9294C60.13 53.0241 61.3135 53.1556 62.4444 53.3029C66.5312 53.8289 69.6135 57.5686 69.4609 61.9027Z" fill="white"/>
</g>
<path d="M73.1007 43.7353C72.8377 46.8439 68.5142 46.6861 68.3669 49.8104C68.2775 51.8039 63.9066 51.8722 58.8992 50.5205C56.5113 49.8682 52.4875 50.0997 50.4836 47.4014C50.3665 47.2302 50.2851 47.0371 50.2442 46.8338C50.2033 46.6305 50.2038 46.421 50.2455 46.2178C50.2872 46.0147 50.3693 45.822 50.487 45.6512C50.6048 45.4804 50.7556 45.3351 50.9306 45.2238C52.5086 44.1403 52.0668 42.9516 51.9353 41.1422C51.6354 36.8607 50.4888 34.3045 54.0392 32.7581C57.5895 31.2117 56.3693 30.2439 58.9466 29.4234C61.0978 28.7291 62.2813 31.0855 64.9112 30.5332C68.956 29.6916 70.6549 31.764 70.6549 31.764C70.6549 31.764 73.8792 34.4991 72.338 37.4709C70.7969 40.4427 73.3637 40.632 73.1007 43.7353Z" fill="#263238"/>
<path d="M59.5463 54.6967C59.3365 54.2628 59.2369 53.7838 59.2561 53.3022C59.2754 52.8206 59.413 52.3511 59.6567 51.9353C59.9645 51.3434 60.3424 50.7906 60.7823 50.289L60.2879 49.1476L57.5107 43.8247C56.7691 46.5756 54.2759 52.1457 51.6881 52.9662C53.792 54.4074 56.2115 58.3733 59.3832 58.9729C62.5549 59.5726 60.2143 55.9749 59.5463 54.6967Z" fill="#B55B52"/>
<g opacity="0.2">
<path d="M59.6672 51.9353C59.975 51.3434 60.353 50.7906 60.7928 50.289L60.2984 49.1476L57.9946 48.7689C58.1869 49.9802 58.7751 51.0937 59.6672 51.9353Z" fill="black"/>
</g>
<path d="M57.7842 38.7226C56.5587 43.2408 55.9485 45.1291 57.3792 48.143C59.5305 52.6716 65.2689 53.145 67.7726 49.0687C70.0448 45.3868 71.6596 38.6227 67.9988 35.43C64.3379 32.2373 59.0045 34.1992 57.7842 38.7226Z" fill="#B55B52"/>
<path d="M67.7041 34.4779C67.7041 34.4779 67.9408 38.5753 65.4477 39.1276C62.9545 39.6799 60.0564 37.739 59.4989 40.7056C59.1833 42.3887 56.6428 41.3788 57.1004 39.8535C57.558 38.3281 57.0057 35.1722 60.5666 34.1729C64.1275 33.1735 67.7041 34.4779 67.7041 34.4779Z" fill="#263238"/>
<path d="M59.2202 42.8359C59.4702 42.8748 59.726 42.855 59.9671 42.778C61.6712 42.2941 62.597 38.3966 62.6548 38.2283L62.3655 38.1599C62.3655 38.1967 61.4188 42.0522 59.8829 42.4887C59.7308 42.5497 59.5662 42.5729 59.4031 42.5564C59.2401 42.5399 59.0835 42.4842 58.9467 42.3941C58.6404 42.0572 58.4797 41.6129 58.4996 41.158H58.1998C58.1876 41.4301 58.2307 41.7018 58.3266 41.9568C58.4224 42.2117 58.5689 42.4446 58.7573 42.6413C58.8936 42.7425 59.0524 42.8093 59.2202 42.8359Z" fill="#263238"/>
<path d="M67.2414 35.7193C67.2414 35.7193 69.0297 40.2427 70.9758 39.6273C72.922 39.0119 69.5662 33.6575 67.7042 34.478C65.8423 35.2985 67.2414 35.7193 67.2414 35.7193Z" fill="#263238"/>
<path d="M66.0683 47.5907C66.0683 47.5907 64.0223 46.16 63.712 45.0975C63.712 45.0975 63.0597 46.7754 64.1117 47.638C64.3839 47.8779 64.7366 48.0062 65.0993 47.9974C65.462 47.9887 65.808 47.8434 66.0683 47.5907Z" fill="white"/>
<path d="M64.8061 43.1146C64.6851 43.4776 64.7798 43.8352 65.0165 43.9141C65.2532 43.993 65.5424 43.7616 65.6582 43.3881C65.7739 43.0147 65.6897 42.6675 65.453 42.5887C65.2163 42.5098 64.927 42.7412 64.8061 43.1146Z" fill="#263238"/>
<path d="M68.4354 44.4348C68.3091 44.7977 68.4038 45.1554 68.6405 45.2343C68.8772 45.3132 69.1665 45.0818 69.2875 44.7083C69.4084 44.3349 69.2875 43.9877 69.0771 43.9088C68.8667 43.8299 68.5511 44.0614 68.4354 44.4348Z" fill="#263238"/>
<path d="M68.9666 43.9142L69.9186 43.951C69.9186 43.951 69.2453 44.477 68.9666 43.9142Z" fill="#263238"/>
<path d="M66.8732 43.9088C66.8732 43.9088 67.173 45.0765 67.5727 46.1337C67.6026 46.2137 67.6143 46.2994 67.6069 46.3845C67.5994 46.4696 67.5731 46.552 67.5297 46.6256C67.4864 46.6992 67.4271 46.7622 67.3563 46.8099C67.2855 46.8577 67.2049 46.889 67.1204 46.9016C66.7044 46.949 66.2845 46.949 65.8685 46.9016L66.8732 43.9088Z" fill="#A02724"/>
<path d="M55.1754 41.258C55.2138 41.6828 55.3425 42.0945 55.5529 42.4656C55.7634 42.8366 56.0507 43.1583 56.3957 43.4092C57.2899 44.0194 58.1419 43.1042 58.2314 41.9102C58.3155 40.8582 57.9526 39.2382 56.8901 39.1172C55.8276 38.9963 55.0492 40.1376 55.1754 41.258Z" fill="#B55B52"/>
<path d="M64.3379 41.0528C64.3989 41.0514 64.4572 41.0269 64.501 40.9844C64.6905 40.7771 64.927 40.6183 65.1905 40.5213C65.4541 40.4243 65.7371 40.3919 66.0158 40.4269C66.0743 40.4377 66.1348 40.4249 66.184 40.3915C66.2332 40.358 66.2673 40.3064 66.2788 40.248C66.2849 40.2193 66.2853 40.1897 66.2798 40.1609C66.2744 40.1321 66.2633 40.1046 66.2471 40.0801C66.231 40.0557 66.2101 40.0346 66.1857 40.0183C66.1614 40.002 66.134 39.9907 66.1052 39.985C65.7531 39.9378 65.3948 39.9752 65.06 40.0941C64.7252 40.2131 64.4236 40.4101 64.1801 40.6688C64.139 40.711 64.116 40.7676 64.116 40.8266C64.116 40.8855 64.139 40.9422 64.1801 40.9844C64.2217 41.0238 64.2755 41.048 64.3326 41.0528" fill="#263238"/>
<path d="M70.5918 42.3888C70.646 42.4094 70.7059 42.4094 70.7601 42.3888C70.8112 42.359 70.8489 42.3108 70.8655 42.2541C70.8821 42.1973 70.8764 42.1364 70.8496 42.0838C70.6888 41.7669 70.4545 41.4932 70.1662 41.2854C69.878 41.0777 69.5442 40.942 69.1927 40.8898C69.1613 40.883 69.1288 40.8831 69.0973 40.8899C69.0659 40.8967 69.0363 40.9102 69.0105 40.9294C68.9847 40.9485 68.9633 40.973 68.9476 41.0011C68.932 41.0292 68.9226 41.0603 68.92 41.0924C68.9173 41.1244 68.9215 41.1567 68.9323 41.1869C68.9432 41.2172 68.9603 41.2449 68.9826 41.268C69.0049 41.2911 69.032 41.3092 69.0618 41.3211C69.0917 41.333 69.1238 41.3384 69.1559 41.3369C69.4326 41.3826 69.6946 41.4932 69.9204 41.6596C70.1462 41.826 70.3294 42.0434 70.4551 42.2941C70.4688 42.3211 70.4881 42.3449 70.5117 42.3639C70.5352 42.383 70.5626 42.3968 70.5918 42.4046" fill="#263238"/>
<path d="M65.3635 42.5886L66.3156 42.6307C66.3156 42.6307 65.6423 43.1567 65.3635 42.5886Z" fill="#263238"/>
<path d="M48.8952 61.2925L51.3305 72.5116C51.7513 74.3684 52.1773 76.1935 52.6402 78.0134C52.8716 78.9076 53.1188 79.7965 53.366 80.6433C53.5848 81.4003 53.8447 82.1447 54.1445 82.8735L54.2128 83.026L54.2444 83.0944C54.2444 83.0944 54.2444 83.0944 54.2444 83.1312C54.2444 83.168 54.2444 83.1312 54.2865 83.1996C54.3739 83.3079 54.4669 83.4114 54.5653 83.5099C54.6884 83.6443 54.8184 83.7725 54.9545 83.8939C55.5278 84.4198 56.2326 84.9774 56.9585 85.5244C58.4154 86.6184 59.9776 87.7019 61.5555 88.7644C64.7114 90.8684 67.9725 93.0196 71.1967 95.1446L69.3663 98.8264C65.6371 97.4641 62.0026 95.9598 58.4259 94.2346C56.6324 93.3668 54.8493 92.4673 53.0557 91.4206C52.1615 90.8947 51.2674 90.3424 50.3206 89.6586C50.0839 89.485 49.8525 89.3114 49.5947 89.1011C49.337 88.8907 49.0688 88.6645 48.8163 88.4068C48.69 88.291 48.5217 88.0964 48.3797 87.9334C48.2232 87.7689 48.079 87.5931 47.9484 87.4074L47.7485 87.1129C47.6802 87.0129 47.6433 86.9445 47.5907 86.8604L47.312 86.3765C46.7774 85.3561 46.3101 84.3019 45.9129 83.2206C45.5289 82.2265 45.2186 81.2534 44.9083 80.2804C44.2929 78.2974 43.7669 76.3723 43.2409 74.4472C42.2521 70.5971 41.4052 66.7837 40.7162 62.8757L48.8952 61.2925Z" fill="#B55B52"/>
<path d="M71.202 95.1288C71.202 95.1288 75.5782 95.9914 76.3671 96.5384C77.256 97.1485 74.6367 102.072 73.085 102.24C71.5334 102.408 69.3716 98.8159 69.3716 98.8159L71.202 95.1288Z" fill="#B55B52"/>
<path d="M71.0127 95.334C71.7212 94.9619 72.506 94.7585 73.306 94.7396C74.3579 94.808 75.473 94.7396 75.8254 95.0552C76.1778 95.3708 74.2475 95.8915 74.2475 95.8915L71.0127 95.334Z" fill="#B55B52"/>
<path d="M76.3775 96.5385C76.3775 96.5385 78.5972 98.3163 78.9601 99.6943C79.323 101.072 77.3243 99.4892 77.3243 99.4892C77.3243 99.4892 79.5492 101.556 77.6136 103.103C76.6668 103.865 73.5583 102.777 72.2381 102.003C72.2276 102.009 74.079 97.7587 76.3775 96.5385Z" fill="#B55B52"/>
<path d="M43.1198 54.3759C43.1198 54.3759 39.6694 55.1859 40.006 63.2071C40.3427 71.2283 41.3473 73.0008 41.3473 73.0008L52.6033 70.1027C52.6033 70.1027 52.5507 56.8427 49.0266 54.4442C48.1765 53.808 47.1461 53.4585 46.0844 53.4463C45.0226 53.434 43.9845 53.7595 43.1198 54.3759Z" fill="#4A3589"/>
<g opacity="0.1">
<path d="M43.1198 54.3759C43.1198 54.3759 39.6694 55.1859 40.006 63.2071C40.3427 71.2283 41.3473 73.0008 41.3473 73.0008L52.6033 70.1027C52.6033 70.1027 52.5507 56.8427 49.0266 54.4442C48.1765 53.808 47.1461 53.4585 46.0844 53.4463C45.0226 53.434 43.9845 53.7595 43.1198 54.3759Z" fill="white"/>
</g>
<path d="M122.477 130.339L68.2993 166.869L68.9021 167.763L123.08 131.233L122.477 130.339Z" fill="black"/>
<path d="M172.665 130.306L172.062 131.2L226.234 167.739L226.837 166.845L172.665 130.306Z" fill="black"/>
<path d="M170.854 120.749H124.926C121.646 120.749 118.987 123.408 118.987 126.688V127.324C118.987 130.604 121.646 133.262 124.926 133.262H170.854C174.134 133.262 176.793 130.604 176.793 127.324V126.688C176.793 123.408 174.134 120.749 170.854 120.749Z" fill="#4A3589"/>
<g opacity="0.2">
<path d="M170.854 120.749H124.926C121.646 120.749 118.987 123.408 118.987 126.688V127.324C118.987 130.604 121.646 133.262 124.926 133.262H170.854C174.134 133.262 176.793 130.604 176.793 127.324V126.688C176.793 123.408 174.134 120.749 170.854 120.749Z" fill="black"/>
</g>
<path d="M233.598 120.749H176.656C173.376 120.749 170.717 123.408 170.717 126.688V127.324C170.717 130.604 173.376 133.262 176.656 133.262H233.598C236.878 133.262 239.537 130.604 239.537 127.324V126.688C239.537 123.408 236.878 120.749 233.598 120.749Z" fill="#4A3589"/>
<g opacity="0.2">
<path d="M233.598 120.749H176.656C173.376 120.749 170.717 123.408 170.717 126.688V127.324C170.717 130.604 173.376 133.262 176.656 133.262H233.598C236.878 133.262 239.537 130.604 239.537 127.324V126.688C239.537 123.408 236.878 120.749 233.598 120.749Z" fill="black"/>
</g>
<path d="M119.971 120.749H63.0282C59.7485 120.749 57.0898 123.408 57.0898 126.688V127.324C57.0898 130.604 59.7485 133.262 63.0282 133.262H119.971C123.25 133.262 125.909 130.604 125.909 127.324V126.688C125.909 123.408 123.25 120.749 119.971 120.749Z" fill="#4A3589"/>
<g opacity="0.2">
<path d="M119.971 120.749H63.0282C59.7485 120.749 57.0898 123.408 57.0898 126.688V127.324C57.0898 130.604 59.7485 133.262 63.0282 133.262H119.971C123.25 133.262 125.909 130.604 125.909 127.324V126.688C125.909 123.408 123.25 120.749 119.971 120.749Z" fill="black"/>
</g>
<path d="M69.7923 133.036H67.4254V197.432H69.7923V133.036Z" fill="black"/>
<path d="M149.073 133.036H146.706V197.432H149.073V133.036Z" fill="black"/>
<path d="M227.723 133.036H225.356V197.432H227.723V133.036Z" fill="black"/>
<path d="M226.535 167.046H69.7924V167.583H226.535V167.046Z" fill="black"/>
<path d="M173.095 107.915C176.221 106.576 179.516 105.673 182.889 105.233C187.985 104.707 223.116 115.195 224.799 115.363C226.482 115.532 230.842 109.856 232.331 109.42C233.819 108.983 228.123 119.234 228.123 119.234C228.123 119.234 205.243 118.098 199.457 115.379L178.502 118.603L173.095 107.915Z" fill="#FF8B7B"/>
<path opacity="0.2" d="M173.095 107.915C176.221 106.576 179.516 105.673 182.889 105.233C187.985 104.707 223.116 115.195 224.799 115.363C226.482 115.532 230.842 109.856 232.331 109.42C233.819 108.983 228.123 119.234 228.123 119.234C228.123 119.234 205.243 118.098 199.457 115.379L178.502 118.603L173.095 107.915Z" fill="black"/>
<path d="M175.919 107.963C180.013 107.791 184.113 108.107 188.133 108.904C198.531 111.198 227.323 118.23 228.291 117.451C229.985 116.1 233.856 111.303 234.635 110.861C237.438 109.251 230.827 120.749 230.827 120.749C213.427 120.686 196.212 123.379 185.955 119.697C182.578 121.275 179.643 120.812 175.031 120.749L175.919 107.963Z" fill="#FF8B7B"/>
<path d="M89.9163 121.638C92.5199 120.35 93.3878 120.586 92.2201 113.838C89.9373 105.948 82.6736 104.539 79.4756 103.928C75.1994 103.118 71.7963 103.928 69.7239 106.753C67.7883 109.383 67.094 116.221 68.5142 118.498C68.5142 118.498 70.0395 122.369 75.8779 121.954C81.448 121.559 85.9452 122.685 89.9163 121.638Z" fill="#263238"/>
<path d="M110.861 106.017C109.025 104.828 105.975 105.243 103.25 106.169C98.595 107.747 92.7303 110.608 91.4995 113.312C91.8414 115.416 88.6698 117.583 88.5751 119.377C88.4804 121.17 88.796 123.416 90.9525 123.416C91.5942 123.416 99.7154 123.516 110.861 123.626V106.017Z" fill="#FF8B7B"/>
<path d="M90.0531 120.902C91.1852 119.447 92.4285 118.082 93.7718 116.82C94.2129 116.408 94.6079 115.95 94.95 115.453C95.8652 114.111 96.4438 112.86 95.7968 112.428C95.6503 112.332 95.4933 112.252 95.3287 112.192C94.7739 111.984 94.1712 111.94 93.5922 112.065C93.0131 112.19 92.4821 112.478 92.0624 112.896C91.6615 113.308 91.1505 113.594 90.5907 113.722C90.0309 113.85 89.4461 113.813 88.9065 113.617C88.2485 113.424 87.6176 113.148 87.0287 112.796L85.9768 113.517L81.1115 117.32C84.0254 117.541 88.7013 118.419 90.0531 120.902Z" fill="#FF8B7B"/>
<g opacity="0.2">
<path d="M88.8802 113.591C88.2222 113.397 87.5913 113.122 87.0024 112.77L85.9504 113.491L86.0136 115.894C87.1973 115.464 88.2053 114.654 88.8802 113.591Z" fill="black"/>
</g>
<path d="M75.8937 118.041C80.6959 118.403 82.7315 118.661 85.4929 116.636C89.6534 113.591 89.0274 107.721 84.4409 105.959C80.3014 104.381 73.1428 104.039 70.6181 108.352C68.0934 112.665 71.1073 117.678 75.9095 118.041" fill="#FF8B7B"/>
<path d="M82.0581 110.74C82.0288 110.74 82.0001 110.731 81.977 110.713C81.954 110.694 81.938 110.669 81.9319 110.64C81.9281 110.624 81.9277 110.607 81.9307 110.59C81.9338 110.574 81.9402 110.558 81.9496 110.544C81.959 110.531 81.9711 110.519 81.9853 110.51C81.9995 110.501 82.0153 110.495 82.0318 110.493C82.3337 110.454 82.6236 110.35 82.8815 110.189C83.1394 110.027 83.3592 109.811 83.5256 109.556C83.7394 109.098 83.7714 108.575 83.615 108.094C83.6091 108.079 83.6064 108.062 83.6069 108.045C83.6074 108.029 83.6111 108.012 83.618 107.997C83.6248 107.982 83.6346 107.969 83.6467 107.957C83.6589 107.946 83.6731 107.937 83.6887 107.931C83.7042 107.925 83.7208 107.922 83.7374 107.923C83.754 107.923 83.7704 107.927 83.7855 107.934C83.8007 107.941 83.8143 107.951 83.8257 107.963C83.837 107.975 83.8459 107.989 83.8517 108.005C84.0372 108.555 83.9994 109.155 83.7465 109.677C83.5635 109.964 83.3197 110.206 83.0325 110.388C82.7453 110.57 82.4216 110.686 82.0844 110.729L82.0581 110.74Z" fill="#263238"/>
<path d="M79.0075 110.908C78.985 110.91 78.9625 110.904 78.9429 110.893C78.9232 110.882 78.9073 110.865 78.8971 110.845C78.8884 110.831 78.8827 110.815 78.8801 110.799C78.8776 110.782 78.8783 110.766 78.8822 110.75C78.8861 110.733 78.8931 110.718 78.9029 110.705C78.9127 110.692 78.925 110.68 78.9392 110.672C79.0696 110.606 79.1739 110.497 79.235 110.365C79.2962 110.232 79.3105 110.082 79.2758 109.94C79.2478 109.805 79.1786 109.682 79.0779 109.588C78.9771 109.494 78.8496 109.433 78.713 109.414C78.6964 109.413 78.6803 109.407 78.6657 109.399C78.6511 109.391 78.6383 109.38 78.628 109.367C78.6178 109.353 78.6102 109.338 78.6058 109.322C78.6015 109.306 78.6003 109.289 78.6025 109.272C78.6038 109.256 78.6084 109.24 78.6161 109.226C78.6238 109.211 78.6343 109.198 78.6471 109.188C78.6599 109.177 78.6747 109.17 78.6906 109.165C78.7064 109.161 78.723 109.16 78.7393 109.162C78.9301 109.189 79.1079 109.274 79.2482 109.406C79.3886 109.537 79.4846 109.71 79.523 109.898C79.5675 110.091 79.5473 110.294 79.4656 110.474C79.3839 110.655 79.2451 110.804 79.0707 110.898C79.0513 110.908 79.0292 110.912 79.0075 110.908Z" fill="#263238"/>
<path d="M79.0075 107.027C78.9856 107.027 78.964 107.022 78.9446 107.012C78.9253 107.002 78.9089 106.987 78.897 106.969C78.8884 106.955 78.8826 106.939 78.8801 106.922C78.8775 106.906 78.8782 106.889 78.8821 106.873C78.886 106.857 78.8931 106.842 78.9028 106.828C78.9126 106.815 78.9249 106.804 78.9391 106.795C79.0693 106.727 79.1732 106.618 79.2342 106.485C79.2952 106.351 79.3098 106.201 79.2757 106.059C79.2477 105.924 79.1786 105.801 79.0778 105.706C78.977 105.612 78.8496 105.552 78.7129 105.533C78.696 105.532 78.6795 105.527 78.6646 105.519C78.6496 105.511 78.6365 105.5 78.6261 105.486C78.6157 105.473 78.6082 105.458 78.6041 105.441C78.6 105.425 78.5995 105.407 78.6025 105.391C78.6038 105.374 78.6084 105.358 78.6161 105.344C78.6237 105.329 78.6343 105.316 78.6471 105.306C78.6599 105.296 78.6747 105.288 78.6905 105.284C78.7064 105.279 78.7229 105.278 78.7392 105.28C78.93 105.307 79.1078 105.392 79.2482 105.524C79.3885 105.656 79.4845 105.828 79.523 106.017C79.5678 106.211 79.5478 106.414 79.4661 106.595C79.3844 106.777 79.2455 106.926 79.0706 107.021C79.0502 107.028 79.0287 107.03 79.0075 107.027Z" fill="#263238"/>
<path d="M77.0719 104.928C77.0719 104.928 73.7635 101.588 70.3657 107.126C70.3657 107.126 66.242 111.208 68.9034 116.305C71.5649 121.402 77.8451 121.801 83.2575 117.851C83.2575 117.851 78.4395 118.188 77.1613 116.357C75.8832 114.527 74.7839 112.549 73.2586 113.28C73.2586 113.28 73.9476 111.955 75.2783 112.002L74.8838 109.499C74.1974 109.527 73.5256 109.706 72.9167 110.025C73.4339 109.352 74.1356 108.844 74.9364 108.562L75.5676 106.501C75.5676 106.501 73.6057 106.59 72.843 107.111C72.843 107.121 74.9312 104.959 77.0719 104.928Z" fill="#263238"/>
<path d="M78.5604 107.637C78.5604 107.637 79.6808 107.111 80.6643 106.506C80.7393 106.459 80.8238 106.43 80.9116 106.42C80.9994 106.41 81.0883 106.421 81.1716 106.45C81.2549 106.479 81.3306 106.527 81.393 106.589C81.4555 106.652 81.503 106.728 81.5322 106.811C81.6586 107.222 81.7397 107.645 81.7742 108.073L78.5604 107.637Z" fill="#FF5652"/>
<path d="M78.9601 120.187C79.3821 120.066 79.7734 119.857 80.1081 119.573C80.4428 119.289 80.7131 118.937 80.901 118.54C81.3428 117.52 80.254 116.836 79.0338 116.962C77.9345 117.083 76.4039 117.762 76.467 118.856C76.5301 119.95 77.8556 120.518 78.9601 120.176" fill="#FF8B7B"/>
<path d="M77.4295 110.971C77.4241 110.94 77.4124 110.911 77.3952 110.885C77.378 110.859 77.3557 110.836 77.3296 110.819C77.086 110.664 76.8817 110.455 76.7329 110.207C76.5841 109.96 76.4949 109.681 76.4722 109.393C76.4729 109.363 76.4676 109.333 76.4566 109.305C76.4455 109.277 76.429 109.252 76.4079 109.23C76.3868 109.209 76.3617 109.191 76.3339 109.18C76.3061 109.168 76.2762 109.162 76.2461 109.162C76.1856 109.162 76.1275 109.186 76.0843 109.228C76.041 109.27 76.016 109.328 76.0146 109.388C76.0322 109.753 76.1368 110.108 76.3199 110.423C76.5029 110.739 76.759 111.006 77.0666 111.203C77.1178 111.235 77.1794 111.246 77.2383 111.233C77.2972 111.22 77.3489 111.185 77.3822 111.134C77.3994 111.111 77.4116 111.085 77.418 111.057C77.4243 111.029 77.4247 111 77.419 110.971" fill="#263238"/>
<path d="M77.3559 104.386C77.359 104.357 77.356 104.327 77.3469 104.299C77.3378 104.271 77.323 104.245 77.3033 104.223C77.2844 104.2 77.2611 104.18 77.2347 104.166C77.2083 104.152 77.1793 104.143 77.1494 104.14C77.1196 104.137 77.0894 104.14 77.0608 104.149C77.0321 104.158 77.0054 104.172 76.9824 104.191C76.6943 104.415 76.4634 104.703 76.3089 105.034C76.1543 105.364 76.0805 105.726 76.0935 106.09C76.1001 106.151 76.1304 106.206 76.1776 106.245C76.2249 106.283 76.2854 106.301 76.346 106.295C76.3757 106.293 76.4047 106.284 76.4311 106.27C76.4575 106.256 76.481 106.237 76.5001 106.214C76.5191 106.192 76.5335 106.165 76.5422 106.136C76.551 106.108 76.554 106.078 76.5511 106.048C76.5456 105.759 76.6079 105.473 76.733 105.213C76.8582 104.953 77.0427 104.725 77.2717 104.549C77.2963 104.529 77.3166 104.505 77.3311 104.476C77.3456 104.448 77.354 104.418 77.3559 104.386Z" fill="#263238"/>
<path d="M179.086 106.416C176.172 103.592 168.477 105.065 159.472 104.838C150.467 104.612 142.183 107.921 133.752 108.415C125.32 108.909 112.002 107.226 112.002 107.226C110.608 104.596 106.669 104.986 103.25 106.148C101.478 106.746 99.7423 107.448 98.0532 108.252V123.448C119.182 123.684 176.871 124.615 178.465 123.658C180.369 122.559 182.005 109.241 179.086 106.416Z" fill="#4A3589"/>
<g opacity="0.6">
<path d="M178.465 123.7C177.529 124.263 157.384 124.173 136.592 123.958C129.696 123.889 122.722 123.8 116.363 123.721C109.146 123.632 102.687 123.542 98.0532 123.49V108.278C99.7421 107.47 101.479 106.768 103.255 106.174C106.664 105.012 110.619 104.649 111.997 107.226C111.997 107.226 125.315 108.909 133.752 108.42C142.188 107.931 150.472 104.628 159.472 104.838C168.471 105.049 176.172 103.576 179.086 106.416C182 109.257 180.369 122.559 178.465 123.7Z" fill="white"/>
</g>
<path d="M92.3832 114.064C92.3832 114.064 109.946 119.156 113.522 116.399C117.099 113.643 122.017 109.241 122.78 108.231C123.542 107.221 124.973 106.448 127.387 106.863C129.801 107.279 131.069 108.136 131.111 108.415C131.153 108.694 128.655 108.857 127.003 108.752C125.352 108.646 122.795 118.025 119.755 120.265C113.622 124.741 106.9 124.173 95.0867 123.421L92.3832 114.064Z" fill="#FF8B7B"/>
<g opacity="0.2">
<path d="M69.7923 133.036H67.4254V197.432H69.7923V133.036Z" fill="white"/>
</g>
<g opacity="0.2">
<path d="M149.073 133.036H146.706V197.432H149.073V133.036Z" fill="white"/>
</g>
<g opacity="0.2">
<path d="M227.723 133.036H225.356V197.432H227.723V133.036Z" fill="white"/>
</g>
</svg>
