<svg width="416" height="322" viewBox="0 0 416 322" fill="none" xmlns="http://www.w3.org/2000/svg">
<g opacity="0.5">
<path d="M415.318 284.488H0V284.696H415.318V284.488Z" fill="#EBEBEB"/>
<path d="M71.086 292.396H43.5753V292.604H71.086V292.396Z" fill="#EBEBEB"/>
<path d="M180.987 290.145H142.155V290.353H180.987V290.145Z" fill="#EBEBEB"/>
<path d="M109.635 298.817H93.6954V299.025H109.635V298.817Z" fill="#EBEBEB"/>
<path d="M284.526 295.212H259.432V295.42H284.526V295.212Z" fill="#EBEBEB"/>
<path d="M307.967 295.212H291.919V295.42H307.967V295.212Z" fill="#EBEBEB"/>
<path d="M373.712 298.717H325.07V298.925H373.712V298.717Z" fill="#EBEBEB"/>
<path d="M196.861 247.442H36.4734C35.2169 247.44 34.0127 246.939 33.125 246.05C32.2373 245.161 31.7388 243.956 31.7388 242.699V17.2395C31.7497 15.9903 32.2531 14.7958 33.1396 13.9155C34.0261 13.0352 35.2241 12.5403 36.4734 12.5381H196.861C198.119 12.5381 199.325 13.0378 200.215 13.9273C201.104 14.8168 201.604 16.0232 201.604 17.2811V242.699C201.604 243.957 201.104 245.163 200.215 246.053C199.325 246.942 198.119 247.442 196.861 247.442ZM36.4734 12.7043C35.272 12.7065 34.1206 13.1853 33.2718 14.0355C32.4231 14.8858 31.9464 16.0381 31.9464 17.2395V242.699C31.9464 243.901 32.4231 245.053 33.2718 245.903C34.1206 246.753 35.272 247.232 36.4734 247.234H196.861C198.063 247.232 199.215 246.754 200.065 245.904C200.916 245.054 201.394 243.901 201.396 242.699V17.2395C201.394 16.0374 200.916 14.8851 200.065 14.035C199.215 13.185 198.063 12.7065 196.861 12.7043H36.4734Z" fill="#EBEBEB"/>
<path d="M376.536 247.442H216.14C214.883 247.44 213.677 246.939 212.788 246.051C211.899 245.162 211.399 243.956 211.397 242.699V17.2395C211.41 15.9895 211.915 14.795 212.803 13.915C213.691 13.0349 214.89 12.5402 216.14 12.5381H376.536C377.784 12.5425 378.979 13.0384 379.864 13.9184C380.749 14.7985 381.251 15.9917 381.262 17.2395V242.699C381.262 243.954 380.765 245.158 379.879 246.047C378.993 246.936 377.791 247.438 376.536 247.442ZM216.14 12.7043C214.938 12.7065 213.785 13.185 212.935 14.035C212.085 14.8851 211.607 16.0374 211.605 17.2395V242.699C211.607 243.901 212.085 245.054 212.935 245.904C213.785 246.754 214.938 247.232 216.14 247.234H376.536C377.738 247.232 378.89 246.754 379.74 245.904C380.59 245.054 381.069 243.901 381.071 242.699V17.2395C381.069 16.0374 380.59 14.8851 379.74 14.035C378.89 13.185 377.738 12.7065 376.536 12.7043H216.14Z" fill="#EBEBEB"/>
<path d="M243.252 44.1771H57.0231V160.715H243.252V44.1771Z" fill="#F0F0F0"/>
<path d="M239.613 155.241V49.6593L60.6693 49.6593V155.241H239.613Z" fill="#FAFAFA"/>
<path d="M84.2181 155.233L102.575 49.6509H116.115L97.7575 155.233H84.2181Z" fill="white"/>
<path d="M100.881 155.233L119.238 49.6509H125.293L106.936 155.233H100.881Z" fill="white"/>
<path d="M130.501 155.233L148.858 49.6509H162.389L144.032 155.233H130.501Z" fill="white"/>
<path d="M164.624 155.233L182.981 49.6509H189.036L170.679 155.233H164.624Z" fill="white"/>
<path d="M108.606 155.233V49.6509H107.684V155.233H108.606Z" fill="#E0E0E0"/>
<path d="M61.5913 155.233L61.5913 49.6509H60.6693L60.6693 155.233H61.5913Z" fill="#E0E0E0"/>
<path d="M107.683 155.233V49.6509H104.037V155.233H107.683Z" fill="#F0F0F0"/>
<path d="M153.784 155.241V49.6593H152.862V155.241H153.784Z" fill="#E0E0E0"/>
<path d="M152.854 155.241V49.6593H149.207V155.241H152.854Z" fill="#F0F0F0"/>
<path d="M198.979 155.233V49.6509H198.057V155.233H198.979Z" fill="#E0E0E0"/>
<path d="M198.057 155.233V49.6509H194.41V155.233H198.057Z" fill="#F0F0F0"/>
<path d="M244.174 160.715V44.1771H243.252V160.715H244.174Z" fill="#E0E0E0"/>
<path d="M262.174 36.1697H48.7504C48.4309 36.1676 48.1249 36.0403 47.8982 35.8151C47.6715 35.5899 47.5421 35.2848 47.5377 34.9653C47.5377 34.6429 47.6652 34.3336 47.8924 34.1048C48.1196 33.8761 48.4281 33.7465 48.7504 33.7443H262.174C262.335 33.7443 262.493 33.7759 262.641 33.8372C262.79 33.8986 262.924 33.9885 263.038 34.1019C263.151 34.2153 263.241 34.3499 263.302 34.498C263.364 34.6462 263.395 34.805 263.395 34.9653C263.391 35.2863 263.26 35.5926 263.032 35.818C262.803 36.0434 262.495 36.1698 262.174 36.1697Z" fill="#E0E0E0"/>
<g opacity="0.8">
<path d="M132.719 31.3936H51.74V188.741H132.719V31.3936Z" fill="#F5F5F5"/>
<path d="M83.4707 190.477H76.6844L78.5949 33.1296H81.6267L83.4707 190.477Z" fill="#E6E6E6"/>
<path d="M68.5033 190.477H65.2223L66.1443 33.1296H67.6062L68.5033 190.477Z" fill="#E6E6E6"/>
<path d="M103.157 190.477H99.8763L100.798 33.1296H102.26L103.157 190.477Z" fill="#E6E6E6"/>
<path d="M119.828 190.477H116.555L117.469 33.1296H118.939L119.828 190.477Z" fill="#E6E6E6"/>
</g>
<g opacity="0.8">
<path d="M257.995 31.3853H217.51V188.733H257.995V31.3853Z" fill="#F5F5F5"/>
<path d="M233.376 190.469H229.987L230.934 33.1296H232.454L233.376 190.469Z" fill="#E6E6E6"/>
<path d="M225.891 190.469H224.255L224.712 33.1296H225.443L225.891 190.469Z" fill="#E6E6E6"/>
<path d="M243.219 190.469H241.582L242.039 33.1296H242.77L243.219 190.469Z" fill="#E6E6E6"/>
<path d="M251.549 190.469H249.913L250.378 33.1296H251.109L251.549 190.469Z" fill="#E6E6E6"/>
</g>
<path d="M215.376 283.068H223.167V203.643H215.376V283.068Z" fill="#F0F0F0"/>
<path d="M53.3519 203.651L225.061 203.651V198.9L53.3519 198.9V203.651Z" fill="#F0F0F0"/>
<path d="M58.4272 284.488H219.994V283.068H58.4272V284.488Z" fill="#F0F0F0"/>
<path d="M215.376 203.643H55.2538V283.068H215.376V203.643Z" fill="#FAFAFA"/>
<path d="M208.889 212.489H61.7583V236.86H208.889V212.489Z" fill="#F0F0F0"/>
<path d="M208.889 248.339H61.7583V272.71H208.889V248.339Z" fill="#F0F0F0"/>
<path d="M84.2763 214.848H186.362C187.196 214.848 187.873 214.171 187.873 213.336V212.572C187.873 211.737 187.196 211.06 186.362 211.06H84.2763C83.4414 211.06 82.7646 211.737 82.7646 212.572V213.336C82.7646 214.171 83.4414 214.848 84.2763 214.848Z" fill="#FAFAFA"/>
<path d="M84.2763 250.682H186.362C187.196 250.682 187.873 250.005 187.873 249.17V248.406C187.873 247.571 187.196 246.894 186.362 246.894H84.2763C83.4414 246.894 82.7646 247.571 82.7646 248.406V249.17C82.7646 250.005 83.4414 250.682 84.2763 250.682Z" fill="#FAFAFA"/>
<path d="M345.209 280.791C350.137 275.863 350.137 267.875 345.209 262.947C340.282 258.02 332.293 258.02 327.366 262.947C322.438 267.875 322.438 275.863 327.366 280.791C332.293 285.718 340.282 285.718 345.209 280.791Z" fill="#EBEBEB"/>
<path d="M355.662 284.48C364.355 284.48 371.403 277.433 371.403 268.74C371.403 260.046 364.355 252.999 355.662 252.999C346.969 252.999 339.922 260.046 339.922 268.74C339.922 277.433 346.969 284.48 355.662 284.48Z" fill="#F5F5F5"/>
<path d="M276.519 151.097H365.222V40.3894L276.519 40.3894V151.097Z" fill="#E6E6E6"/>
<path d="M272.623 151.097H363.893V40.3894L272.623 40.3894V151.097Z" fill="#F5F5F5"/>
<path d="M361.11 148.007V43.4793L275.397 43.4793V148.007H361.11Z" fill="#FAFAFA"/>
<path d="M318.258 114.291C334.434 114.291 347.546 101.178 347.546 85.0028C347.546 68.8274 334.434 55.7146 318.258 55.7146C302.083 55.7146 288.97 68.8274 288.97 85.0028C288.97 101.178 302.083 114.291 318.258 114.291Z" fill="white"/>
<path d="M276.203 148.007V43.4793H275.406V148.007H276.203Z" fill="#E6E6E6"/>
<path d="M309.454 86.5562C309.379 87.2041 309.321 88.4832 307.178 90.1777C305.674 91.3655 301.521 91.6978 299.86 90.618C299.833 90.4957 299.788 90.3782 299.727 90.2691C299.777 90.1305 299.802 89.9844 299.802 89.8372C299.802 89.6528 299.761 89.4707 299.682 89.304C299.603 89.1374 299.488 88.9904 299.345 88.8736C299.398 88.727 299.426 88.5726 299.428 88.4168C299.429 88.1019 299.308 87.7989 299.092 87.5702C298.875 87.3414 298.58 87.2045 298.265 87.1874C298.269 87.1127 298.269 87.0379 298.265 86.9632C298.266 86.8003 298.235 86.6389 298.173 86.4882C298.111 86.3376 298.02 86.2007 297.905 86.0855C297.79 85.9704 297.653 85.8793 297.502 85.8175C297.352 85.7557 297.19 85.7244 297.028 85.7255C296.886 85.7254 296.745 85.7508 296.612 85.8003C296.522 85.5677 296.363 85.3678 296.157 85.227C295.951 85.0862 295.707 85.011 295.458 85.0112C295.246 85.0135 295.038 85.0697 294.853 85.1742C294.669 85.2788 294.514 85.4285 294.403 85.6092C294.288 85.4663 294.143 85.351 293.977 85.2719C293.812 85.1928 293.631 85.1519 293.448 85.1524C293.119 85.1524 292.804 85.2828 292.572 85.5149C292.34 85.747 292.21 86.0618 292.21 86.39C292.209 86.5054 292.226 86.6202 292.26 86.7306C291.999 86.8148 291.773 86.9834 291.618 87.2098C291.463 87.4361 291.388 87.7076 291.404 87.9814C291.42 88.2552 291.527 88.5158 291.707 88.7225C291.888 88.9291 292.132 89.0699 292.401 89.1228C292.351 89.2526 292.325 89.3907 292.326 89.5298C292.326 89.8581 292.457 90.1729 292.689 90.405C292.921 90.6371 293.236 90.7675 293.564 90.7675C293.819 90.7672 294.068 90.689 294.278 90.5432C294.241 90.6559 294.222 90.7735 294.22 90.8921C294.22 91.2203 294.35 91.5351 294.583 91.7672C294.815 91.9993 295.129 92.1297 295.458 92.1297C295.763 92.1348 296.06 92.0252 296.288 91.8224C296.388 92.0402 296.549 92.2249 296.75 92.3544C296.952 92.4839 297.187 92.553 297.426 92.5533C297.61 92.5538 297.791 92.5129 297.956 92.4339C298.121 92.3548 298.267 92.2395 298.381 92.0965C298.475 92.1092 298.57 92.1092 298.664 92.0965H298.755L299.038 92.2543C299.453 92.4765 299.893 92.6467 300.35 92.761C301.578 93.0625 302.859 93.0824 304.096 92.8191C305.345 92.5623 306.487 91.9374 307.377 91.025C308.112 90.2097 308.976 89.522 309.936 88.9899C310.182 88.8803 310.442 88.8021 310.708 88.7573C310.733 87.9765 310.359 86.822 309.454 86.5562Z" fill="#FAFAFA"/>
<path d="M345.063 87.9018C345.064 87.6433 344.985 87.3909 344.836 87.1796C344.687 86.9682 344.476 86.8084 344.233 86.7222C344.266 86.6118 344.283 86.497 344.282 86.3817C343.125 86.1159 342.023 85.6493 341.026 85.0028C340.778 85.0031 340.535 85.0787 340.331 85.2196C340.126 85.3604 339.969 85.56 339.88 85.7919C339.744 85.7416 339.601 85.7163 339.456 85.7172C339.128 85.7172 338.813 85.8476 338.581 86.0797C338.349 86.3118 338.219 86.6266 338.219 86.9548C338.211 87.0294 338.211 87.1046 338.219 87.1791C337.904 87.1961 337.608 87.3331 337.392 87.5618C337.176 87.7906 337.055 88.0936 337.056 88.4084C337.054 88.5647 337.082 88.7198 337.139 88.8653C336.994 88.9805 336.877 89.127 336.796 89.2938C336.715 89.4607 336.674 89.6436 336.674 89.8288C336.74 89.9508 336.77 90.0893 336.76 90.2278C336.749 90.3663 336.699 90.4988 336.616 90.6096C334.954 91.6978 330.843 91.3655 329.331 90.1777C327.18 88.5164 327.13 87.204 327.055 86.5561C326.15 86.8219 325.776 87.9765 325.767 88.7739C326.036 88.8185 326.299 88.8967 326.548 89.0065C327.505 89.5387 328.367 90.2264 329.098 91.0416C330 91.9599 331.158 92.5852 332.421 92.8357C333.658 93.099 334.939 93.0791 336.167 92.7776C336.624 92.6633 337.064 92.4931 337.479 92.2709L337.754 92.1131H337.853C337.944 92.1263 338.036 92.1263 338.127 92.1131C338.575 91.8739 339.074 91.7487 339.581 91.7487C340.088 91.7487 340.587 91.8739 341.035 92.1131C341.363 92.1131 341.678 91.9827 341.91 91.7506C342.142 91.5185 342.272 91.2037 342.272 90.8754C342.273 90.7573 342.256 90.6397 342.222 90.5266C342.408 90.6554 342.625 90.731 342.85 90.7452C343.075 90.7595 343.3 90.7119 343.501 90.6075C343.701 90.5031 343.869 90.346 343.986 90.1531C344.103 89.9602 344.165 89.7389 344.166 89.5132C344.166 89.3749 344.143 89.2375 344.1 89.1062C344.373 89.0441 344.617 88.8912 344.792 88.6724C344.967 88.4536 345.063 88.1819 345.063 87.9018Z" fill="#FAFAFA"/>
<path d="M342.264 135.207H294.245C293.503 135.204 292.792 134.909 292.268 134.384C291.743 133.86 291.448 133.149 291.445 132.407C291.448 131.666 291.743 130.955 292.268 130.43C292.792 129.906 293.503 129.61 294.245 129.608H342.264C343.005 129.61 343.716 129.906 344.241 130.43C344.765 130.955 345.061 131.666 345.063 132.407C345.061 133.149 344.765 133.86 344.241 134.384C343.716 134.909 343.005 135.204 342.264 135.207Z" fill="white"/>
<path d="M207.659 322C296.606 322 368.711 317.79 368.711 312.597C368.711 307.404 296.606 303.194 207.659 303.194C118.713 303.194 46.6072 307.404 46.6072 312.597C46.6072 317.79 118.713 322 207.659 322Z" fill="#F5F5F5"/>
<path d="M162.705 195.76H159.35V300.096H162.705V195.76Z" fill="#4A3589"/>
<path opacity="0.8" d="M162.705 195.76H159.35V300.096H162.705V195.76Z" fill="white"/>
<path d="M155.994 300.104H159.35V195.768H155.994V300.104Z" fill="#4A3589"/>
<path opacity="0.7" d="M155.994 300.104H159.35V195.768H155.994V300.104Z" fill="white"/>
<path d="M159.349 306.06C160.794 306.06 161.966 304.889 161.966 303.444C161.966 301.999 160.794 300.827 159.349 300.827C157.904 300.827 156.733 301.999 156.733 303.444C156.733 304.889 157.904 306.06 159.349 306.06Z" fill="#263238"/>
<path d="M162.282 300.104H156.417V301.234H162.282V300.104Z" fill="#263238"/>
<path d="M224.836 195.76V187.877H160.437V195.76H224.836Z" fill="#4A3589"/>
<path opacity="0.8" d="M224.836 195.76V187.877H160.437V195.76H224.836Z" fill="white"/>
<path d="M160.437 195.76V187.877H140.876V195.76H160.437Z" fill="#4A3589"/>
<path opacity="0.7" d="M160.437 195.76V187.877H140.876V195.76H160.437Z" fill="white"/>
<path d="M149.224 195.76H145.868V300.096H149.224V195.76Z" fill="#4A3589"/>
<path opacity="0.8" d="M149.224 195.76H145.868V300.096H149.224V195.76Z" fill="white"/>
<path d="M142.504 300.104H145.859V195.768H142.504V300.104Z" fill="#4A3589"/>
<path opacity="0.7" d="M142.504 300.104H145.859V195.768H142.504V300.104Z" fill="white"/>
<path d="M145.868 306.06C147.313 306.06 148.485 304.889 148.485 303.444C148.485 301.999 147.313 300.827 145.868 300.827C144.423 300.827 143.252 301.999 143.252 303.444C143.252 304.889 144.423 306.06 145.868 306.06Z" fill="#263238"/>
<path d="M148.8 300.104H142.936V301.234H148.8V300.104Z" fill="#263238"/>
<path d="M222.96 195.76H219.604V300.096H222.96V195.76Z" fill="#4A3589"/>
<path opacity="0.8" d="M222.96 195.76H219.604V300.096H222.96V195.76Z" fill="white"/>
<path d="M216.248 300.104H219.604V195.768H216.248V300.104Z" fill="#4A3589"/>
<path opacity="0.7" d="M216.248 300.104H219.604V195.768H216.248V300.104Z" fill="white"/>
<path d="M222.22 303.444C222.22 303.961 222.066 304.467 221.779 304.897C221.491 305.328 221.083 305.663 220.604 305.861C220.126 306.059 219.6 306.111 219.093 306.01C218.585 305.909 218.119 305.66 217.753 305.294C217.387 304.928 217.138 304.462 217.037 303.954C216.936 303.447 216.988 302.92 217.186 302.442C217.384 301.964 217.719 301.556 218.15 301.268C218.58 300.981 219.086 300.827 219.603 300.827C220.296 300.829 220.961 301.106 221.451 301.596C221.941 302.086 222.218 302.75 222.22 303.444Z" fill="#263238"/>
<path d="M222.536 300.104H216.672V301.234H222.536V300.104Z" fill="#263238"/>
<path d="M209.478 195.76H206.123V300.096H209.478V195.76Z" fill="#4A3589"/>
<path opacity="0.8" d="M209.478 195.76H206.123V300.096H209.478V195.76Z" fill="white"/>
<path d="M202.767 300.104H206.123V195.768H202.767V300.104Z" fill="#4A3589"/>
<path opacity="0.7" d="M202.767 300.104H206.123V195.768H202.767V300.104Z" fill="white"/>
<path d="M208.739 303.444C208.741 303.963 208.588 304.472 208.3 304.905C208.012 305.338 207.602 305.676 207.122 305.875C206.642 306.075 206.114 306.128 205.604 306.027C205.094 305.926 204.626 305.676 204.258 305.308C203.89 304.94 203.64 304.472 203.539 303.962C203.438 303.452 203.491 302.924 203.691 302.444C203.89 301.964 204.228 301.554 204.661 301.266C205.094 300.978 205.603 300.825 206.122 300.827C206.816 300.829 207.48 301.106 207.97 301.596C208.46 302.086 208.737 302.75 208.739 303.444Z" fill="#263238"/>
<path d="M209.054 300.104H203.19V301.234H209.054V300.104Z" fill="#263238"/>
<path d="M158.169 245.856V241.138H143.251V245.856H158.169Z" fill="#4A3589"/>
<path opacity="0.7" d="M158.169 245.856V241.138H143.251V245.856H158.169Z" fill="white"/>
<path d="M221.938 245.839V241.121H161.027V245.839H221.938Z" fill="#4A3589"/>
<path opacity="0.8" d="M221.938 245.839V241.121H161.027V245.839H221.938Z" fill="white"/>
<path d="M184.526 227.714H177.79C176.978 227.714 176.319 228.373 176.319 229.185V239.659C176.319 240.471 176.978 241.129 177.79 241.129H184.526C185.338 241.129 185.996 240.471 185.996 239.659V229.185C185.996 228.373 185.338 227.714 184.526 227.714Z" fill="#4A3589"/>
<path opacity="0.3" d="M184.526 227.714H177.79C176.978 227.714 176.319 228.373 176.319 229.185V239.659C176.319 240.471 176.978 241.129 177.79 241.129H184.526C185.338 241.129 185.996 240.471 185.996 239.659V229.185C185.996 228.373 185.338 227.714 184.526 227.714Z" fill="white"/>
<path d="M185.996 231.552H182.656V238.288H185.996V231.552Z" fill="white"/>
<path d="M181.727 231.552H178.388V238.288H181.727V231.552Z" fill="white"/>
<path d="M184.243 225.895H178.063C177.82 225.895 177.623 226.093 177.623 226.336V227.266C177.623 227.509 177.82 227.706 178.063 227.706H184.243C184.486 227.706 184.683 227.509 184.683 227.266V226.336C184.683 226.093 184.486 225.895 184.243 225.895Z" fill="#4A3589"/>
<path d="M175.588 226.56H168.27C167.389 226.56 166.675 227.274 166.675 228.155V239.534C166.675 240.415 167.389 241.129 168.27 241.129H175.588C176.469 241.129 177.183 240.415 177.183 239.534V228.155C177.183 227.274 176.469 226.56 175.588 226.56Z" fill="#4A3589"/>
<path opacity="0.5" d="M175.588 226.56H168.27C167.389 226.56 166.675 227.274 166.675 228.155V239.534C166.675 240.415 167.389 241.129 168.27 241.129H175.588C176.469 241.129 177.183 240.415 177.183 239.534V228.155C177.183 227.274 176.469 226.56 175.588 226.56Z" fill="white"/>
<path d="M176.078 230.73H170.106V238.048H176.078V230.73Z" fill="white"/>
<path d="M175.29 224.583H168.578C168.312 224.583 168.097 224.799 168.097 225.065V226.07C168.097 226.336 168.312 226.552 168.578 226.552H175.29C175.556 226.552 175.772 226.336 175.772 226.07V225.065C175.772 224.799 175.556 224.583 175.29 224.583Z" fill="#4A3589"/>
<path d="M172.59 174.089H150.162V187.877H172.59V174.089Z" fill="#4A3589"/>
<path opacity="0.2" d="M157.672 187.877H172.59V174.089H157.672V187.877Z" fill="white"/>
<path opacity="0.5" d="M150.163 179.778H172.59V174.08H150.163V179.778Z" fill="white"/>
<path opacity="0.5" d="M150.163 182.179H172.59V180.983H150.163V182.179Z" fill="white"/>
<path d="M171.394 183.442H158.868V186.615H171.394V183.442Z" fill="white"/>
<path d="M201.454 182.495C201.327 182.387 201.247 182.233 201.232 182.067C201.216 181.901 201.266 181.736 201.371 181.606L208.016 173.648C208.124 173.519 208.279 173.438 208.447 173.422C208.615 173.407 208.783 173.458 208.913 173.565C209.04 173.673 209.12 173.827 209.135 173.993C209.151 174.159 209.101 174.324 208.996 174.454L202.351 182.412C202.243 182.541 202.088 182.622 201.92 182.638C201.751 182.653 201.584 182.602 201.454 182.495Z" fill="#4A3589"/>
<path d="M203.614 182.545C203.485 182.436 203.403 182.281 203.388 182.113C203.372 181.945 203.424 181.778 203.531 181.647L210.176 173.698C210.228 173.633 210.293 173.58 210.366 173.54C210.44 173.501 210.52 173.477 210.603 173.469C210.686 173.461 210.769 173.47 210.849 173.495C210.928 173.52 211.002 173.561 211.065 173.615C211.13 173.667 211.183 173.732 211.223 173.805C211.262 173.879 211.286 173.959 211.294 174.042C211.302 174.125 211.293 174.208 211.268 174.288C211.243 174.367 211.202 174.441 211.148 174.504L204.503 182.461C204.395 182.588 204.241 182.668 204.075 182.684C203.909 182.699 203.744 182.649 203.614 182.545Z" fill="#4A3589"/>
<path d="M205.434 183.001C205.369 182.948 205.315 182.883 205.275 182.809C205.236 182.735 205.212 182.654 205.204 182.57C205.196 182.487 205.205 182.402 205.23 182.322C205.255 182.242 205.296 182.168 205.351 182.104L211.996 174.155C212.048 174.09 212.113 174.037 212.186 173.997C212.259 173.958 212.34 173.934 212.422 173.926C212.505 173.918 212.589 173.927 212.668 173.952C212.748 173.977 212.821 174.018 212.884 174.072C213.013 174.179 213.094 174.333 213.11 174.499C213.126 174.666 213.074 174.832 212.967 174.961L206.322 182.918C206.216 183.047 206.062 183.128 205.895 183.144C205.729 183.159 205.562 183.108 205.434 183.001Z" fill="#4A3589"/>
<path d="M197.251 181.099C194.178 181.099 190.706 180.21 187.641 179.438C185.423 178.865 182.076 178.009 181.602 178.499C181.602 178.499 181.511 178.724 181.826 179.479C181.878 179.581 181.908 179.693 181.915 179.807C181.922 179.921 181.905 180.035 181.865 180.142C181.826 180.249 181.765 180.347 181.686 180.43C181.607 180.512 181.512 180.578 181.406 180.622C181.301 180.666 181.188 180.688 181.074 180.686C180.959 180.684 180.847 180.659 180.743 180.612C180.639 180.565 180.546 180.497 180.469 180.412C180.393 180.327 180.334 180.227 180.298 180.119C180.115 179.679 179.551 178.341 180.348 177.411C181.453 176.132 184.078 176.805 188.056 177.826C191.022 178.591 194.386 179.488 197.251 179.488C200.117 179.488 203.473 178.657 206.447 177.826C210.425 176.805 213.092 176.165 214.155 177.411C214.985 178.341 214.387 179.679 214.196 180.119C214.114 180.325 213.953 180.49 213.749 180.577C213.545 180.664 213.314 180.667 213.108 180.584C212.902 180.502 212.738 180.341 212.65 180.136C212.563 179.932 212.56 179.702 212.643 179.496C212.967 178.74 212.867 178.508 212.867 178.508C212.394 178.026 209.046 178.881 206.837 179.455C203.797 180.21 200.316 181.099 197.251 181.099Z" fill="#4A3589"/>
<path opacity="0.5" d="M197.251 181.099C194.178 181.099 190.706 180.21 187.641 179.438C185.423 178.865 182.076 178.009 181.602 178.499C181.602 178.499 181.511 178.724 181.826 179.479C181.878 179.581 181.908 179.693 181.915 179.807C181.922 179.921 181.905 180.035 181.865 180.142C181.826 180.249 181.765 180.347 181.686 180.43C181.607 180.512 181.512 180.578 181.406 180.622C181.301 180.666 181.188 180.688 181.074 180.686C180.959 180.684 180.847 180.659 180.743 180.612C180.639 180.565 180.546 180.497 180.469 180.412C180.393 180.327 180.334 180.227 180.298 180.119C180.115 179.679 179.551 178.341 180.348 177.411C181.453 176.132 184.078 176.805 188.056 177.826C191.022 178.591 194.386 179.488 197.251 179.488C200.117 179.488 203.473 178.657 206.447 177.826C210.425 176.805 213.092 176.165 214.155 177.411C214.985 178.341 214.387 179.679 214.196 180.119C214.114 180.325 213.953 180.49 213.749 180.577C213.545 180.664 213.314 180.667 213.108 180.584C212.902 180.502 212.738 180.341 212.65 180.136C212.563 179.932 212.56 179.702 212.643 179.496C212.967 178.74 212.867 178.508 212.867 178.508C212.394 178.026 209.046 178.881 206.837 179.455C203.797 180.21 200.316 181.099 197.251 181.099Z" fill="white"/>
<path d="M197.252 180.269C189.652 180.269 178.812 174.454 181.063 179.787C183.314 185.119 189.51 187.877 197.252 187.877C204.993 187.877 211.182 185.136 213.433 179.787C215.684 174.437 204.852 180.269 197.252 180.269Z" fill="#4A3589"/>
<path d="M152.629 116.118C152.696 116.486 152.89 116.819 153.177 117.057L155.669 119.167C155.906 119.365 156.193 119.493 156.498 119.537C156.803 119.581 157.114 119.539 157.397 119.416L159.889 118.295C162.325 117.207 164.496 115.603 166.252 113.593L166.841 112.929C167.078 112.657 167.259 112.341 167.372 111.998C167.485 111.656 167.529 111.294 167.502 110.935C167.474 110.575 167.375 110.225 167.21 109.904C167.045 109.583 166.818 109.299 166.542 109.066L163.984 106.915C163.495 106.499 162.873 106.271 162.231 106.271C161.589 106.271 160.968 106.499 160.479 106.915L157.497 109.473C157.497 109.473 152.064 112.754 152.629 116.118Z" fill="#FFB573"/>
<path d="M151.019 117.431C151.108 116.156 151.388 114.902 151.849 113.71C153.959 113.319 159.242 117.688 159.94 119.524C159.491 120.537 156.95 122.564 156.95 122.564C155.33 120.803 152.281 118.685 151.019 117.431Z" fill="#E0E0E0"/>
<path d="M129.33 103.767C130.061 106.259 130.859 108.751 131.664 111.243C132.47 113.735 133.326 116.226 134.156 118.718C134.987 121.21 135.917 123.586 136.864 125.87C137.337 127.016 137.828 128.121 138.318 129.101C138.55 129.591 138.791 130.015 138.99 130.381L139.115 130.588L139.173 130.688C139.112 130.609 139.036 130.544 138.949 130.497L138.434 130.073C138.223 129.958 137.996 129.874 137.761 129.824C137.525 129.776 137.283 129.776 137.047 129.824C136.798 129.924 137.23 129.874 137.794 129.533C139.349 128.511 140.748 127.268 141.948 125.845C143.437 124.149 144.824 122.366 146.101 120.504C146.765 119.557 147.421 118.577 148.044 117.589L148.975 116.102L149.805 114.657L160.388 120.139C160.039 120.845 159.756 121.393 159.432 122.008L158.577 123.843C157.929 125.012 157.253 126.172 156.55 127.324C155.119 129.691 153.549 131.97 151.849 134.152C150.932 135.311 149.953 136.42 148.917 137.474C147.747 138.683 146.462 139.773 145.079 140.73C143.242 142.032 141.135 142.903 138.916 143.28C137.434 143.503 135.922 143.441 134.463 143.098C133.005 142.741 131.627 142.113 130.402 141.245H130.36C130.202 141.129 130.028 140.988 129.878 140.855C129.563 140.564 129.255 140.257 128.956 139.941C128.657 139.625 128.533 139.451 128.325 139.194L128.034 138.828L127.81 138.521L127.37 137.889C126.863 137.117 126.423 136.386 126.033 135.697C125.252 134.309 124.596 132.989 123.973 131.685C122.727 129.076 121.63 126.518 120.567 123.96C119.504 121.401 118.507 118.851 117.527 116.293C116.547 113.735 115.608 111.201 114.669 108.551L129.33 103.767Z" fill="#4A3589"/>
<path opacity="0.6" d="M129.33 103.767C130.061 106.259 130.859 108.751 131.664 111.243C132.47 113.735 133.326 116.226 134.156 118.718C134.987 121.21 135.917 123.586 136.864 125.87C137.337 127.016 137.828 128.121 138.318 129.101C138.55 129.591 138.791 130.015 138.99 130.381L139.115 130.588L139.173 130.688C139.112 130.609 139.036 130.544 138.949 130.497L138.434 130.073C138.223 129.958 137.996 129.874 137.761 129.824C137.525 129.776 137.283 129.776 137.047 129.824C136.798 129.924 137.23 129.874 137.794 129.533C139.349 128.511 140.748 127.268 141.948 125.845C143.437 124.149 144.824 122.366 146.101 120.504C146.765 119.557 147.421 118.577 148.044 117.589L148.975 116.102L149.805 114.657L160.388 120.139C160.039 120.845 159.756 121.393 159.432 122.008L158.577 123.843C157.929 125.012 157.253 126.172 156.55 127.324C155.119 129.691 153.549 131.97 151.849 134.152C150.932 135.311 149.953 136.42 148.917 137.474C147.747 138.683 146.462 139.773 145.079 140.73C143.242 142.032 141.135 142.903 138.916 143.28C137.434 143.503 135.922 143.441 134.463 143.098C133.005 142.741 131.627 142.113 130.402 141.245H130.36C130.202 141.129 130.028 140.988 129.878 140.855C129.563 140.564 129.255 140.257 128.956 139.941C128.657 139.625 128.533 139.451 128.325 139.194L128.034 138.828L127.81 138.521L127.37 137.889C126.863 137.117 126.423 136.386 126.033 135.697C125.252 134.309 124.596 132.989 123.973 131.685C122.727 129.076 121.63 126.518 120.567 123.96C119.504 121.401 118.507 118.851 117.527 116.293C116.547 113.735 115.608 111.201 114.669 108.551L129.33 103.767Z" fill="white"/>
<path d="M113.498 231.295C103.714 200.279 96.1548 162.534 96.1548 162.534L125.568 159.644C125.568 159.644 127.495 208.203 129.33 229.708C131.241 252.069 138.717 304 138.717 304L129.771 304.731C129.771 304.731 114.404 259.054 113.498 231.295Z" fill="#4A3589"/>
<path opacity="0.2" d="M107.625 187.877L103.53 195.17C105.624 203.684 108.074 213.045 110.749 222.207C110.375 207.829 108.871 191.216 107.625 187.877Z" fill="black"/>
<path d="M150.685 306.077C150.685 306.077 138.035 305.03 136.822 303.236L130.019 304.266L131.149 311.434L135.302 310.803L135.85 310.047L137.005 310.545C140.402 310.039 149.389 308.552 151.408 307.464C151.417 307.19 151.355 306.919 151.228 306.676C151.102 306.433 150.915 306.226 150.685 306.077Z" fill="#263238"/>
<path d="M84.8989 229.226C85.4305 197.338 83.3789 176.024 86.1117 160.283L112.991 159.876C112.991 159.876 106.396 210.47 103.106 231.535C99.8172 252.6 95.6307 304.631 95.6307 304.631H87.3244C87.3244 304.631 80.0978 253.888 84.8989 229.226Z" fill="#4A3589"/>
<path d="M103.83 309.075C103.83 309.075 95.8562 306.16 94.8013 304.208H87.9153L88.4386 311.468H94.0537L94.6601 310.795L95.7814 311.468C99.2119 311.468 102.36 311.335 104.47 310.562C104.495 310.281 104.45 309.997 104.338 309.738C104.226 309.478 104.052 309.251 103.83 309.075Z" fill="#263238"/>
<path d="M87.3171 96.6816C96.8196 95.5021 110.409 95.6101 119.513 97.18C121.787 97.5958 123.874 98.7148 125.479 100.379C127.084 102.044 128.126 104.17 128.459 106.458C130.377 120.214 128.724 144.252 127.503 168.449C106.737 175.567 84.7505 168.349 84.7505 168.349C83.9946 163.473 85.6974 147.475 86.8437 138.936C85.1243 130.123 81.4861 120.022 79.0772 108.311C78.7843 107 78.7698 105.642 79.0344 104.325C79.2991 103.008 79.8371 101.761 80.6136 100.665C81.3902 99.5695 82.3881 98.6486 83.5428 97.9624C84.6975 97.2762 85.9833 96.8399 87.3171 96.6816Z" fill="white"/>
<path d="M95.7976 78.5239L107.543 87.3951C106.147 91.1246 105.699 95.0037 111.812 96.4905C113.341 98.509 110.649 100.826 108.116 101.881C104.038 101.375 98.2812 100.021 95.7976 96.5985C96.5784 93.9405 96.8442 84.031 95.7976 78.5239Z" fill="#FFB573"/>
<path d="M110.699 99.6387C110.247 100.938 109.476 102.104 108.456 103.028C106.795 103.028 104.394 101.167 104.394 101.167C104.394 101.167 105.325 98.5505 106.637 98.0106C109.985 98.8329 110.699 99.6387 110.699 99.6387Z" fill="#263238"/>
<path d="M106.937 102.039C107.161 101.789 107.447 101.601 107.766 101.495C108.085 101.389 108.426 101.367 108.756 101.433C110.924 105.486 114.321 130.447 115.65 137.707C115.077 142.109 114.221 143.621 113.075 148.654C112.028 144.759 110.533 142.45 108.872 138.105C109.345 132.914 107.618 108.709 106.937 102.039Z" fill="#263238"/>
<path opacity="0.2" d="M107.55 87.3951L107.45 87.3203L100.888 82.3365C100.232 82.3365 98.9697 82.295 99.5096 86.8967C99.8418 89.8288 104.286 92.9936 107.21 93.5833C106.254 91.8224 106.72 89.6129 107.534 87.4449L107.55 87.3951Z" fill="black"/>
<path d="M115.459 67.7339C117.818 71.4053 116.165 77.062 114.354 78.8728C111.056 72.7759 111.845 66.0643 115.459 67.7339Z" fill="#263238"/>
<path d="M96.7444 71.5133C96.5617 78.3661 96.1048 82.378 99.2363 86.1491C103.971 91.8307 112.684 89.372 114.919 82.6854C116.929 76.6716 116.887 66.463 110.425 63.2236C108.996 62.5088 107.41 62.1677 105.813 62.2323C104.217 62.2969 102.663 62.7651 101.297 63.593C99.9307 64.4209 98.7965 65.5816 98.0003 66.9667C97.2042 68.3517 96.7721 69.916 96.7444 71.5133Z" fill="#FFB573"/>
<path d="M98.4387 76.9125C101.828 76.5968 102.799 70.7159 100.773 65.9979C105.034 64.9098 109.162 66.6956 112.011 67.7505C114.86 68.8054 119.088 68.9633 119.088 65.4331C117.626 66.2637 114.761 64.9513 114.462 63.4894C117.552 63.8881 117.867 59.0538 116.123 58.273C116.123 60.7649 107.875 59.2116 103.539 57.6666C95.3321 54.7345 90.5808 59.4691 93.0811 63.8133C86.6519 66.9697 90.5891 73.1164 95.6892 77.9341C96.5589 77.4789 97.4827 77.1356 98.4387 76.9125Z" fill="#263238"/>
<path d="M100.507 74.08C99.9842 78.7066 113.216 81.1321 115.459 80.941C116.157 84.953 118.906 87.5861 116.132 90.078C113.357 92.5699 103.489 93.2095 100.001 88.1427C96.5121 83.0758 99.2117 74.4372 99.2117 74.4372L100.507 74.08Z" fill="#263238"/>
<path d="M110.101 82.5691C110.455 82.5975 110.81 82.5975 111.164 82.5691C111.192 82.5652 111.219 82.5548 111.243 82.5386C111.266 82.5224 111.286 82.5009 111.299 82.4759C111.313 82.4509 111.321 82.423 111.322 82.3944C111.323 82.3659 111.317 82.3375 111.305 82.3116C111.295 82.2616 111.266 82.2173 111.224 82.188C111.183 82.1586 111.131 82.1464 111.081 82.1538C110.283 82.255 109.473 82.1763 108.71 81.9233C107.946 81.6703 107.249 81.2495 106.67 80.6918C106.635 80.6573 106.587 80.638 106.537 80.638C106.488 80.638 106.44 80.6573 106.404 80.6918C106.37 80.7275 106.351 80.7751 106.351 80.8248C106.351 80.8744 106.37 80.922 106.404 80.9576C107.399 81.9267 108.714 82.4997 110.101 82.5691Z" fill="#FFB573"/>
<path d="M95.0913 63.7053C91.9598 64.2203 90.9382 61.1137 92.1094 58.7215C87.707 60.715 91.1791 65.9979 95.0913 63.7053Z" fill="#263238"/>
<path d="M93.58 76.2978C93.769 77.0539 94.1065 77.765 94.5728 78.3896C95.0391 79.0141 95.6249 79.5398 96.2962 79.936C98.107 80.9909 99.544 79.504 99.5024 77.5271C99.4526 75.7496 98.4641 73.0583 96.4291 72.8174C95.9855 72.7709 95.5373 72.8354 95.1248 73.005C94.7123 73.1746 94.3485 73.4441 94.0659 73.7892C93.7834 74.1344 93.5911 74.5443 93.5063 74.9822C93.4214 75.42 93.4468 75.8721 93.58 76.2978Z" fill="#FFB573"/>
<path d="M107.393 73.5816C107.343 74.1381 107.601 74.6116 107.966 74.6365C108.332 74.6614 108.664 74.2378 108.714 73.6896C108.764 73.1414 108.506 72.6596 108.141 72.6264C107.775 72.5931 107.443 73.0251 107.393 73.5816Z" fill="#263238"/>
<path d="M113.972 74.5534C113.922 75.11 114.18 75.5834 114.545 75.6083C114.911 75.6333 115.243 75.2096 115.293 74.6531C115.343 74.0966 115.085 73.6231 114.72 73.5982C114.354 73.5733 114.022 74.0052 113.972 74.5534Z" fill="#263238"/>
<path d="M112.135 74.9937C112.645 76.752 113.4 78.4297 114.378 79.9775C113.975 80.2191 113.524 80.3702 113.056 80.4204C112.589 80.4706 112.116 80.4187 111.67 80.2682L112.135 74.9937Z" fill="#ED893E"/>
<path d="M104.776 71.4386C104.72 71.4376 104.665 71.4203 104.618 71.3887C104.546 71.3425 104.494 71.2699 104.474 71.1862C104.454 71.1026 104.467 71.0144 104.511 70.9402C104.771 70.4823 105.136 70.0928 105.577 69.804C106.017 69.5151 106.52 69.3352 107.044 69.2789C107.122 69.2914 107.193 69.3312 107.244 69.3914C107.296 69.4515 107.324 69.528 107.324 69.607C107.324 69.686 107.296 69.7625 107.244 69.8226C107.193 69.8828 107.122 69.9226 107.044 69.9351C106.632 69.9799 106.237 70.1213 105.891 70.348C105.544 70.5746 105.256 70.88 105.05 71.2392C105.029 71.2956 104.992 71.3446 104.943 71.3801C104.895 71.4155 104.837 71.4359 104.776 71.4386Z" fill="#263238"/>
<path d="M116.29 72.5184C116.236 72.5195 116.183 72.5071 116.135 72.4825C116.087 72.4578 116.046 72.4216 116.016 72.3772C115.798 72.0286 115.498 71.7393 115.141 71.5349C114.784 71.3306 114.383 71.2176 113.972 71.206C113.929 71.2071 113.886 71.1995 113.846 71.1837C113.805 71.168 113.769 71.1443 113.738 71.1141C113.707 71.0839 113.682 71.0478 113.665 71.008C113.649 70.9681 113.64 70.9253 113.64 70.882C113.638 70.8392 113.644 70.7964 113.659 70.7561C113.674 70.7159 113.697 70.6791 113.726 70.648C113.756 70.6169 113.791 70.5922 113.831 70.5753C113.87 70.5584 113.913 70.5497 113.956 70.5498C114.474 70.5643 114.981 70.7042 115.434 70.9573C115.887 71.2104 116.272 71.5693 116.556 72.0034C116.581 72.0386 116.598 72.0786 116.608 72.1208C116.617 72.1631 116.618 72.2068 116.61 72.2493C116.603 72.2919 116.586 72.3325 116.563 72.3688C116.539 72.405 116.508 72.4361 116.472 72.4602C116.42 72.4992 116.355 72.5196 116.29 72.5184Z" fill="#263238"/>
<path d="M96.0467 94.7711C96.0467 94.7711 92.7241 95.6682 92.7241 95.6765C92.7241 96.5071 93.6461 98.0854 95.9719 100.12C98.1482 102.014 102.858 105.287 104.959 105.287C104.702 102.795 105.466 99.2233 106.621 98.0106C103.888 98.1518 98.6964 96.5653 96.0467 94.7711Z" fill="#E0E0E0"/>
<path d="M106.638 98.0106C108.972 98.9243 111.547 102.388 112.261 104.747C113.49 104.091 114.803 99.3645 114.08 96.3161C112.943 95.6996 111.641 95.4582 110.359 95.6267C110.201 96.6401 109.47 97.8611 106.638 98.0106Z" fill="#E0E0E0"/>
<path d="M96.1299 304.872L86.9098 305.13L85.9463 299.897L96.7446 300.545L96.1299 304.872Z" fill="#4A3589"/>
<path opacity="0.2" d="M96.1299 304.872L86.9098 305.13L85.9463 299.897L96.7446 300.545L96.1299 304.872Z" fill="black"/>
<path d="M139.132 303.934L129.264 305.462L127.595 301.101L138.534 298.626L139.132 303.934Z" fill="#4A3589"/>
<path opacity="0.2" d="M139.132 303.934L129.264 305.462L127.595 301.101L138.534 298.626L139.132 303.934Z" fill="black"/>
<path d="M91.0545 94.7711C99.3609 105.902 102.791 170.849 98.1233 226.842C85.9461 228.96 73.6444 211.592 73.6444 211.592C73.6444 211.592 81.7265 155.275 79.6084 137.275C77.4902 119.275 75.1312 108.751 75.7127 103.401C76.2941 98.0521 85.0407 95.6682 91.0545 94.7711Z" fill="#4A3589"/>
<path opacity="0.7" d="M91.0545 94.7711C99.3609 105.902 102.791 170.849 98.1233 226.842C85.9461 228.96 73.6444 211.592 73.6444 211.592C73.6444 211.592 81.7265 155.275 79.6084 137.275C77.4902 119.275 75.1312 108.751 75.7127 103.401C76.2941 98.0521 85.0407 95.6682 91.0545 94.7711Z" fill="white"/>
<path d="M114.288 95.6018C119.77 114.947 126.565 182.943 124.081 223.628C128.699 219.823 133.99 211.077 133.874 207.912C133.766 204.963 131.756 151.994 130.992 144.103C130.552 131.261 130.876 111.774 129.331 104.274C127.786 96.773 119.961 95.1034 114.288 95.6018Z" fill="#4A3589"/>
<path opacity="0.7" d="M114.288 95.6018C119.77 114.947 126.565 182.943 124.081 223.628C128.699 219.823 133.99 211.077 133.874 207.912C133.766 204.963 131.756 151.994 130.992 144.103C130.552 131.261 130.876 111.774 129.331 104.274C127.786 96.773 119.961 95.1034 114.288 95.6018Z" fill="white"/>
<path d="M110.774 158.73L87.2168 158.248C86.9981 158.249 86.7821 158.2 86.5849 158.105C86.3877 158.011 86.2144 157.873 86.0779 157.702C85.9414 157.531 85.8452 157.332 85.7964 157.119C85.7477 156.905 85.7477 156.684 85.7964 156.471L91.993 123.146C92.1012 122.677 92.364 122.258 92.7392 121.957C93.1144 121.655 93.5801 121.489 94.0613 121.484L117.61 121.991C117.829 121.991 118.045 122.039 118.242 122.134C118.439 122.229 118.612 122.366 118.749 122.537C118.885 122.708 118.981 122.908 119.03 123.121C119.079 123.334 119.079 123.555 119.03 123.769L112.842 157.069C112.731 157.536 112.468 157.954 112.093 158.255C111.718 158.555 111.254 158.723 110.774 158.73Z" fill="#4A3589"/>
<path d="M103.314 143.521C103.134 143.192 103.078 142.809 103.157 142.441L103.771 139.252C103.833 138.95 103.978 138.671 104.189 138.447C104.4 138.222 104.67 138.061 104.967 137.981L107.625 137.3C110.208 136.628 112.907 136.526 115.533 137.001L116.364 137.159C116.719 137.222 117.058 137.356 117.361 137.553C117.664 137.749 117.924 138.005 118.127 138.303C118.33 138.602 118.471 138.938 118.542 139.292C118.613 139.646 118.612 140.011 118.54 140.365L117.884 143.637C117.756 144.268 117.409 144.833 116.904 145.231C116.399 145.63 115.769 145.836 115.126 145.814L111.205 145.673C111.205 145.673 104.967 146.503 103.314 143.521Z" fill="#FFB573"/>
<path d="M103.83 137.059C105.021 136.594 106.276 136.314 107.551 136.228C108.781 137.981 107.003 144.601 105.599 146.021C104.495 146.021 101.596 144.559 101.596 144.559C102.584 142.35 103.249 138.728 103.83 137.059Z" fill="#E0E0E0"/>
<path d="M89.9 107.912C88.9697 110.296 88.0393 112.804 87.1423 115.263C86.2452 117.722 85.3813 120.247 84.559 122.664C83.7366 125.081 82.9641 127.59 82.3079 129.982C81.984 131.17 81.685 132.349 81.4773 133.412C81.3693 133.952 81.2863 134.434 81.2281 134.841V135.082V135.198V135.24C81.2216 135.141 81.202 135.043 81.17 134.949L81.0122 134.301C80.9585 134.147 80.8737 134.006 80.763 133.886C80.6799 133.811 80.6716 133.886 80.763 133.952C81.2881 134.348 81.8784 134.649 82.5073 134.841C84.6229 135.494 86.8093 135.89 89.0195 136.021C91.5375 136.203 94.0637 136.247 96.5866 136.153C97.8741 136.153 99.1699 136.037 100.466 135.937L102.401 135.771L104.245 135.58L106.147 147.342C105.317 147.492 104.644 147.6 103.896 147.708L101.728 148.015C100.283 148.206 98.8293 148.372 97.3674 148.505C94.3884 148.783 91.3963 148.897 88.4048 148.846C85.1023 148.818 81.8157 148.383 78.6199 147.55C76.5825 147.007 74.6488 146.131 72.8968 144.958C71.7781 144.187 70.7789 143.255 69.9315 142.192C68.9746 140.98 68.2534 139.6 67.805 138.122V138.072C67.7462 137.873 67.699 137.671 67.6638 137.466C67.5974 137.042 67.5392 136.635 67.4977 136.178C67.4562 135.722 67.4977 135.53 67.4977 135.198V134.368L67.5392 133.603C67.614 132.681 67.7137 131.834 67.83 131.053C68.0708 129.475 68.3533 128.03 68.6606 126.618C69.2753 123.794 69.9813 121.102 70.7123 118.428C71.4432 115.753 72.224 113.128 73.0214 110.512C73.8188 107.895 74.6329 105.312 75.5133 102.654L89.9 107.912Z" fill="#4A3589"/>
<path opacity="0.7" d="M89.9 107.912C88.9697 110.296 88.0393 112.804 87.1423 115.263C86.2452 117.722 85.3813 120.247 84.559 122.664C83.7366 125.081 82.9641 127.59 82.3079 129.982C81.984 131.17 81.685 132.349 81.4773 133.412C81.3693 133.952 81.2863 134.434 81.2281 134.841V135.082V135.198V135.24C81.2216 135.141 81.202 135.043 81.17 134.949L81.0122 134.301C80.9585 134.147 80.8737 134.006 80.763 133.886C80.6799 133.811 80.6716 133.886 80.763 133.952C81.2881 134.348 81.8784 134.649 82.5073 134.841C84.6229 135.494 86.8093 135.89 89.0195 136.021C91.5375 136.203 94.0637 136.247 96.5866 136.153C97.8741 136.153 99.1699 136.037 100.466 135.937L102.401 135.771L104.245 135.58L106.147 147.342C105.317 147.492 104.644 147.6 103.896 147.708L101.728 148.015C100.283 148.206 98.8293 148.372 97.3674 148.505C94.3884 148.783 91.3963 148.897 88.4048 148.846C85.1023 148.818 81.8157 148.383 78.6199 147.55C76.5825 147.007 74.6488 146.131 72.8968 144.958C71.7781 144.187 70.7789 143.255 69.9315 142.192C68.9746 140.98 68.2534 139.6 67.805 138.122V138.072C67.7462 137.873 67.699 137.671 67.6638 137.466C67.5974 137.042 67.5392 136.635 67.4977 136.178C67.4562 135.722 67.4977 135.53 67.4977 135.198V134.368L67.5392 133.603C67.614 132.681 67.7137 131.834 67.83 131.053C68.0708 129.475 68.3533 128.03 68.6606 126.618C69.2753 123.794 69.9813 121.102 70.7123 118.428C71.4432 115.753 72.224 113.128 73.0214 110.512C73.8188 107.895 74.6329 105.312 75.5133 102.654L89.9 107.912Z" fill="white"/>
<path d="M268.594 295.735C255.607 302.726 241.089 306.385 226.34 306.384H223.441C222.617 306.384 221.827 306.711 221.244 307.294C220.662 307.877 220.334 308.667 220.334 309.491C220.334 310.315 220.662 311.105 221.244 311.687C221.827 312.27 222.617 312.597 223.441 312.597H316.63C317.22 312.597 317.804 312.481 318.35 312.255C318.895 312.029 319.39 311.698 319.807 311.281C320.225 310.864 320.556 310.368 320.782 309.823C321.007 309.278 321.124 308.694 321.124 308.103V299.697C321.124 299.107 321.007 298.523 320.782 297.978C320.556 297.433 320.225 296.937 319.807 296.52C319.39 296.103 318.895 295.772 318.35 295.546C317.804 295.32 317.22 295.204 316.63 295.204H270.729C269.985 295.203 269.251 295.386 268.594 295.735Z" fill="#263238"/>
<path d="M302.351 299.697H283.371C282.184 299.697 281.024 299.344 280.036 298.685C279.049 298.026 278.279 297.089 277.823 295.993L267.656 271.514C267.279 270.601 267.133 269.61 267.231 268.628C267.328 267.645 267.666 266.702 268.215 265.881C268.763 265.06 269.505 264.387 270.375 263.92C271.245 263.454 272.217 263.209 273.204 263.208H292.168C293.356 263.208 294.518 263.56 295.507 264.219C296.496 264.878 297.267 265.815 297.725 266.912L307.883 291.399C308.26 292.31 308.406 293.3 308.309 294.28C308.213 295.261 307.876 296.203 307.33 297.023C306.783 297.843 306.043 298.516 305.175 298.982C304.306 299.449 303.337 299.694 302.351 299.697Z" fill="#E0E0E0"/>
<path opacity="0.2" d="M300.001 298.867H283.247C282.5 298.869 281.77 298.649 281.148 298.235C280.527 297.821 280.043 297.231 279.758 296.541L268.86 270.293C268.623 269.719 268.53 269.095 268.591 268.477C268.652 267.859 268.864 267.265 269.209 266.749C269.554 266.232 270.021 265.809 270.569 265.516C271.116 265.222 271.728 265.069 272.349 265.068H289.07C289.817 265.068 290.547 265.289 291.169 265.705C291.79 266.121 292.273 266.711 292.558 267.402L303.456 293.642C303.693 294.213 303.785 294.834 303.726 295.45C303.667 296.065 303.458 296.657 303.116 297.172C302.775 297.688 302.313 298.112 301.77 298.408C301.226 298.703 300.619 298.861 300.001 298.867Z" fill="black"/>
<path d="M297.235 249.959H264.209C260.979 249.959 258.361 252.577 258.361 255.807V260.533C258.361 263.763 260.979 266.381 264.209 266.381H297.235C300.465 266.381 303.083 263.763 303.083 260.533V255.807C303.083 252.577 300.465 249.959 297.235 249.959Z" fill="#263238"/>
<path d="M255.255 212.14H318.923V240.265C318.925 242.102 318.565 243.921 317.864 245.619C317.162 247.317 316.132 248.859 314.834 250.158C313.536 251.458 311.994 252.488 310.297 253.191C308.599 253.893 306.78 254.254 304.944 254.253H255.255V212.14Z" fill="#E0E0E0"/>
<path opacity="0.2" d="M256.559 217.996H307.336V240.423C307.336 243.38 306.161 246.215 304.071 248.305C301.98 250.396 299.145 251.57 296.189 251.57H256.559V217.996Z" fill="black"/>
<path opacity="0.6" d="M262.622 311.983H223.856C223.21 311.972 222.593 311.71 222.135 311.253C221.678 310.796 221.416 310.179 221.406 309.532C221.416 308.886 221.678 308.269 222.135 307.811C222.593 307.354 223.21 307.092 223.856 307.082H262.622C263.268 307.092 263.886 307.354 264.343 307.811C264.8 308.269 265.062 308.886 265.072 309.532C265.062 310.179 264.8 310.796 264.343 311.253C263.886 311.71 263.268 311.972 262.622 311.983Z" fill="black"/>
<path d="M212.028 216.875C212.03 217.215 211.93 217.548 211.742 217.832C211.555 218.116 211.287 218.338 210.973 218.469C210.658 218.601 210.313 218.636 209.978 218.57C209.644 218.505 209.337 218.342 209.096 218.102C208.855 217.862 208.69 217.555 208.623 217.221C208.556 216.888 208.59 216.542 208.719 216.227C208.849 215.912 209.07 215.643 209.353 215.454C209.636 215.265 209.968 215.164 210.309 215.164C210.534 215.162 210.758 215.206 210.966 215.291C211.175 215.377 211.364 215.503 211.524 215.662C211.684 215.821 211.811 216.01 211.897 216.218C211.984 216.426 212.028 216.649 212.028 216.875Z" fill="#263238"/>
<path d="M233.94 269.936C235.904 269.936 237.496 268.344 237.496 266.381C237.496 264.417 235.904 262.825 233.94 262.825C231.977 262.825 230.385 264.417 230.385 266.381C230.385 268.344 231.977 269.936 233.94 269.936Z" fill="#263238"/>
<path d="M240.81 290.394C240.637 290.436 240.455 290.41 240.3 290.322C240.146 290.234 240.031 290.091 239.979 289.921L219.163 217.116C219.121 216.943 219.147 216.761 219.235 216.606C219.323 216.452 219.467 216.337 219.637 216.285C219.809 216.243 219.991 216.269 220.146 216.357C220.3 216.445 220.415 216.589 220.467 216.758L241.291 289.564C241.335 289.738 241.309 289.922 241.219 290.077C241.129 290.232 240.982 290.346 240.81 290.394Z" fill="#E0E0E0"/>
<path d="M210.026 216.875C210.028 216.69 210.103 216.514 210.233 216.384C210.363 216.253 210.54 216.179 210.724 216.177H219.795C219.979 216.179 220.155 216.253 220.286 216.384C220.416 216.514 220.49 216.69 220.492 216.875C220.492 217.061 220.419 217.239 220.288 217.371C220.158 217.503 219.98 217.579 219.795 217.581H210.724C210.538 217.579 210.361 217.503 210.23 217.371C210.099 217.239 210.026 217.061 210.026 216.875Z" fill="#E0E0E0"/>
<path d="M210.276 222.191H210.359C210.721 222.191 211.015 221.897 211.015 221.535V213.685C211.015 213.323 210.721 213.029 210.359 213.029H210.276C209.913 213.029 209.62 213.323 209.62 213.685V221.535C209.62 221.897 209.913 222.191 210.276 222.191Z" fill="#E0E0E0"/>
<path d="M380.88 172.959L380.05 172.834C380.184 171.799 380.096 170.747 379.793 169.748C379.49 168.75 378.977 167.827 378.29 167.041C377.602 166.256 376.756 165.625 375.806 165.192C374.856 164.759 373.825 164.532 372.781 164.528H358.661V163.697H372.781C373.949 163.702 375.101 163.956 376.162 164.442C377.224 164.928 378.169 165.635 378.935 166.516C379.7 167.396 380.269 168.431 380.604 169.549C380.938 170.667 381.029 171.844 380.872 173L380.88 172.959Z" fill="#4A3589"/>
<path d="M375.829 180.111L375.256 179.504L378.338 176.589L378.961 177.129L378.886 177.22L375.829 180.111Z" fill="#4A3589"/>
<path d="M286.213 231.361H223.815C217.893 231.361 216.422 223.129 221.979 221.078L245.702 212.323C257.454 207.986 268.347 201.609 277.881 193.484L305.035 170.359C308.006 167.83 311.781 166.44 315.683 166.438H372.79C373.82 166.438 374.828 166.733 375.695 167.289C376.562 167.845 377.251 168.639 377.68 169.575C378.108 170.511 378.259 171.551 378.114 172.571C377.968 173.591 377.533 174.547 376.86 175.326L353.926 196.923C347.033 202.796 339.482 207.849 331.424 211.982L302.734 226.701C295.649 230.339 294.187 231.361 286.213 231.361Z" fill="#4A3589"/>
<path opacity="0.2" d="M342.895 203.211C342.82 203.212 342.747 203.192 342.682 203.154C342.618 203.116 342.565 203.061 342.53 202.995L341.699 201.441C340.883 199.967 339.686 198.738 338.234 197.882C336.783 197.027 335.128 196.575 333.443 196.574H277.566C277.456 196.574 277.35 196.53 277.272 196.452C277.194 196.374 277.151 196.269 277.151 196.159C277.151 196.048 277.194 195.943 277.272 195.865C277.35 195.787 277.456 195.743 277.566 195.743H333.418C335.252 195.742 337.053 196.233 338.632 197.165C340.212 198.097 341.512 199.436 342.397 201.043L343.228 202.596C343.279 202.693 343.29 202.807 343.259 202.912C343.228 203.017 343.157 203.107 343.062 203.161C343.01 203.188 342.953 203.205 342.895 203.211Z" fill="black"/>
<path opacity="0.2" d="M282.931 221.966H223.607C218.374 223.628 219.761 230.464 225.335 230.464H282.931C285.946 230.464 288.222 228.072 287.691 225.48C287.42 224.438 286.799 223.52 285.933 222.881C285.066 222.241 284.007 221.919 282.931 221.966Z" fill="black"/>
<path d="M243.858 268.972H185.872C184.477 268.973 183.114 268.55 181.965 267.759C180.816 266.969 179.934 265.848 179.436 264.544C178.938 263.241 178.847 261.818 179.176 260.462C179.505 259.106 180.238 257.883 181.278 256.953L210.741 230.597C213.889 227.775 217.968 226.216 222.195 226.219H280.182C281.577 226.219 282.939 226.642 284.089 227.432C285.238 228.223 286.12 229.344 286.618 230.647C287.116 231.95 287.206 233.374 286.877 234.729C286.548 236.085 285.815 237.309 284.775 238.239L255.313 264.595C252.165 267.416 248.086 268.975 243.858 268.972Z" fill="#4A3589"/>
<path opacity="0.2" d="M238.475 267.95H185.314C184.053 267.946 182.845 267.443 181.954 266.552C181.062 265.66 180.559 264.452 180.555 263.191C180.559 261.93 181.062 260.722 181.954 259.83C182.845 258.939 184.053 258.436 185.314 258.431H238.475C239.737 258.434 240.948 258.935 241.841 259.827C242.734 260.719 243.238 261.929 243.243 263.191C243.238 264.453 242.734 265.663 241.841 266.555C240.948 267.446 239.737 267.948 238.475 267.95Z" fill="black"/>
<path d="M287.741 129.218L285.207 131.095C285.988 139.268 294.128 142.059 296.329 136.461C298.198 131.793 293.372 129.301 287.741 129.218Z" fill="#263238"/>
<path d="M290.058 129.292C289.875 131.701 288.555 134.907 284.559 133.628C284.422 133.582 284.299 133.503 284.2 133.397C284.101 133.292 284.029 133.164 283.992 133.024C283.954 132.885 283.951 132.738 283.983 132.597C284.016 132.456 284.082 132.325 284.177 132.216C285.477 130.734 287.005 129.469 288.704 128.47C288.844 128.384 289.004 128.338 289.168 128.337C289.332 128.336 289.493 128.381 289.633 128.466C289.773 128.551 289.887 128.674 289.962 128.819C290.037 128.965 290.07 129.129 290.058 129.292Z" fill="#4A3589"/>
<path d="M268.088 106.242C268.528 102.92 280.822 100.602 286.362 111.002C289.419 116.717 289.593 122.946 289.269 126.9C289.168 128.136 288.713 129.316 287.959 130.3C287.205 131.284 286.183 132.03 285.016 132.449C280.639 134.044 273.387 136.021 269.724 133.454C262.415 128.379 268.088 106.242 268.088 106.242Z" fill="#263238"/>
<path d="M268.087 106.242C255.902 115.064 257.048 127.249 264.466 130.613C274.417 124.89 268.087 106.242 268.087 106.242Z" fill="#263238"/>
<path d="M223.84 162.958L221.946 157.899L216.016 164.37C216.016 164.37 219.396 167.826 222.926 168.415L223.441 167.585C223.851 166.893 224.099 166.118 224.168 165.317C224.237 164.516 224.125 163.71 223.84 162.958Z" fill="#7F3E3B"/>
<path d="M216.098 158.032L214.503 160.358C214.166 160.842 214.025 161.436 214.108 162.02C214.192 162.605 214.493 163.135 214.952 163.506L216.015 164.378L221.946 157.9L218.623 157.069C218.154 156.953 217.661 156.983 217.21 157.155C216.758 157.327 216.37 157.633 216.098 158.032Z" fill="#7F3E3B"/>
<path d="M262.373 152.65C262.14 153.306 261.949 153.796 261.733 154.311C261.517 154.826 261.293 155.374 261.06 155.889C260.603 156.936 260.122 157.958 259.615 158.971C258.61 161.006 257.501 162.989 256.292 164.91C255.065 166.846 253.732 168.712 252.297 170.5C250.843 172.321 249.26 174.037 247.562 175.634L246.242 176.813L245.918 177.104L245.835 177.179L245.685 177.303L245.237 177.652C244.656 178.043 244.021 178.345 243.351 178.549C242.346 178.839 241.292 178.927 240.253 178.807C239.481 178.728 238.719 178.575 237.977 178.35C235.627 177.588 233.391 176.509 231.332 175.144C227.594 172.731 224.114 169.939 220.949 166.812C220.551 166.421 220.308 165.899 220.267 165.343C220.225 164.787 220.387 164.234 220.722 163.788C221.057 163.342 221.543 163.033 222.089 162.919C222.635 162.804 223.204 162.892 223.69 163.166H223.765C227.37 165.209 231.091 167.269 234.721 168.905C236.365 169.687 238.093 170.281 239.871 170.675C240.161 170.729 240.456 170.751 240.751 170.741C240.967 170.741 241.017 170.658 240.826 170.741C240.662 170.773 240.507 170.838 240.369 170.932C240.318 170.96 240.271 170.993 240.228 171.032L240.286 170.965L240.535 170.708L241.532 169.67C244.153 166.751 246.461 163.567 248.418 160.167C249.44 158.456 250.353 156.678 251.259 154.893C251.707 153.996 252.139 153.09 252.538 152.185L253.128 150.822L253.659 149.543L253.742 149.344C254.183 148.203 255.059 147.283 256.177 146.788C257.296 146.293 258.565 146.262 259.706 146.703C260.848 147.143 261.767 148.019 262.262 149.137C262.758 150.256 262.788 151.525 262.348 152.666L262.373 152.65Z" fill="#7F3E3B"/>
<path d="M258.494 144.385C250.62 149.037 249.764 157.409 246.184 160.699C250.038 169.836 256.434 169.902 256.434 169.902C256.434 169.902 267.232 139.235 258.494 144.385Z" fill="#4A3589"/>
<path opacity="0.3" d="M258.494 144.385C250.62 149.037 249.764 157.409 246.184 160.699C250.038 169.836 256.434 169.902 256.434 169.902C256.434 169.902 267.232 139.235 258.494 144.385Z" fill="white"/>
<path d="M289.311 184.829C290.307 173.972 290.651 163.066 290.341 152.168C290.149 147.666 288.156 143.521 283.695 143.031C282.499 142.915 281.204 142.815 279.933 142.749C275.397 142.429 270.845 142.429 266.31 142.749C264.832 142.89 263.312 143.073 261.866 143.28C259.333 143.635 257.023 144.921 255.386 146.886C253.749 148.852 252.902 151.357 253.012 153.912C253.145 156.861 248.485 163.689 254.233 167.643C254.723 171.904 254.075 179.18 254.283 186.59C250.395 193.276 237.387 198.426 236.258 204.914C234.663 214.117 244.606 217.581 254.058 218.204C283.014 220.247 297.501 216.26 289.311 184.829Z" fill="#4A3589"/>
<path opacity="0.4" d="M289.311 184.829C290.307 173.972 290.651 163.066 290.341 152.168C290.149 147.666 288.156 143.521 283.695 143.031C282.499 142.915 281.204 142.815 279.933 142.749C275.397 142.429 270.845 142.429 266.31 142.749C264.832 142.89 263.312 143.073 261.866 143.28C259.333 143.635 257.023 144.921 255.386 146.886C253.749 148.852 252.902 151.357 253.012 153.912C253.145 156.861 248.485 163.689 254.233 167.643C254.723 171.904 254.075 179.18 254.283 186.59C250.395 193.276 237.387 198.426 236.258 204.914C234.663 214.117 244.606 217.581 254.058 218.204C283.014 220.247 297.501 216.26 289.311 184.829Z" fill="white"/>
<path opacity="0.6" d="M259.25 200.445C255.77 201.201 246.915 198.476 241.74 199.556C240.491 199.789 239.33 200.359 238.383 201.206C237.435 202.052 236.738 203.142 236.366 204.357C236.309 204.551 236.265 204.748 236.233 204.947C234.63 214.15 244.54 217.614 254.026 218.237C262.332 218.802 269.118 219.068 274.542 218.395C275.887 218.245 277.146 217.66 278.128 216.729C279.11 215.798 279.762 214.571 279.983 213.236C281.054 206.076 269.176 198.293 259.25 200.445Z" fill="#4A3589"/>
<path opacity="0.3" d="M265.679 170.168C269.833 174.122 277.956 181.199 280.739 182.329C274.542 181.456 267.665 173.424 265.679 170.168Z" fill="#4A3589"/>
<path opacity="0.3" d="M258.76 162.742C263.071 170.176 270.156 181.207 273.03 184.098C265.505 178.848 259.541 166.613 258.76 162.742Z" fill="#4A3589"/>
<path d="M257.256 205.678C252.788 199.157 242.654 198.891 239.381 201.973C233.924 207.09 223.449 216.243 217.236 223.37C209.453 232.3 199.095 260.018 195.49 269.421C193.937 273.69 186.802 277.993 180.157 277.212C177.2 276.863 179.218 280.535 181.328 281.058C186.611 282.453 186.312 280.584 189.368 281.207C191.943 281.739 191.761 282.395 194.817 283.135C196.537 283.55 197.5 281.855 197.833 279.812C198.165 277.769 198.921 276.265 203.265 269.678C211.95 258.791 219.593 247.11 226.091 234.792C244.049 225.821 247.687 222.988 254.233 217.174C257.622 214.134 260.097 209.814 257.256 205.678Z" fill="#7F3E3B"/>
<path opacity="0.2" d="M257.256 205.678C256.778 204.983 256.239 204.332 255.645 203.734C253.765 204.555 252.031 205.677 250.512 207.057C245.005 212.123 234.671 221.593 231.258 225.056C228.706 227.536 227.129 230.849 226.814 234.393C244.149 225.704 247.812 222.872 254.225 217.124C257.622 214.142 260.097 209.814 257.256 205.678Z" fill="black"/>
<path d="M278.561 127.44C277.731 131.826 276.842 139.858 279.907 142.782C274.239 144.153 269.044 147.022 264.864 151.088C261.783 145.365 266.285 142.782 266.285 142.782C271.169 141.619 271.044 137.989 270.189 134.584L278.561 127.44Z" fill="#7F3E3B"/>
<path opacity="0.2" d="M275.148 130.356L270.164 134.584C270.377 135.375 270.518 136.184 270.588 137.001C272.448 136.727 275.015 134.675 275.214 132.723C275.335 131.936 275.313 131.134 275.148 130.356Z" fill="black"/>
<path d="M283.181 119.399C281.469 126.526 280.896 129.583 276.677 132.648C270.314 137.266 262.107 133.62 261.725 126.128C261.36 119.383 264.217 108.859 271.643 107.214C279.069 105.569 284.908 112.264 283.181 119.399Z" fill="#7F3E3B"/>
<path d="M269.068 106.973C272.673 113.618 278.878 115.014 278.994 119.624C279.111 124.234 286.819 126.07 285.972 119.915C285.124 113.759 280.14 101.956 269.068 106.973Z" fill="#263238"/>
<path d="M269.957 106.699C269.45 112.19 273.404 112.223 274.434 111.849C269.998 113.568 267.216 110.952 267.789 107.962C268.042 107.611 268.365 107.318 268.739 107.1C269.112 106.883 269.527 106.746 269.957 106.699Z" fill="#263238"/>
<path d="M272.05 119.474C271.942 120.064 271.543 120.488 271.161 120.413C270.779 120.338 270.555 119.815 270.655 119.233C270.754 118.652 271.153 118.22 271.543 118.295C271.934 118.37 272.15 118.86 272.05 119.474Z" fill="#263238"/>
<path d="M264.807 118.303C264.707 118.885 264.309 119.308 263.927 119.242C263.545 119.175 263.32 118.644 263.42 118.054C263.52 117.464 263.918 117.049 264.309 117.115C264.699 117.182 264.915 117.713 264.807 118.303Z" fill="#263238"/>
<path d="M264.466 117.198L263.129 116.542C263.129 116.542 263.661 117.755 264.466 117.198Z" fill="#263238"/>
<path d="M266.634 119.624C265.88 120.874 264.958 122.014 263.892 123.013C264.155 123.279 264.472 123.485 264.822 123.617C265.172 123.749 265.546 123.803 265.919 123.777L266.634 119.624Z" fill="#630F0F"/>
<path d="M268.91 126.526C268.576 126.527 268.242 126.497 267.914 126.435C267.891 126.432 267.869 126.424 267.849 126.413C267.83 126.401 267.813 126.385 267.799 126.366C267.786 126.348 267.777 126.326 267.772 126.304C267.767 126.281 267.768 126.258 267.772 126.236C267.775 126.213 267.783 126.191 267.795 126.171C267.807 126.152 267.822 126.135 267.841 126.121C267.86 126.108 267.881 126.099 267.904 126.094C267.926 126.09 267.949 126.09 267.972 126.094C268.699 126.241 269.45 126.213 270.165 126.014C270.879 125.815 271.537 125.45 272.083 124.948C272.1 124.932 272.119 124.918 272.14 124.909C272.162 124.9 272.185 124.896 272.208 124.896C272.231 124.896 272.254 124.9 272.275 124.909C272.297 124.918 272.316 124.932 272.333 124.948C272.363 124.981 272.381 125.024 272.381 125.069C272.381 125.113 272.363 125.157 272.333 125.189C271.41 126.065 270.182 126.545 268.91 126.526Z" fill="#263238"/>
<path d="M284.078 125.023C283.68 125.558 283.173 126.003 282.59 126.328C282.007 126.653 281.362 126.851 280.697 126.908C279.036 127 278.612 125.081 279.46 123.411C280.215 121.916 282.01 120.089 283.521 120.762C285.033 121.435 285.124 123.627 284.078 125.023Z" fill="#7F3E3B"/>
<path d="M275.389 117.323C275.297 117.296 275.217 117.237 275.165 117.157C274.955 116.771 274.656 116.44 274.294 116.192C273.932 115.944 273.516 115.785 273.08 115.728C273.034 115.726 272.989 115.715 272.948 115.695C272.906 115.676 272.869 115.648 272.838 115.614C272.807 115.58 272.783 115.541 272.768 115.497C272.752 115.454 272.745 115.408 272.748 115.363C272.754 115.269 272.797 115.182 272.867 115.12C272.937 115.058 273.028 115.026 273.122 115.03C273.674 115.091 274.204 115.284 274.665 115.593C275.126 115.903 275.506 116.32 275.771 116.808C275.795 116.847 275.81 116.89 275.817 116.936C275.824 116.981 275.821 117.027 275.809 117.071C275.798 117.115 275.777 117.157 275.749 117.193C275.721 117.229 275.686 117.259 275.647 117.281C275.569 117.327 275.477 117.342 275.389 117.323Z" fill="#263238"/>
<path d="M262.847 114.823C262.757 114.815 262.674 114.774 262.614 114.706C262.551 114.639 262.516 114.55 262.516 114.457C262.516 114.365 262.551 114.276 262.614 114.208C263.028 113.834 263.524 113.563 264.063 113.419C264.602 113.274 265.167 113.26 265.712 113.377C265.757 113.391 265.798 113.413 265.834 113.442C265.87 113.471 265.899 113.508 265.921 113.549C265.943 113.59 265.956 113.635 265.96 113.681C265.964 113.727 265.959 113.773 265.945 113.818C265.933 113.862 265.912 113.903 265.883 113.939C265.854 113.974 265.819 114.004 265.778 114.026C265.738 114.047 265.694 114.061 265.648 114.065C265.603 114.069 265.557 114.064 265.513 114.05C265.082 113.961 264.637 113.975 264.213 114.091C263.788 114.206 263.397 114.42 263.071 114.715C263.013 114.778 262.933 114.817 262.847 114.823Z" fill="#263238"/>
<path d="M271.701 118.353L270.364 117.697C270.364 117.697 270.895 118.926 271.701 118.353Z" fill="#263238"/>
<path d="M277.574 189.314L272.233 188.567L275.074 196.873C275.074 196.873 279.726 195.552 281.935 192.72L281.428 191.889C281.019 191.2 280.46 190.61 279.793 190.165C279.126 189.719 278.368 189.429 277.574 189.314Z" fill="#7F3E3B"/>
<path d="M269.55 193.766L270.821 196.258C271.087 196.784 271.542 197.19 272.094 197.396C272.647 197.602 273.256 197.594 273.803 197.371L275.073 196.848L272.233 188.542L269.907 191.1C269.582 191.455 269.373 191.9 269.309 192.377C269.245 192.854 269.329 193.339 269.55 193.766Z" fill="#7F3E3B"/>
<path d="M289.211 147.699C290.274 149.685 291.113 151.57 291.977 153.514C292.841 155.457 293.58 157.459 294.286 159.494C295.782 163.667 296.775 168.003 297.243 172.411C297.243 173 297.326 173.582 297.343 174.188V174.645C297.36 174.922 297.36 175.199 297.343 175.476C297.305 175.953 297.221 176.426 297.093 176.888C296.703 178.268 296.092 179.575 295.283 180.759C294.001 182.654 292.523 184.408 290.872 185.992C287.816 188.974 284.478 191.653 280.904 193.991C280.44 194.3 279.879 194.43 279.326 194.357C278.773 194.284 278.266 194.012 277.898 193.593C277.53 193.173 277.328 192.634 277.327 192.077C277.327 191.519 277.53 190.98 277.897 190.56L277.947 190.502C280.564 187.503 283.213 184.413 285.514 181.365C286.614 179.924 287.594 178.396 288.446 176.796C288.74 176.25 288.947 175.662 289.061 175.052C289.061 174.986 289.061 174.936 289.061 174.961C289.058 174.98 289.058 175 289.061 175.019V174.712C289.02 174.296 288.953 173.881 288.887 173.432C288.183 169.739 287.123 166.123 285.722 162.634C285.033 160.815 284.268 159.013 283.504 157.21C282.74 155.408 281.843 153.589 281.087 151.936L281.037 151.844C280.55 150.759 280.5 149.529 280.898 148.408C281.295 147.287 282.11 146.363 283.172 145.828C284.233 145.293 285.461 145.188 286.598 145.535C287.735 145.882 288.695 146.654 289.277 147.691L289.211 147.699Z" fill="#7F3E3B"/>
<path d="M276.012 205.694C272.395 202.57 267.707 200.971 262.935 201.234C258.163 201.498 253.679 203.603 250.428 207.106C245.336 212.589 239.165 219.358 232.985 226.485C223.748 237.084 210.865 274.18 209.993 275.642L214.146 278.583C224.876 266.104 234.158 252.45 241.815 237.881C259.773 228.911 269.608 222.814 276.112 216.999C276.911 216.286 277.549 215.411 277.983 214.432C278.417 213.453 278.637 212.393 278.628 211.322C278.619 210.251 278.382 209.194 277.933 208.222C277.483 207.251 276.831 206.386 276.02 205.686L276.012 205.694Z" fill="#7F3E3B"/>
<path d="M215.599 283.757C215.516 281.698 214.636 279.372 218.98 272.785C218.98 272.785 212.069 270.177 211.205 272.527C209.644 276.797 203.555 284.704 196.868 284.804C193.895 284.846 197.5 288.127 199.684 288.284C205.141 288.592 204.668 287.313 207.758 287.321C209.616 287.214 211.479 287.314 213.315 287.62C215.059 287.944 215.691 285.817 215.599 283.757Z" fill="#7F3E3B"/>
<path d="M284.227 143.147C289.535 143.845 293.098 149.792 296.329 159.104C293.6 164.081 289.363 168.065 284.227 170.484C281.478 165.085 278.745 157.841 278.238 153.871C277.732 149.9 278.454 142.383 284.227 143.147Z" fill="#4A3589"/>
<path opacity="0.4" d="M284.227 143.147C289.535 143.845 293.098 149.792 296.329 159.104C293.6 164.081 289.363 168.065 284.227 170.484C281.478 165.085 278.745 157.841 278.238 153.871C277.732 149.9 278.454 142.383 284.227 143.147Z" fill="white"/>
<path d="M231.638 55.051C236.513 34.3969 223.721 13.7015 203.067 8.82668C182.413 3.95185 161.717 16.7435 156.842 37.3977C151.968 58.0519 164.759 78.7473 185.413 83.6221C206.068 88.4969 226.763 75.7052 231.638 55.051Z" fill="#4A3589"/>
<path d="M160.927 52.0598L144.68 69.3786L168.287 70.5083L160.927 52.0598Z" fill="#4A3589"/>
<path d="M227.167 53.9959C231.459 35.8107 220.197 17.5893 202.012 13.2973C183.826 9.00517 165.605 20.2677 161.313 38.4529C157.021 56.638 168.283 74.8594 186.469 79.1515C204.654 83.4436 222.875 72.181 227.167 53.9959Z" fill="white"/>
<path d="M171.111 40.1734C173.35 40.8998 175.528 41.8025 177.624 42.873C179.705 43.9128 181.729 45.0635 183.687 46.3201C184.659 46.9597 185.639 47.591 186.578 48.2887C187.516 48.9864 188.455 49.6925 189.369 50.4234C191.241 51.9324 193.001 53.5759 194.635 55.3408L188.123 55.781C189.904 52.9035 191.912 50.1731 194.128 47.6159C196.299 45.1228 198.612 42.757 201.056 40.5306C203.501 38.3258 206.072 36.2651 208.756 34.3589C211.453 32.4036 214.322 30.6966 217.328 29.2588C215.667 32.2076 213.831 34.9072 211.962 37.5652C210.093 40.2232 208.166 42.7816 206.247 45.315L200.433 52.7908C198.522 55.2827 196.662 57.7164 194.934 60.1668L191.728 64.7021L188.405 60.607C187.109 58.9956 185.697 57.3759 184.252 55.7395L179.825 50.7557C178.338 49.0944 176.834 47.4332 175.364 45.6307C173.894 43.8282 172.532 42.1171 171.111 40.1734Z" fill="#4A3589"/>
</g>
</svg>
