<svg width="416" height="310" viewBox="0 0 416 310" fill="none" xmlns="http://www.w3.org/2000/svg">
<g opacity="0.5">
<path d="M415.318 271.95H0V272.158H415.318V271.95Z" fill="#EBEBEB"/>
<path d="M373.703 285.315H346.193V285.523H373.703V285.315Z" fill="#EBEBEB"/>
<path d="M275.123 287.575H267.905V287.782H275.123V287.575Z" fill="#EBEBEB"/>
<path d="M345.362 277.607H329.422V277.815H345.362V277.607Z" fill="#EBEBEB"/>
<path d="M79.4504 279.002H43.5752V279.21H79.4504V279.002Z" fill="#EBEBEB"/>
<path d="M92.1092 279.002H86.8513V279.21H92.1092V279.002Z" fill="#EBEBEB"/>
<path d="M187.018 282.508H109.204V282.715H187.018V282.508Z" fill="#EBEBEB"/>
<path d="M196.861 234.904H36.4733C35.2168 234.902 34.0126 234.401 33.1249 233.512C32.2372 232.623 31.7386 231.417 31.7386 230.161V4.7014C31.7496 3.45214 32.253 2.25765 33.1395 1.37738C34.026 0.497101 35.224 0.00214004 36.4733 0H196.861C198.119 0 199.325 0.499701 200.215 1.38917C201.104 2.27865 201.604 3.48503 201.604 4.74293V230.161C201.604 231.419 201.104 232.625 200.215 233.515C199.325 234.404 198.119 234.904 196.861 234.904ZM36.4733 0.166128C35.2719 0.168328 34.1205 0.64712 33.2717 1.49741C32.423 2.3477 31.9463 3.50001 31.9463 4.7014V230.161C31.9463 231.362 32.423 232.515 33.2717 233.365C34.1205 234.215 35.2719 234.694 36.4733 234.696H196.861C198.063 234.694 199.215 234.216 200.065 233.365C200.915 232.515 201.394 231.363 201.396 230.161V4.7014C201.394 3.49925 200.915 2.34696 200.065 1.4969C199.215 0.64685 198.063 0.168324 196.861 0.166128H36.4733Z" fill="#EBEBEB"/>
<path d="M376.536 234.904H216.14C214.883 234.902 213.678 234.401 212.789 233.512C211.9 232.623 211.399 231.418 211.397 230.161V4.7014C211.41 3.45139 211.915 2.2569 212.803 1.37686C213.691 0.496811 214.89 0.0021167 216.14 0H376.536C377.784 0.00432304 378.98 0.50025 379.864 1.38029C380.749 2.26033 381.251 3.45358 381.262 4.7014V230.161C381.262 231.416 380.765 232.62 379.879 233.509C378.993 234.398 377.791 234.9 376.536 234.904ZM216.14 0.166128C214.938 0.168324 213.785 0.64685 212.935 1.4969C212.085 2.34696 211.607 3.49925 211.605 4.7014V230.161C211.607 231.363 212.085 232.515 212.935 233.365C213.785 234.216 214.938 234.694 216.14 234.696H376.536C377.738 234.694 378.89 234.216 379.74 233.365C380.59 232.515 381.069 231.363 381.071 230.161V4.7014C381.069 3.49925 380.59 2.34696 379.74 1.4969C378.89 0.64685 377.738 0.168324 376.536 0.166128H216.14Z" fill="#EBEBEB"/>
<path d="M252.128 29.188C254.609 18.6734 248.097 8.13779 237.583 5.65612C227.068 3.17444 216.532 9.68645 214.051 20.2011C211.569 30.7157 218.081 41.2512 228.596 43.7329C239.11 46.2146 249.646 39.7026 252.128 29.188Z" fill="#E0E0E0"/>
<path d="M249.531 27.3714C251.003 18.3014 244.844 9.75522 235.774 8.28295C226.704 6.81068 218.157 12.9699 216.685 22.0399C215.213 31.1099 221.372 39.6561 230.442 41.1283C239.512 42.6006 248.058 36.4414 249.531 27.3714Z" fill="#F0F0F0"/>
<path d="M232.312 13.2902V24.9191L224.604 20.5582" fill="#F0F0F0"/>
<path d="M232.312 13.2902V24.9191L224.604 20.5582" stroke="#E0E0E0" stroke-width="2" stroke-linecap="round" stroke-linejoin="round"/>
<path d="M326.789 243.725C326.789 243.725 333.168 231.266 325.875 218.923C318.582 206.579 316.472 203.705 321.116 201.18C325.759 198.655 327.902 211.031 327.902 211.031C327.902 211.031 331.823 202.517 328.583 193.588C325.344 184.659 323.317 170.164 327.752 168.611C332.188 167.058 328.583 186.71 332.429 193.414C332.429 193.414 335.652 185.938 336.183 178.794C336.715 171.651 335.884 160.213 339.373 157.281C342.862 154.349 345.096 156.376 341.674 172.174C339.614 181.583 338.474 191.169 338.268 200.798C338.268 200.798 345.844 180.082 350.927 179.484C356.011 178.886 356.002 185.589 351.65 191.404C347.297 197.218 338.908 207.642 337.529 213C337.529 213 345.835 197.409 353.311 202.202C360.787 206.995 346.799 216.389 340.561 219.795C334.323 223.2 329.995 244.523 329.995 244.523L326.789 243.725Z" fill="#E0E0E0"/>
<path d="M331.823 248.85C331.823 248.85 325.609 236.274 333.085 224.056C340.561 211.837 342.696 208.971 338.069 206.38C333.442 203.788 331.158 216.14 331.158 216.14C331.158 216.14 327.354 207.576 330.71 198.697C334.065 189.817 336.283 175.347 331.889 173.736C327.495 172.124 330.801 191.827 326.905 198.472C326.905 198.472 323.782 190.997 323.35 183.812C322.918 176.627 323.89 165.23 320.443 162.256C316.996 159.283 314.728 161.276 317.951 177.108C319.882 186.546 320.892 196.149 320.966 205.782C320.966 205.782 313.673 184.966 308.598 184.293C303.523 183.62 303.44 190.332 307.709 196.205C311.979 202.077 320.235 212.618 321.539 218.001C321.539 218.001 313.441 202.301 305.89 206.978C298.34 211.654 312.211 221.257 318.4 224.745C324.588 228.234 328.633 249.615 328.633 249.615L331.823 248.85Z" fill="#E6E6E6"/>
<path d="M303.157 239.888H354.507L350.346 272.839H307.311L303.157 239.888Z" fill="#F0F0F0"/>
<path d="M368.437 86.1951V60.4371H331.997V86.1951H368.437Z" fill="#E0E0E0"/>
<path d="M366.718 84.5089V62.115H333.7V84.5089H366.718Z" fill="#EBEBEB"/>
<path d="M296.396 93.7872H319.587V60.977H296.396V93.7872Z" fill="#E0E0E0"/>
<path d="M297.908 92.2421H318.076V62.5137H297.908V92.2421Z" fill="#EBEBEB"/>
<path d="M251.218 61.9738V82.1416H279.75V61.9738H251.218Z" fill="#E0E0E0"/>
<path d="M252.563 63.2945V80.8292H278.413V63.2945H252.563Z" fill="#EBEBEB"/>
<path d="M193.007 53.7007H44.3975V157.215H193.007V53.7007Z" fill="#E6E6E6"/>
<path d="M190.673 57.7957H49.1321V153.319H190.673V57.7957Z" fill="#F0F0F0"/>
<path d="M120.359 53.7007H117.037V157.215H120.359V53.7007Z" fill="#E6E6E6"/>
<path d="M190.673 66.8247L120.359 126.39V108.68L180.423 57.7957H190.673V66.8247Z" fill="#FAFAFA"/>
<path d="M190.673 83.1633L120.359 142.728V136L190.673 76.4268V83.1633Z" fill="#FAFAFA"/>
<path d="M117.037 73.4532L49.1321 130.983V115.068L116.721 57.7957H117.037V73.4532Z" fill="#FAFAFA"/>
<path d="M116.721 91.8435L49.1321 149.108V142.379L116.721 85.1153V91.8435Z" fill="#FAFAFA"/>
<path d="M207.659 309.462C296.606 309.462 368.711 305.252 368.711 300.059C368.711 294.866 296.606 290.656 207.659 290.656C118.713 290.656 46.6071 294.866 46.6071 300.059C46.6071 305.252 118.713 309.462 207.659 309.462Z" fill="#F5F5F5"/>
<path d="M247.031 177.175C271.239 177.175 290.864 154.203 290.864 125.866C290.864 97.5295 271.239 74.558 247.031 74.558C222.823 74.558 203.199 97.5295 203.199 125.866C203.199 154.203 222.823 177.175 247.031 177.175Z" fill="#4A3589"/>
<path opacity="0.2" d="M247.031 177.175C271.239 177.175 290.864 154.203 290.864 125.866C290.864 97.5295 271.239 74.558 247.031 74.558C222.823 74.558 203.199 97.5295 203.199 125.866C203.199 154.203 222.823 177.175 247.031 177.175Z" fill="white"/>
<path d="M247.031 171.51C268.569 171.51 286.03 151.075 286.03 125.866C286.03 100.658 268.569 80.2229 247.031 80.2229C225.493 80.2229 208.033 100.658 208.033 125.866C208.033 151.075 225.493 171.51 247.031 171.51Z" fill="#4A3589"/>
<path opacity="0.3" d="M247.031 171.51C268.569 171.51 286.03 151.075 286.03 125.866C286.03 100.658 268.569 80.2229 247.031 80.2229C225.493 80.2229 208.033 100.658 208.033 125.866C208.033 151.075 225.493 171.51 247.031 171.51Z" fill="white"/>
<path d="M247.031 168.196C267.005 168.196 283.197 149.244 283.197 125.866C283.197 102.489 267.005 83.5372 247.031 83.5372C227.057 83.5372 210.865 102.489 210.865 125.866C210.865 149.244 227.057 168.196 247.031 168.196Z" fill="#E0E0E0"/>
<path d="M280.855 110.857L224.272 158.776C220.555 155.205 217.525 150.982 215.334 146.317L273.479 97.0433C276.744 101.169 279.243 105.848 280.855 110.857Z" fill="#EBEBEB"/>
<path d="M253.153 84.1352L211.256 119.612C211.607 116.819 212.202 114.061 213.033 111.372L245.927 83.5039C248.351 83.4495 250.775 83.6611 253.153 84.1352Z" fill="#EBEBEB"/>
<path d="M278.654 146.408L253.826 167.448C252.05 167.922 250.223 168.173 248.385 168.196L280.938 140.618C280.424 142.637 279.657 144.582 278.654 146.408Z" fill="#EBEBEB"/>
<path d="M177.98 169.957H187.234C188.243 169.957 189.21 170.357 189.924 171.071C190.637 171.784 191.038 172.752 191.038 173.761V186.81H174.184V173.761C174.183 173.262 174.281 172.767 174.471 172.306C174.661 171.844 174.941 171.425 175.293 171.071C175.646 170.718 176.065 170.438 176.526 170.246C176.987 170.055 177.481 169.957 177.98 169.957Z" fill="#4A3589"/>
<path opacity="0.1" d="M177.98 169.957H187.234C188.243 169.957 189.21 170.357 189.924 171.071C190.637 171.784 191.038 172.752 191.038 173.761V175.846H174.184V173.753C174.184 173.254 174.283 172.76 174.473 172.3C174.664 171.839 174.944 171.421 175.296 171.068C175.649 170.716 176.067 170.436 176.528 170.246C176.988 170.055 177.482 169.957 177.98 169.957Z" fill="white"/>
<path d="M193.123 162.672H185.024V186.818H193.123V162.672Z" fill="#4A3589"/>
<path opacity="0.4" d="M193.123 170.613H185.024V186.81H193.123V170.613Z" fill="white"/>
<path d="M212.892 172.714H196.038V186.81H212.892V172.714Z" fill="#4A3589"/>
<path opacity="0.2" d="M212.892 177.532H196.038V186.81H212.892V177.532Z" fill="white"/>
<path d="M251.89 156.999H242.172V186.81H251.89V156.999Z" fill="#4A3589"/>
<path opacity="0.1" d="M251.89 167.232H242.172V186.81H251.89V167.232Z" fill="black"/>
<path d="M261.202 162.672H270.43C271.999 162.672 273.503 163.295 274.612 164.404C275.721 165.513 276.344 167.017 276.344 168.586V186.81H255.28V168.619C255.275 167.839 255.425 167.066 255.721 166.344C256.017 165.622 256.452 164.966 257.003 164.413C257.553 163.86 258.208 163.422 258.928 163.123C259.649 162.824 260.422 162.671 261.202 162.672Z" fill="#4A3589"/>
<path opacity="0.5" d="M276.344 170.987H255.28V168.619C255.282 167.05 255.907 165.546 257.017 164.437C258.128 163.328 259.633 162.705 261.202 162.705H270.43C271.999 162.705 273.503 163.328 274.612 164.437C275.721 165.546 276.344 167.051 276.344 168.619V170.987Z" fill="white"/>
<path opacity="0.3" d="M276.344 170.987H255.28V186.81H276.344V170.987Z" fill="white"/>
<path d="M285.249 186.81H277.474V170.928C277.474 169.897 277.884 168.909 278.613 168.18C279.342 167.451 280.331 167.041 281.362 167.041C282.393 167.041 283.381 167.451 284.11 168.18C284.839 168.909 285.249 169.897 285.249 170.928V186.81Z" fill="#4A3589"/>
<path opacity="0.8" d="M285.249 174.326H277.474V170.928C277.474 170.418 277.575 169.912 277.77 169.441C277.965 168.969 278.252 168.541 278.613 168.18C278.974 167.819 279.402 167.532 279.874 167.337C280.346 167.142 280.851 167.041 281.362 167.041C281.872 167.041 282.378 167.142 282.849 167.337C283.321 167.532 283.749 167.819 284.11 168.18C284.471 168.541 284.758 168.969 284.953 169.441C285.148 169.912 285.249 170.418 285.249 170.928V174.326Z" fill="black"/>
<path opacity="0.5" d="M285.249 174.326H277.474V186.81H285.249V174.326Z" fill="black"/>
<path d="M219.188 180.564H207.227V186.81H219.188V180.564Z" fill="#4A3589"/>
<path opacity="0.4" d="M219.188 180.564H207.227V186.81H219.188V180.564Z" fill="black"/>
<path d="M224.343 185.759L219.051 175.032L216.913 176.087L222.205 186.814L224.343 185.759Z" fill="#4A3589"/>
<path opacity="0.2" d="M224.343 185.759L219.051 175.032L216.913 176.087L222.205 186.814L224.343 185.759Z" fill="black"/>
<path d="M246.948 180.929H230.095V186.802H246.948V180.929Z" fill="#4A3589"/>
<path opacity="0.3" d="M246.948 180.929H230.095V186.802H246.948V180.929Z" fill="white"/>
<path d="M246.595 175.458L254.735 179.858C255.621 180.337 256.28 181.148 256.568 182.112C256.856 183.077 256.749 184.117 256.27 185.002L255.279 186.836L240.459 178.827L241.463 176.971C241.947 176.094 242.757 175.443 243.718 175.16C244.679 174.877 245.713 174.984 246.595 175.458Z" fill="#4A3589"/>
<path opacity="0.5" d="M246.595 175.458L254.735 179.858C255.621 180.337 256.28 181.148 256.568 182.112C256.856 183.077 256.749 184.117 256.27 185.002L255.279 186.836L240.459 178.827L241.463 176.971C241.947 176.094 242.757 175.443 243.718 175.16C244.679 174.877 245.713 174.984 246.595 175.458Z" fill="black"/>
<path d="M295.399 186.81V299.046H233.093V198.481H162.448V299.046H156.533V186.81H295.399Z" fill="#4A3589"/>
<path opacity="0.3" d="M275.223 198.481H233.093V299.046H275.223V198.481Z" fill="white"/>
<path d="M295.391 186.81H156.533V198.472H295.391V186.81Z" fill="#4A3589"/>
<path opacity="0.3" d="M162.448 198.481H156.533V299.046H162.448V198.481Z" fill="white"/>
<path d="M271.336 204.146H234.555V229.588H271.336V204.146Z" fill="#4A3589"/>
<path opacity="0.8" d="M252.945 212.842C254.234 212.842 255.28 211.753 255.28 210.409C255.28 209.064 254.234 207.975 252.945 207.975C251.656 207.975 250.611 209.064 250.611 210.409C250.611 211.753 251.656 212.842 252.945 212.842Z" fill="white"/>
<path opacity="0.5" d="M271.336 204.146H234.555V229.588H271.336V204.146Z" fill="white"/>
<path d="M271.336 231.689H234.555V257.132H271.336V231.689Z" fill="#4A3589"/>
<path opacity="0.8" d="M252.945 240.386C254.234 240.386 255.28 239.297 255.28 237.952C255.28 236.608 254.234 235.519 252.945 235.519C251.656 235.519 250.611 236.608 250.611 237.952C250.611 239.297 251.656 240.386 252.945 240.386Z" fill="white"/>
<path opacity="0.5" d="M271.336 231.689H234.555V257.132H271.336V231.689Z" fill="white"/>
<path d="M271.336 259.242H234.555V284.684H271.336V259.242Z" fill="#4A3589"/>
<path opacity="0.8" d="M252.945 267.93C254.234 267.93 255.28 266.841 255.28 265.496C255.28 264.152 254.234 263.063 252.945 263.063C251.656 263.063 250.611 264.152 250.611 265.496C250.611 266.841 251.656 267.93 252.945 267.93Z" fill="white"/>
<path opacity="0.5" d="M271.336 259.242H234.555V284.684H271.336V259.242Z" fill="white"/>
<path opacity="0.5" d="M275.223 186.81H156.533V198.472H275.223V186.81Z" fill="white"/>
<path opacity="0.2" d="M295.399 198.481H275.223V299.046H295.399V198.481Z" fill="black"/>
<path d="M191.038 299.046V198.414L162.448 198.481V299.046H191.038Z" fill="#4A3589"/>
<path opacity="0.1" d="M191.038 299.046V198.414L162.448 198.481V299.046H191.038Z" fill="black"/>
<path opacity="0.2" d="M295.399 186.81H275.223V198.472H295.399V186.81Z" fill="white"/>
<path opacity="0.3" d="M271.327 284.676H236.707V299.037H271.327V284.676Z" fill="black"/>
<path opacity="0.5" d="M236.715 284.676H234.555V299.037H236.715V284.676Z" fill="black"/>
<path d="M199.087 230.643H122.129V237.13H199.087V230.643Z" fill="#4A3589"/>
<path opacity="0.2" d="M164.117 230.643H122.129V237.13H164.117V230.643Z" fill="black"/>
<path d="M118.54 299.12H124.512L129.721 237.13H123.233L118.54 299.12Z" fill="#4A3589"/>
<path opacity="0.3" d="M118.54 299.12H124.512L129.721 237.13H123.233L118.54 299.12Z" fill="black"/>
<path opacity="0.2" d="M122.868 241.2L123.233 237.13H129.721L129.314 241.2H122.868Z" fill="black"/>
<path d="M156.766 299.12H161.376L162.913 237.13H155.744L156.766 299.12Z" fill="#4A3589"/>
<path opacity="0.5" d="M156.766 299.12H161.376L162.913 237.13H155.744L156.766 299.12Z" fill="black"/>
<path opacity="0.2" d="M155.819 241.2H162.788L162.913 237.13H155.744L155.819 241.2Z" fill="black"/>
<path d="M199.087 299.12L196.188 237.13H187.483L195.333 299.12H199.087Z" fill="#4A3589"/>
<path opacity="0.3" d="M199.087 299.12L196.188 237.13H187.483L195.333 299.12H199.087Z" fill="black"/>
<path opacity="0.2" d="M188.098 241.2H196.421L196.188 237.13H187.483L188.098 241.2Z" fill="black"/>
<path opacity="0.5" d="M199.087 230.643H164.117V237.13H199.087V230.643Z" fill="black"/>
<path d="M126.946 221.597H192.874C194.357 221.707 195.799 222.135 197.101 222.851C198.404 223.568 199.538 224.557 200.424 225.75L202.443 230.676H119.138C119.138 230.676 119.869 221.597 126.946 221.597Z" fill="#4A3589"/>
<path opacity="0.4" d="M126.946 221.597H162.248C163.73 221.708 165.17 222.136 166.471 222.853C167.773 223.57 168.905 224.558 169.79 225.75L171.809 230.676H119.138C119.138 230.676 119.869 221.597 126.946 221.597Z" fill="black"/>
<path d="M186.636 197.367L208.307 279.584L163.037 276.361L173.213 198.912L186.636 197.367Z" fill="#4A3589"/>
<path opacity="0.2" d="M186.636 197.367L208.307 279.584L163.037 276.361L173.213 198.912L186.636 197.367Z" fill="black"/>
<path d="M216.804 269.558L211.339 270.879L208.573 263.337L206.064 256.476L212.286 253.826L214.678 262.149L216.804 269.558Z" fill="#E4897B"/>
<path d="M210.018 270.505C209.885 269.899 217.394 268.595 217.394 268.595C217.394 268.595 223.059 272.125 227.736 272.1C232.412 272.075 230.576 275.323 225.634 276.519L213.407 279.459C209.894 280.307 211.372 276.785 210.018 270.505Z" fill="#2E353A"/>
<path d="M220.85 269.633C220.043 269.611 219.239 269.516 218.449 269.35H218.383L218.333 269.292C218.329 269.279 218.329 269.264 218.333 269.251C218.325 269.224 218.325 269.195 218.333 269.168C218.333 269.076 218.557 267.207 219.454 266.551C219.59 266.449 219.747 266.377 219.913 266.341C220.079 266.305 220.252 266.306 220.418 266.344C220.791 266.427 221.007 266.593 221.057 266.85C221.124 267.249 220.692 267.764 220.168 268.229C220.705 268 221.295 267.925 221.871 268.013C221.98 268.042 222.082 268.094 222.171 268.164C222.259 268.234 222.333 268.321 222.386 268.42C222.471 268.542 222.516 268.687 222.516 268.835C222.516 268.984 222.471 269.129 222.386 269.251C222.17 269.417 221.922 269.537 221.658 269.602C221.393 269.668 221.118 269.679 220.85 269.633ZM219.097 269.06C220.301 269.259 221.755 269.342 222.037 268.977C222.037 268.977 222.129 268.844 221.988 268.57C221.959 268.518 221.92 268.473 221.873 268.437C221.825 268.401 221.771 268.376 221.713 268.362C221.107 268.179 219.886 268.678 219.097 269.06ZM220.11 266.684C219.942 266.684 219.779 266.74 219.645 266.842C219.156 267.362 218.847 268.026 218.765 268.736C219.761 268.055 220.675 267.224 220.617 266.892C220.617 266.784 220.409 266.726 220.293 266.709L220.11 266.684Z" fill="#577AFA"/>
<path d="M170.563 291.113L165.114 289.718L166.16 281.91L167.132 274.75L173.869 275.356L172.116 283.704L170.563 291.113Z" fill="#E4897B"/>
<path d="M216.572 268.744L210.982 269.957C210.982 269.957 186.312 210.433 182.159 210.259C178.005 210.085 135.718 229.521 125.119 218.74C114.52 207.958 129.845 181.992 129.845 181.992C129.845 181.992 155.337 178.354 157.256 184.111C157.728 185.807 158.089 187.533 158.336 189.277C158.627 191.038 158.826 192.517 158.826 192.517C159.615 192.317 185.207 185.714 195.291 192.517C205.583 199.469 216.572 268.744 216.572 268.744Z" fill="#FA8E7B"/>
<path d="M143.459 221.356C143.459 221.356 145.187 221.398 171.925 220.152C171.925 220.152 167.298 265.006 165.114 290.067H170.679C170.679 290.067 192.849 226.382 192.641 217.868C192.434 209.354 182.674 206.862 182.674 206.862C182.674 206.862 163.635 217.868 143.459 221.356Z" fill="#FA8E7B"/>
<path opacity="0.2" d="M143.459 221.356C143.459 221.356 145.187 221.398 171.925 220.152C171.925 220.152 167.298 265.006 165.114 290.067H170.679C170.679 290.067 192.849 226.382 192.641 217.868C192.434 209.354 182.674 206.862 182.674 206.862C182.674 206.862 163.635 217.868 143.459 221.356Z" fill="black"/>
<path d="M129.513 172.988C129.513 172.988 129.297 154.606 124.321 142.346C124.321 142.346 135.826 134.04 162.331 132.727C162.331 132.727 162.414 155.869 158.859 174.816C158.859 174.816 146.898 174.857 129.513 172.988Z" fill="#4A3589"/>
<path d="M130.809 171.817C130.809 171.817 129.297 154.606 124.321 142.346C124.321 142.346 135.826 134.04 162.331 132.727C162.331 132.727 164.823 154.365 157.281 173.545C157.281 173.545 148.194 173.678 130.809 171.817Z" fill="#E4897B"/>
<g opacity="0.7">
<path d="M160.064 173.105C160.213 172.551 160.354 171.978 160.487 171.385C150.395 172.399 136.864 171.942 130.011 171.601C130.061 172.191 130.111 172.756 130.152 173.262C133.899 173.454 139.489 173.669 145.436 173.669C150.345 173.686 155.503 173.537 160.064 173.105Z" fill="white"/>
</g>
<path d="M138.816 137.254C137.944 140.12 144.763 143.791 148.717 143.999C152.671 144.207 153.402 138.326 151.458 136.781C148.617 134.563 139.48 135.07 138.816 137.254Z" fill="#4A3589"/>
<path d="M138.816 138.085C137.944 140.951 144.763 144.622 148.717 144.83C152.671 145.037 153.402 139.157 151.458 137.612C148.617 135.394 139.48 135.9 138.816 138.085Z" fill="#E4897B"/>
<path d="M151.84 136.739L149.772 133.94C146.638 134.276 143.543 134.907 140.527 135.826L139.888 139.414L151.84 136.739Z" fill="#4A3589"/>
<path d="M148.684 140.934C143.052 141.698 140.643 135.809 140.643 135.809C145.503 132.487 142.978 125.069 142.978 125.069L150.785 127.818C150.439 128.907 150.161 130.017 149.955 131.141C149.249 134.879 151.442 135.585 151.442 135.585C151.617 136.117 151.684 136.679 151.64 137.237C151.596 137.796 151.441 138.34 151.184 138.838C150.927 139.335 150.574 139.777 150.145 140.137C149.716 140.497 149.219 140.768 148.684 140.934Z" fill="#E4897B"/>
<path opacity="0.2" d="M149.905 131.922C149.49 133.217 149.905 134.588 149.722 135.527C145.727 134.879 143.443 129.936 143.443 129.936L149.905 131.922Z" fill="black"/>
<path opacity="0.2" d="M140.527 173.545C137.686 173.454 132.769 170.222 129.463 166.393C128.956 161.982 128.209 156.866 127.162 152.065C130.634 155.753 146.142 173.719 140.527 173.545Z" fill="black"/>
<path d="M168.619 213.565C167.717 215.897 167.07 218.32 166.692 220.791C160.554 221.713 152.123 221.68 143.268 221.481L168.619 213.565Z" fill="#263238"/>
<path d="M129.131 181.959C121.489 196.786 117.402 210.201 124.371 219.338C133.4 226.49 151.782 221.157 172.241 212.992L170.928 190.008C166.792 190.189 162.714 191.054 158.859 192.566L158.245 184.26L129.131 181.959Z" fill="#263238"/>
<path d="M163.635 289.46C163.635 288.837 171.261 289.419 171.261 289.419C171.261 289.419 175.879 294.236 180.398 295.358C184.916 296.479 182.358 299.179 177.274 299.12L164.707 298.971C161.144 298.929 163.419 295.881 163.635 289.46Z" fill="#2E353A"/>
<path d="M175.264 291.412C174.155 291.268 173.081 290.927 172.091 290.407C172.066 290.395 172.043 290.378 172.025 290.357V290.316C172.008 290.265 172.008 290.209 172.025 290.158C172.025 290.083 172.714 288.322 173.752 287.899C173.907 287.827 174.076 287.79 174.247 287.79C174.417 287.79 174.586 287.827 174.741 287.899C175.082 288.065 175.248 288.281 175.231 288.546C175.231 288.945 174.658 289.336 174.035 289.66C174.611 289.568 175.201 289.64 175.738 289.867C175.836 289.923 175.923 289.998 175.991 290.088C176.06 290.178 176.109 290.281 176.136 290.39C176.197 290.531 176.211 290.688 176.176 290.837C176.142 290.986 176.061 291.121 175.945 291.221C175.748 291.363 175.507 291.431 175.264 291.412ZM172.772 290.291C173.885 290.781 175.264 291.213 175.638 290.922C175.638 290.922 175.763 290.822 175.688 290.523C175.674 290.466 175.647 290.412 175.61 290.366C175.573 290.32 175.525 290.283 175.472 290.258C174.974 289.934 173.661 290.108 172.814 290.291H172.772ZM174.143 288.214C174.04 288.213 173.939 288.233 173.844 288.272C173.241 288.656 172.778 289.224 172.523 289.892C173.653 289.477 174.749 288.895 174.774 288.555C174.774 288.447 174.608 288.347 174.508 288.297C174.406 288.254 174.296 288.231 174.184 288.231L174.143 288.214Z" fill="#577AFA"/>
<g opacity="0.1">
<path d="M175.264 291.412C174.155 291.268 173.081 290.927 172.091 290.407C172.066 290.395 172.043 290.378 172.025 290.357V290.316C172.008 290.265 172.008 290.209 172.025 290.158C172.025 290.083 172.714 288.322 173.752 287.899C173.907 287.827 174.076 287.79 174.247 287.79C174.417 287.79 174.586 287.827 174.741 287.899C175.082 288.065 175.248 288.281 175.231 288.546C175.231 288.945 174.658 289.336 174.035 289.66C174.611 289.568 175.201 289.64 175.738 289.867C175.836 289.923 175.923 289.998 175.991 290.088C176.06 290.178 176.109 290.281 176.136 290.39C176.197 290.531 176.211 290.688 176.176 290.837C176.142 290.986 176.061 291.121 175.945 291.221C175.748 291.363 175.507 291.431 175.264 291.412ZM172.772 290.291C173.885 290.781 175.264 291.213 175.638 290.922C175.638 290.922 175.763 290.822 175.688 290.523C175.674 290.466 175.647 290.412 175.61 290.366C175.573 290.32 175.525 290.283 175.472 290.258C174.974 289.934 173.661 290.108 172.814 290.291H172.772ZM174.143 288.214C174.04 288.213 173.939 288.233 173.844 288.272C173.241 288.656 172.778 289.224 172.523 289.892C173.653 289.477 174.749 288.895 174.774 288.555C174.774 288.447 174.608 288.347 174.508 288.297C174.406 288.254 174.296 288.231 174.184 288.231L174.143 288.214Z" fill="white"/>
</g>
<path d="M130.011 171.601C122.369 186.436 117.402 210.234 124.371 219.313C133.4 226.465 151.782 221.132 172.241 212.967L170.928 189.983C166.792 190.164 162.714 191.029 158.859 192.542V173.545L130.011 171.601Z" fill="#4A3589"/>
<path opacity="0.3" d="M158.859 192.542L143.949 195.648C143.949 195.648 152.438 191.096 158.627 189.302C158.834 191.196 158.859 192.542 158.859 192.542Z" fill="black"/>
<path d="M170.928 189.983C170.928 189.983 175.646 188.588 178.903 197.866C182.159 207.144 195.839 287.807 195.839 287.807C179.418 286.802 166.534 283.986 163.037 276.361L166.659 220.791C158.88 221.615 151.049 221.845 143.235 221.481L170.928 189.983Z" fill="#4A3589"/>
<path opacity="0.3" d="M168.619 213.565C167.717 215.897 167.07 218.32 166.692 220.791C160.554 221.713 152.123 221.68 143.268 221.481L168.619 213.565Z" fill="black"/>
<path d="M129.131 181.959V179.052L158.859 180.879L158.245 184.202L129.131 181.959Z" fill="#4A3589"/>
<path opacity="0.1" d="M128.034 175.779L129.505 172.606L158.859 174.816V178.163L128.034 175.779Z" fill="white"/>
<path d="M178.371 131.241L176.552 126.257C176.552 126.257 174.89 125.243 174.675 124.371C174.459 123.499 174.849 118.183 175.505 117.784C176.161 117.386 180.182 118.249 180.489 119.338C180.796 120.426 179.841 124.986 179.575 125.376L181.61 130.36L178.371 131.241Z" fill="#E4897B"/>
<path d="M161.567 134.297L181.361 141.133L176.552 126.257L179.55 125.376C179.55 125.376 188.895 144.298 187.093 147.455C185.29 150.611 160.155 141.233 160.155 141.233L161.567 134.297Z" fill="#E4897B"/>
<path d="M180.622 126.514L175.04 128.051L180.854 140.56L162.315 132.727L158.328 137.097L159.698 144.464C159.698 144.464 185.323 151.442 187.682 148.136C190.041 144.83 180.622 126.514 180.622 126.514Z" fill="#4A3589"/>
<path d="M175.397 119.612V115.076H174.675C174.147 115.178 173.672 115.46 173.33 115.873C172.988 116.287 172.801 116.807 172.801 117.344C172.801 117.881 172.988 118.401 173.33 118.815C173.672 119.228 174.147 119.51 174.675 119.612H175.397Z" fill="#4A3589"/>
<path d="M177.673 117.311C177.675 117.761 177.543 118.202 177.294 118.577C177.045 118.953 176.69 119.246 176.274 119.419C175.858 119.593 175.4 119.639 174.958 119.552C174.516 119.465 174.11 119.249 173.791 118.931C173.472 118.613 173.254 118.208 173.166 117.766C173.077 117.324 173.122 116.866 173.294 116.45C173.466 116.034 173.758 115.678 174.132 115.427C174.506 115.177 174.947 115.043 175.397 115.043C175.999 115.043 176.577 115.282 177.004 115.707C177.43 116.132 177.671 116.709 177.673 117.311Z" fill="#4A3589"/>
<path opacity="0.7" d="M177.673 117.311C177.675 117.761 177.543 118.202 177.294 118.577C177.045 118.953 176.69 119.246 176.274 119.419C175.858 119.593 175.4 119.639 174.958 119.552C174.516 119.465 174.11 119.249 173.791 118.931C173.472 118.613 173.254 118.208 173.166 117.766C173.077 117.324 173.122 116.866 173.294 116.45C173.466 116.034 173.758 115.678 174.132 115.427C174.506 115.177 174.947 115.043 175.397 115.043C175.999 115.043 176.577 115.282 177.004 115.707C177.43 116.132 177.671 116.709 177.673 117.311Z" fill="white"/>
<path d="M174.434 117.685C174.431 117.816 174.457 117.946 174.508 118.067C174.583 118.166 174.816 118.166 174.816 118.166C174.79 118.066 174.754 117.969 174.708 117.876C174.644 117.78 174.546 117.711 174.434 117.685Z" fill="white"/>
<path d="M174.824 118.241C174.821 118.372 174.846 118.503 174.899 118.623C174.974 118.723 175.206 118.723 175.206 118.723C175.18 118.625 175.143 118.531 175.098 118.44C175.034 118.343 174.937 118.272 174.824 118.241Z" fill="white"/>
<path d="M174.01 117.12C174.007 117.251 174.032 117.381 174.085 117.502C174.16 117.61 174.392 117.61 174.392 117.61C174.366 117.509 174.33 117.412 174.284 117.319C174.22 117.222 174.123 117.151 174.01 117.12Z" fill="white"/>
<path d="M174.434 117.12C174.43 117.251 174.456 117.381 174.508 117.502C174.583 117.61 174.816 117.61 174.816 117.61C174.79 117.509 174.754 117.412 174.708 117.319C174.644 117.222 174.546 117.151 174.434 117.12Z" fill="white"/>
<path d="M174.899 117.759C174.896 117.891 174.922 118.021 174.974 118.141C175.048 118.241 175.281 118.241 175.281 118.241C175.255 118.141 175.219 118.043 175.173 117.95C175.109 117.854 175.011 117.786 174.899 117.759Z" fill="white"/>
<path d="M176.568 117.635C176.572 117.754 176.549 117.873 176.502 117.984C176.436 118.075 176.22 118.075 176.22 118.075C176.241 117.982 176.275 117.893 176.319 117.809C176.378 117.723 176.467 117.661 176.568 117.635Z" fill="white"/>
<path d="M176.17 118.15C176.173 118.269 176.15 118.388 176.103 118.499C176.037 118.59 175.821 118.59 175.821 118.59C175.842 118.497 175.876 118.408 175.92 118.324C175.98 118.238 176.068 118.176 176.17 118.15Z" fill="white"/>
<path d="M176.926 117.12C176.929 117.24 176.903 117.36 176.851 117.469C176.784 117.56 176.568 117.56 176.568 117.56C176.595 117.468 176.631 117.379 176.676 117.294C176.734 117.206 176.823 117.143 176.926 117.12Z" fill="white"/>
<path d="M176.527 117.12C176.53 117.24 176.504 117.36 176.452 117.469C176.386 117.56 176.17 117.56 176.17 117.56C176.197 117.468 176.233 117.379 176.278 117.294C176.335 117.206 176.424 117.143 176.527 117.12Z" fill="white"/>
<path d="M176.095 117.701C176.098 117.821 176.076 117.94 176.029 118.05C175.954 118.15 175.738 118.15 175.738 118.15C175.763 118.057 175.799 117.968 175.846 117.884C175.902 117.793 175.991 117.728 176.095 117.701Z" fill="white"/>
<path d="M175.173 116.397C175.264 116.326 175.369 116.276 175.48 116.248C175.597 116.248 175.721 116.405 175.721 116.405C175.637 116.445 175.547 116.473 175.455 116.488C175.353 116.496 175.251 116.464 175.173 116.397Z" fill="white"/>
<path d="M175.804 116.405C175.893 116.349 175.992 116.309 176.095 116.289C176.211 116.289 176.336 116.447 176.336 116.447C176.252 116.486 176.162 116.511 176.07 116.522C175.97 116.518 175.875 116.476 175.804 116.405Z" fill="white"/>
<path d="M174.567 116.43C174.66 116.357 174.767 116.303 174.882 116.272C174.99 116.272 175.123 116.439 175.123 116.439C175.037 116.472 174.948 116.497 174.857 116.513C174.753 116.522 174.65 116.492 174.567 116.43Z" fill="white"/>
<path d="M174.799 116.738C174.893 116.664 175 116.611 175.115 116.58C175.231 116.58 175.356 116.746 175.356 116.746C175.27 116.78 175.181 116.805 175.09 116.821C174.986 116.829 174.883 116.799 174.799 116.738Z" fill="white"/>
<path d="M175.497 116.721C175.591 116.648 175.698 116.594 175.813 116.563C175.921 116.563 176.053 116.729 176.053 116.729C175.967 116.762 175.878 116.787 175.788 116.804C175.684 116.812 175.581 116.783 175.497 116.721Z" fill="white"/>
<path d="M149.963 133.948C154.019 133.027 158.174 132.617 162.331 132.727C163.594 147.421 161.825 160.587 158.909 173.894L139.555 173.545C145.129 157.896 154.698 139.464 149.963 133.948Z" fill="#4A3589"/>
<path opacity="0.1" d="M149.963 133.948C154.019 133.027 158.174 132.617 162.331 132.727C163.594 147.421 161.775 160.969 158.859 174.259L139.547 173.545C139.481 71.4347 154.673 139.032 149.963 133.948Z" fill="black"/>
<path d="M140.602 135.809C151.234 150.761 160.006 167.481 160.006 169.309C160.006 171.136 160.487 172.831 158.909 173.894C157.331 174.957 131.44 173.719 130.011 171.601C128.583 169.483 127.602 155.445 124.321 142.346C127.918 138.766 134.97 137.005 140.602 135.809Z" fill="#4A3589"/>
<path d="M124.903 143.775L126.564 156.965C126.564 156.965 142.645 174.085 144.539 173.387C146.433 172.689 166.136 162.589 166.136 162.589L164.474 159.657L145.702 166.028L124.903 143.775Z" fill="#E4897B"/>
<path d="M159.557 161.974L164.541 159.657C164.541 159.657 165.197 157.663 166.053 157.231C166.908 156.799 172.59 155.902 173.155 156.45C173.719 156.999 173.802 161.434 172.748 162.074C171.693 162.713 166.667 162.763 166.194 162.589L160.437 165.297L159.557 161.974Z" fill="#E4897B"/>
<path d="M161.326 160.097L145.544 165.28C145.544 165.28 125.659 140.901 124.122 142.338C122.585 143.775 122.718 148.219 123.042 151.533C123.366 154.847 141.441 175.032 144.365 173.694C147.288 172.357 163.37 167.548 163.37 167.548L161.326 160.097Z" fill="#4A3589"/>
<path opacity="0.2" d="M161.326 160.097L145.544 165.28C145.544 165.28 125.659 140.901 124.122 142.338C122.585 143.775 122.718 148.219 123.042 151.533C123.366 154.847 141.441 175.032 144.365 173.694C147.288 172.357 163.37 167.548 163.37 167.548L161.326 160.097Z" fill="white"/>
<path d="M150.495 108.34C157.555 108.946 159.499 112.917 159.391 120.235C159.258 129.372 156.683 135.66 148.036 132.96C136.283 129.297 138.783 107.335 150.495 108.34Z" fill="#E4897B"/>
<path d="M154.864 119.446C155.34 120.549 155.945 121.591 156.666 122.552C156.434 122.824 156.132 123.028 155.792 123.141C155.452 123.254 155.088 123.271 154.739 123.192L154.864 119.446Z" fill="#DE5753"/>
<path d="M150.594 118.499C150.594 119.08 150.212 119.529 149.83 119.512C149.448 119.495 149.157 118.997 149.191 118.416C149.224 117.834 149.573 117.377 149.963 117.402C150.354 117.427 150.636 117.95 150.594 118.499Z" fill="#2E353A"/>
<path d="M149.797 117.427L151.093 117.003C151.093 117.003 150.395 118.033 149.797 117.427Z" fill="#2E353A"/>
<path d="M157.821 118.831C157.821 119.412 157.439 119.861 157.057 119.836C156.675 119.811 156.384 119.321 156.417 118.739C156.45 118.158 156.799 117.709 157.19 117.734C157.58 117.759 157.821 118.249 157.821 118.831Z" fill="#2E353A"/>
<path d="M156.99 117.751L158.286 117.336C158.286 117.336 157.622 118.357 156.99 117.751Z" fill="#2E353A"/>
<path d="M147.795 114.728C147.715 114.729 147.638 114.699 147.579 114.644C147.551 114.617 147.529 114.584 147.514 114.547C147.499 114.511 147.491 114.472 147.491 114.433C147.491 114.393 147.499 114.354 147.514 114.318C147.529 114.282 147.551 114.249 147.579 114.221C148.041 113.814 148.593 113.522 149.189 113.368C149.784 113.213 150.408 113.201 151.01 113.332C151.082 113.354 151.143 113.403 151.181 113.468C151.219 113.534 151.23 113.611 151.213 113.685C151.196 113.758 151.152 113.823 151.09 113.865C151.028 113.908 150.951 113.925 150.877 113.913C150.376 113.811 149.858 113.823 149.361 113.948C148.865 114.073 148.404 114.308 148.011 114.636C147.954 114.693 147.876 114.726 147.795 114.728Z" fill="#2E353A"/>
<path d="M158.859 114.885C158.79 114.888 158.722 114.864 158.668 114.819C158.336 114.513 157.94 114.286 157.509 114.154C157.078 114.021 156.622 113.988 156.176 114.055C156.099 114.076 156.017 114.065 155.948 114.025C155.878 113.986 155.828 113.92 155.807 113.843C155.786 113.766 155.796 113.684 155.836 113.614C155.876 113.545 155.941 113.494 156.018 113.473C156.558 113.378 157.111 113.409 157.637 113.561C158.162 113.714 158.646 113.985 159.05 114.354C159.081 114.379 159.107 114.409 159.125 114.444C159.144 114.479 159.156 114.517 159.16 114.557C159.163 114.596 159.159 114.636 159.148 114.674C159.136 114.712 159.117 114.747 159.092 114.777C159.064 114.812 159.029 114.84 158.989 114.859C158.948 114.878 158.904 114.887 158.859 114.885Z" fill="#2E353A"/>
<path d="M153.468 125.875C153.066 126.643 152.722 127.439 152.438 128.259L151.99 128.175C149.947 127.793 149.133 126.938 148.842 126.116C148.707 125.709 148.676 125.275 148.75 124.853C148.782 124.613 148.846 124.378 148.941 124.155C150.092 124.952 151.401 125.491 152.779 125.733C153.203 125.833 153.468 125.875 153.468 125.875Z" fill="#2E353A"/>
<path d="M152.779 125.733L152.455 126.431C150.536 126.066 149.24 125.542 148.75 124.853C148.782 124.613 148.846 124.378 148.941 124.155C150.092 124.952 151.401 125.491 152.779 125.733Z" fill="white"/>
<path d="M152.007 128.175C149.963 127.793 149.149 126.938 148.858 126.116C149.627 126.262 150.364 126.543 151.035 126.946C151.482 127.241 151.823 127.672 152.007 128.175Z" fill="#DE5753"/>
<path d="M141.765 119.612C141.765 119.612 145.561 114.096 145.444 109.578C145.444 109.578 159.922 105.076 159.391 119.321C159.391 119.321 161.883 106.861 149.739 105.516C137.595 104.17 136.158 121.937 141.964 127.76C141.964 127.719 139.414 123.017 141.765 119.612Z" fill="#2E353A"/>
<path d="M142.786 121.157C142.789 120.75 142.711 120.346 142.557 119.97C142.403 119.593 142.177 119.25 141.891 118.961C141.605 118.672 141.264 118.442 140.889 118.284C140.514 118.126 140.112 118.044 139.705 118.042C137.495 118.092 136.067 122.494 141.416 124.039C142.18 124.263 142.687 123.532 142.786 121.157Z" fill="#E4897B"/>
<path d="M158.901 116.04L158.319 119.836C158.262 120.168 158.122 120.48 157.913 120.744C157.704 121.008 157.433 121.215 157.123 121.348C156.135 121.63 155.263 118.656 155.022 117.942C154.849 117.226 154.755 116.494 154.739 115.757C154.738 114.907 154.89 114.063 155.188 113.266C155.626 112.644 156.281 112.209 157.023 112.045L153.194 109.378L148.842 111.521C148.842 111.521 151.799 112.593 152.264 113.266C152.721 114.016 152.963 114.878 152.962 115.757L152.779 118.457C152.779 118.457 152.264 121.057 150.445 121.373C148.626 121.688 147.695 118.955 147.488 118.457C147.385 117.702 147.385 116.936 147.488 116.181L148.526 114.728H146.142L143.11 117.734L142.545 125.85C142.491 126.535 142.575 127.224 142.792 127.876C143.009 128.528 143.354 129.13 143.808 129.646C145.303 131.124 150.453 133.375 150.453 133.375H152.006C153.198 133.334 154.344 132.906 155.271 132.154C156.675 130.942 158.336 127.486 158.336 127.486L159.167 122.344V116.081L158.901 116.04ZM152.497 130.161C151.842 130.099 151.202 129.931 150.603 129.662C150.603 129.662 148.293 128.084 148.061 126.132C147.828 124.18 147.546 123.989 148.717 123.64C149.888 123.291 155.038 125.302 155.263 125.883C155.487 126.464 155.869 126.556 155.304 127.428C154.739 128.3 153.277 130.144 152.497 130.144V130.161ZM155.213 123.765C154.942 123.744 154.682 123.65 154.459 123.494C154.237 123.337 154.061 123.124 153.95 122.876C153.668 122.452 154.739 118.806 154.739 118.806C154.739 118.806 157.023 122.452 157.023 123.017C157.023 123.582 155.861 123.765 155.213 123.765Z" fill="#263238"/>
<path opacity="0.2" d="M158.901 116.04L158.319 119.836C158.262 120.168 158.122 120.48 157.913 120.744C157.704 121.008 157.433 121.215 157.123 121.348C156.135 121.63 155.263 118.656 155.022 117.942C154.849 117.226 154.755 116.494 154.739 115.757C154.738 114.907 154.89 114.063 155.188 113.266C155.626 112.644 156.281 112.209 157.023 112.045L153.194 109.378L148.842 111.521C148.842 111.521 151.799 112.593 152.264 113.266C152.721 114.016 152.963 114.878 152.962 115.757L152.779 118.457C152.779 118.457 152.264 121.057 150.445 121.373C148.626 121.688 147.695 118.955 147.488 118.457C147.385 117.702 147.385 116.936 147.488 116.181L148.526 114.728H146.142L143.11 117.734L142.545 125.85C142.491 126.535 142.575 127.224 142.792 127.876C143.009 128.528 143.354 129.13 143.808 129.646C145.303 131.124 150.453 133.375 150.453 133.375H152.006C153.198 133.334 154.344 132.906 155.271 132.154C156.675 130.942 158.336 127.486 158.336 127.486L159.167 122.344V116.081L158.901 116.04ZM152.497 130.161C151.842 130.099 151.202 129.931 150.603 129.662C150.603 129.662 148.293 128.084 148.061 126.132C147.828 124.18 147.546 123.989 148.717 123.64C149.888 123.291 155.038 125.302 155.263 125.883C155.487 126.464 155.869 126.556 155.304 127.428C154.739 128.3 153.277 130.144 152.497 130.144V130.161ZM155.213 123.765C154.942 123.744 154.682 123.65 154.459 123.494C154.237 123.337 154.061 123.124 153.95 122.876C153.668 122.452 154.739 118.806 154.739 118.806C154.739 118.806 157.023 122.452 157.023 123.017C157.023 123.582 155.861 123.765 155.213 123.765Z" fill="white"/>
<path d="M153.319 109.843C153.319 109.843 145.843 120.226 138.567 119.446C131.29 118.665 143.816 104.943 143.816 104.943C143.816 104.943 156.135 101.471 161.476 108.265C166.817 115.06 158.785 119.238 158.785 119.238C158.785 119.238 158.718 112.136 153.319 109.843Z" fill="#2E353A"/>
<path d="M149.971 120.783L149.922 116.239H149.199C148.674 116.345 148.202 116.629 147.864 117.043C147.525 117.457 147.339 117.976 147.339 118.511C147.339 119.046 147.525 119.565 147.864 119.979C148.202 120.393 148.674 120.677 149.199 120.783H149.971Z" fill="#4A3589"/>
<path d="M152.239 118.515C152.239 118.966 152.105 119.406 151.855 119.781C151.605 120.155 151.249 120.447 150.832 120.619C150.416 120.791 149.958 120.835 149.516 120.747C149.074 120.658 148.669 120.441 148.351 120.122C148.033 119.802 147.817 119.396 147.73 118.954C147.643 118.512 147.689 118.054 147.863 117.638C148.036 117.223 148.329 116.868 148.705 116.619C149.08 116.37 149.521 116.238 149.972 116.239C150.27 116.239 150.566 116.298 150.841 116.413C151.117 116.527 151.367 116.695 151.578 116.906C151.789 117.118 151.955 117.369 152.069 117.645C152.182 117.921 152.24 118.217 152.239 118.515Z" fill="#4A3589"/>
<path opacity="0.7" d="M152.239 118.515C152.239 118.966 152.105 119.406 151.855 119.781C151.605 120.155 151.249 120.447 150.832 120.619C150.416 120.791 149.958 120.835 149.516 120.747C149.074 120.658 148.669 120.441 148.351 120.122C148.033 119.802 147.817 119.396 147.73 118.954C147.643 118.512 147.689 118.054 147.863 117.638C148.036 117.223 148.329 116.868 148.705 116.619C149.08 116.37 149.521 116.238 149.972 116.239C150.27 116.239 150.566 116.298 150.841 116.413C151.117 116.527 151.367 116.695 151.578 116.906C151.789 117.118 151.955 117.369 152.069 117.645C152.182 117.921 152.24 118.217 152.239 118.515Z" fill="white"/>
<path d="M148.958 118.881C148.955 119.012 148.98 119.142 149.033 119.263C149.108 119.371 149.34 119.371 149.34 119.371C149.314 119.27 149.278 119.173 149.232 119.08C149.168 118.983 149.071 118.912 148.958 118.881Z" fill="white"/>
<path d="M149.398 119.446C149.396 119.577 149.421 119.707 149.473 119.828C149.548 119.927 149.78 119.927 149.78 119.927C149.754 119.826 149.715 119.728 149.664 119.637C149.635 119.589 149.596 119.547 149.55 119.514C149.505 119.482 149.453 119.458 149.398 119.446Z" fill="white"/>
<path d="M148.576 118.324C148.573 118.455 148.599 118.586 148.651 118.706C148.726 118.806 148.958 118.806 148.958 118.806C148.932 118.706 148.896 118.608 148.85 118.515C148.786 118.419 148.688 118.351 148.576 118.324Z" fill="white"/>
<path d="M149.008 118.324C149.005 118.455 149.031 118.586 149.083 118.706C149.157 118.806 149.398 118.806 149.398 118.806C149.372 118.705 149.333 118.607 149.282 118.515C149.251 118.467 149.211 118.425 149.164 118.392C149.117 118.359 149.064 118.336 149.008 118.324Z" fill="white"/>
<path d="M149.515 118.955C149.511 119.087 149.537 119.217 149.589 119.338C149.664 119.446 149.897 119.446 149.897 119.446C149.87 119.344 149.831 119.247 149.78 119.155C149.72 119.057 149.625 118.986 149.515 118.955Z" fill="white"/>
<path d="M151.176 118.831C151.178 118.953 151.156 119.075 151.109 119.188C151.043 119.279 150.827 119.279 150.827 119.279C150.852 119.187 150.889 119.098 150.935 119.014C150.961 118.969 150.996 118.929 151.037 118.898C151.078 118.867 151.126 118.844 151.176 118.831Z" fill="white"/>
<path d="M150.736 119.346C150.738 119.468 150.715 119.59 150.669 119.703C150.603 119.794 150.387 119.794 150.387 119.794C150.411 119.703 150.445 119.614 150.486 119.529C150.543 119.438 150.632 119.372 150.736 119.346Z" fill="white"/>
<path d="M151.491 118.316C151.494 118.438 151.471 118.56 151.425 118.673C151.35 118.764 151.134 118.764 151.134 118.764C151.16 118.672 151.196 118.583 151.242 118.499C151.299 118.408 151.388 118.342 151.491 118.316Z" fill="white"/>
<path d="M151.093 118.316C151.095 118.438 151.073 118.56 151.026 118.673C150.952 118.764 150.736 118.764 150.736 118.764C150.761 118.672 150.797 118.583 150.844 118.499C150.9 118.408 150.989 118.342 151.093 118.316Z" fill="white"/>
<path d="M150.669 118.897C150.672 119.02 150.649 119.141 150.603 119.254C150.536 119.346 150.32 119.346 150.32 119.346C150.342 119.253 150.375 119.164 150.42 119.08C150.48 118.993 150.568 118.928 150.669 118.897Z" fill="white"/>
<path d="M149.739 117.602C149.832 117.528 149.94 117.475 150.055 117.444C150.163 117.444 150.287 117.61 150.287 117.61C150.201 117.644 150.112 117.669 150.021 117.685C149.92 117.692 149.82 117.663 149.739 117.602Z" fill="white"/>
<path d="M150.345 117.61C150.437 117.534 150.545 117.48 150.661 117.452C150.769 117.452 150.893 117.618 150.893 117.618C150.808 117.653 150.719 117.678 150.628 117.693C150.527 117.701 150.426 117.671 150.345 117.61Z" fill="white"/>
<path d="M149.132 117.626C149.226 117.555 149.333 117.504 149.448 117.477C149.564 117.477 149.689 117.643 149.689 117.643C149.603 117.677 149.514 117.702 149.423 117.718C149.318 117.725 149.214 117.693 149.132 117.626Z" fill="white"/>
<path d="M149.373 117.95C149.464 117.88 149.569 117.829 149.681 117.801C149.797 117.801 149.922 117.967 149.922 117.967C149.836 118.001 149.747 118.026 149.656 118.042C149.553 118.05 149.452 118.017 149.373 117.95Z" fill="white"/>
<path d="M150.063 117.95C150.156 117.879 150.264 117.828 150.378 117.801C150.495 117.801 150.619 117.967 150.619 117.967C150.534 118.001 150.445 118.026 150.354 118.042C150.249 118.049 150.145 118.017 150.063 117.95Z" fill="white"/>
<path d="M141.615 96.1794C141.615 96.1794 137.786 93.9367 134.796 95.1494C131.805 96.3621 128.657 103.655 128.907 107.393C129.156 111.131 129.463 111.322 128.907 114.869C128.35 118.416 124.886 121.954 124.886 121.954L134.422 117.386L141.615 96.1794Z" fill="#4A3589"/>
<path opacity="0.2" d="M141.615 96.1794C141.615 96.1794 137.786 93.9367 134.796 95.1494C131.805 96.3621 128.657 103.655 128.907 107.393C129.156 111.131 129.463 111.322 128.907 114.869C128.35 118.416 124.886 121.954 124.886 121.954L134.422 117.386L141.615 96.1794Z" fill="white"/>
<path d="M140.378 104.062C140.378 104.062 136.548 102.401 135.718 101.097C134.887 99.7927 136.947 97.7742 137.819 96.8688C138.78 95.5995 140.099 94.6476 141.607 94.136C144.273 93.0064 147.114 92.9981 148.136 93.3054C148.987 93.463 149.791 93.8119 150.487 94.3255C151.183 94.8392 151.754 95.5044 152.156 96.2708C152.545 96.9008 152.802 97.6037 152.911 98.3363C153.019 99.069 152.977 99.8161 152.787 100.532L140.378 104.062Z" fill="#4A3589"/>
<path opacity="0.4" d="M140.378 104.062C140.378 104.062 136.548 102.401 135.718 101.097C134.887 99.7927 136.947 97.7742 137.819 96.8688C138.78 95.5995 140.099 94.6476 141.607 94.136C144.273 93.0064 147.114 92.9981 148.136 93.3054C148.987 93.463 149.791 93.8119 150.487 94.3255C151.183 94.8392 151.754 95.5044 152.156 96.2708C152.545 96.9008 152.802 97.6037 152.911 98.3363C153.019 99.069 152.977 99.8161 152.787 100.532L140.378 104.062Z" fill="white"/>
<path d="M153.468 109.262C153.468 109.262 144.805 112.452 142.795 114.727C140.785 117.003 140.378 125.484 140.378 125.484L141.972 127.719C141.972 127.719 133.732 127.345 132.437 125.293C131.141 123.241 130.501 114.055 131.34 109.727C132.179 105.399 137.852 101.022 141.059 99.5434C144.265 98.0649 155.761 97.6828 157.671 98.1397C159.582 98.5965 160.994 100.632 161.825 102.351C162.655 104.07 161.359 108.307 161.359 108.307L153.468 109.262Z" fill="#4A3589"/>
<path opacity="0.3" d="M153.468 109.262C153.468 109.262 144.805 112.452 142.795 114.727C140.785 117.003 140.378 125.484 140.378 125.484L141.972 127.719C141.972 127.719 133.732 127.345 132.437 125.293C131.141 123.241 130.501 114.055 131.34 109.727C132.179 105.399 137.852 101.022 141.059 99.5434C144.265 98.0649 155.761 97.6828 157.671 98.1397C159.582 98.5965 160.994 100.632 161.825 102.351C162.655 104.07 161.359 108.307 161.359 108.307L153.468 109.262Z" fill="white"/>
<path d="M153.468 109.262C153.468 109.262 157.813 112.219 158.901 113.988C159.989 115.758 159.391 119.279 159.391 119.279V123.242C159.391 123.242 163.76 119.919 165.072 118.789C166.385 117.66 166.443 112.792 165.571 110.325C164.699 107.858 161.335 108.307 161.335 108.307L153.468 109.262Z" fill="#4A3589"/>
<path opacity="0.2" d="M153.468 109.262C153.468 109.262 157.813 112.219 158.901 113.988C159.989 115.758 159.391 119.279 159.391 119.279V123.242C159.391 123.242 163.76 119.919 165.072 118.789C166.385 117.66 166.443 112.792 165.571 110.325C164.699 107.858 161.335 108.307 161.335 108.307L153.468 109.262Z" fill="white"/>
<path d="M320.626 278.529C320.796 278.17 320.879 277.774 320.865 277.377C320.852 276.979 320.744 276.59 320.549 276.243C320.355 275.896 320.08 275.6 319.748 275.381C319.416 275.161 319.036 275.025 318.64 274.982C318.989 273.959 319.017 272.854 318.721 271.815C318.424 270.775 317.816 269.852 316.979 269.168C316.778 268.982 316.521 268.869 316.248 268.844C315.959 268.876 315.687 268.995 315.467 269.184L310.841 272.507C310.466 272.731 310.15 273.042 309.919 273.412C308.972 275.248 312.411 277.565 310.982 279.11C310.575 279.542 309.927 279.634 309.429 279.941C308.324 280.631 308.191 282.142 307.676 283.338C307.161 284.535 305.375 285.457 304.686 284.352C305.192 283.205 303.664 282.217 302.418 282.076C301.172 281.935 299.876 281.86 299.195 280.697C297.426 282.234 293.48 277.931 293.572 276.203C292.118 276.311 291.13 277.665 290.814 279.027C290.61 280.458 290.56 281.906 290.665 283.347C290.623 286.154 289.718 288.912 289.759 291.72C289.801 293.904 290.648 296.33 292.65 297.21C293.642 297.565 294.698 297.707 295.748 297.625L318.532 297.476C319.081 297.519 319.631 297.428 320.136 297.21C321.166 296.678 321.382 295.324 321.473 294.17C321.888 289.219 322.298 284.269 322.702 279.318L320.626 278.529Z" fill="#4A3589"/>
<path opacity="0.3" d="M320.626 278.529C320.796 278.17 320.879 277.774 320.865 277.377C320.852 276.979 320.744 276.59 320.549 276.243C320.355 275.896 320.08 275.6 319.748 275.381C319.416 275.161 319.036 275.025 318.64 274.982C318.989 273.959 319.017 272.854 318.721 271.815C318.424 270.775 317.816 269.852 316.979 269.168C316.778 268.982 316.521 268.869 316.248 268.844C315.959 268.876 315.687 268.995 315.467 269.184L310.841 272.507C310.466 272.731 310.15 273.042 309.919 273.412C308.972 275.248 312.411 277.565 310.982 279.11C310.575 279.542 309.927 279.634 309.429 279.941C308.324 280.631 308.191 282.142 307.676 283.338C307.161 284.535 305.375 285.457 304.686 284.352C305.192 283.205 303.664 282.217 302.418 282.076C301.172 281.935 299.876 281.86 299.195 280.697C297.426 282.234 293.48 277.931 293.572 276.203C292.118 276.311 291.13 277.665 290.814 279.027C290.61 280.458 290.56 281.906 290.665 283.347C290.623 286.154 289.718 288.912 289.759 291.72C289.801 293.904 290.648 296.33 292.65 297.21C293.642 297.565 294.698 297.707 295.748 297.625L318.532 297.476C319.081 297.519 319.631 297.428 320.136 297.21C321.166 296.678 321.382 295.324 321.473 294.17C321.888 289.219 322.298 284.269 322.702 279.318L320.626 278.529Z" fill="white"/>
<path d="M321.938 254.449H286.569L286.86 258.021L287.068 260.571L287.608 267.216L287.915 271.028L288.322 276.104L288.497 278.28L288.555 278.928L288.762 281.486L289.045 284.991L289.219 287.168L289.402 289.377L289.61 291.935L289.767 293.871L289.942 296.047L290.017 296.994H322.461L322.536 296.047L322.71 293.879L322.868 291.927L323.076 289.369L323.259 287.168L323.433 284.991L323.716 281.478L323.923 278.928L323.973 278.28L324.147 276.104L324.563 271.028L324.87 267.224L325.402 260.579L325.609 258.029L325.9 254.457L321.938 254.449ZM324.064 256.791L323.383 256.11H324.123L324.064 256.791ZM323.89 258.959L323.824 259.79L320.626 262.988L316.996 259.358L320.243 256.11H321.008L323.89 258.959ZM322.976 270.272L320.626 272.59L316.996 268.96L320.626 265.339L323.117 267.83L322.976 270.272ZM289.335 267.847L291.827 265.355L295.457 268.977L291.827 272.607L289.518 270.289L289.335 267.847ZM319.488 264.159L315.858 267.789L312.228 264.142L315.858 260.513L319.488 264.159ZM313.781 256.11H317.934L315.858 258.187L313.781 256.11ZM314.678 268.96L311.057 272.59L307.427 268.96L311.057 265.339L314.678 268.96ZM302.626 273.761L306.256 270.14L309.877 273.761L306.256 277.433L302.626 273.761ZM305.076 278.562L301.446 282.192L297.825 278.571L301.454 274.941L305.076 278.562ZM311.057 274.941L314.678 278.571L311.057 282.192L307.427 278.562L311.057 274.941ZM306.256 267.789L302.626 264.142L306.256 260.513L309.877 264.142L306.256 267.789ZM305.076 268.96L301.454 272.59L297.825 268.96L301.454 265.339L305.076 268.96ZM296.645 267.789L293.023 264.142L296.645 260.513L300.275 264.142L296.645 267.789ZM296.645 270.14L300.275 273.761L296.645 277.433L293.023 273.803L296.645 270.14ZM300.275 283.372L296.645 286.993L293.023 283.372L296.645 279.742L300.275 283.372ZM301.446 284.543L305.076 288.173L301.454 291.803L297.825 288.173L301.446 284.543ZM302.626 283.372L306.256 279.742L309.877 283.372L306.256 286.993L302.626 283.372ZM311.057 284.543L314.678 288.173L311.057 291.803L307.427 288.173L311.057 284.543ZM315.858 289.344L319.488 292.974L317.137 295.324H314.579L312.228 292.974L315.858 289.344ZM312.228 283.372L315.858 279.742L319.488 283.372L315.858 286.993L312.228 283.372ZM312.228 273.761L315.858 270.14L319.488 273.761L315.858 277.433L312.228 273.761ZM314.678 259.358L311.057 262.988L307.427 259.358L310.675 256.11H311.439L314.678 259.358ZM306.256 258.187L304.179 256.11H308.332L306.256 258.187ZM305.076 259.358L301.454 262.988L297.825 259.358L301.072 256.11H301.837L305.076 259.358ZM298.722 256.11L296.645 258.187L294.577 256.11H298.722ZM292.226 256.11L295.474 259.358L291.844 262.988L288.688 259.823L288.621 258.992L291.462 256.143L292.226 256.11ZM289.12 256.11L288.447 256.783L288.389 256.11H289.12ZM288.895 262.381L290.673 264.159L289.161 265.671L288.895 262.381ZM289.892 274.55L289.751 272.831L290.681 273.761L289.892 274.55ZM290.066 276.735L291.852 274.941L295.482 278.571L291.852 282.192L290.382 280.755L290.066 276.735ZM290.606 283.446V283.289L290.689 283.372L290.615 283.446H290.606ZM291.238 291.18L290.781 285.614L291.852 284.543L295.482 288.173L291.852 291.794L291.238 291.18ZM291.57 295.333L291.503 294.502L291.852 294.153L293.032 295.333H291.57ZM293.032 292.982L296.653 289.352L300.283 292.982L297.933 295.333H295.374L293.032 292.982ZM300.283 295.333L301.463 294.153L302.642 295.333H300.283ZM304.985 295.333L302.634 292.982L306.264 289.352L309.885 292.982L307.543 295.333H304.985ZM309.885 295.333L311.065 294.153L312.244 295.333H309.885ZM320.95 295.333H319.488L320.667 294.153L321.016 294.502L320.95 295.333ZM321.29 291.18L320.667 291.794L317.037 288.173L320.667 284.543L321.739 285.614L321.29 291.18ZM321.93 283.28V283.446L321.855 283.372L321.946 283.28H321.93ZM322.137 280.73L320.626 282.192L316.996 278.571L320.626 274.941L322.42 276.735L322.137 280.73ZM322.636 274.559L321.805 273.728L322.744 272.798L322.636 274.559ZM323.624 262.373L323.358 265.696L321.83 264.142L323.616 262.357L323.624 262.373Z" fill="#4A3589"/>
<g opacity="0.6">
<path d="M321.938 254.449H286.569L286.86 258.021L287.068 260.571L287.608 267.216L287.915 271.028L288.322 276.104L288.497 278.28L288.555 278.928L288.762 281.486L289.045 284.991L289.219 287.168L289.402 289.377L289.61 291.935L289.767 293.871L289.942 296.047L290.017 296.994H322.461L322.536 296.047L322.71 293.879L322.868 291.927L323.076 289.369L323.259 287.168L323.433 284.991L323.716 281.478L323.923 278.928L323.973 278.28L324.147 276.104L324.563 271.028L324.87 267.224L325.402 260.579L325.609 258.029L325.9 254.457L321.938 254.449ZM324.064 256.791L323.383 256.11H324.123L324.064 256.791ZM323.89 258.959L323.824 259.79L320.626 262.988L316.996 259.358L320.243 256.11H321.008L323.89 258.959ZM322.976 270.272L320.626 272.59L316.996 268.96L320.626 265.339L323.117 267.83L322.976 270.272ZM289.335 267.847L291.827 265.355L295.457 268.977L291.827 272.607L289.518 270.289L289.335 267.847ZM319.488 264.159L315.858 267.789L312.228 264.142L315.858 260.513L319.488 264.159ZM313.781 256.11H317.934L315.858 258.187L313.781 256.11ZM314.678 268.96L311.057 272.59L307.427 268.96L311.057 265.339L314.678 268.96ZM302.626 273.761L306.256 270.14L309.877 273.761L306.256 277.433L302.626 273.761ZM305.076 278.562L301.446 282.192L297.825 278.571L301.454 274.941L305.076 278.562ZM311.057 274.941L314.678 278.571L311.057 282.192L307.427 278.562L311.057 274.941ZM306.256 267.789L302.626 264.142L306.256 260.513L309.877 264.142L306.256 267.789ZM305.076 268.96L301.454 272.59L297.825 268.96L301.454 265.339L305.076 268.96ZM296.645 267.789L293.023 264.142L296.645 260.513L300.275 264.142L296.645 267.789ZM296.645 270.14L300.275 273.761L296.645 277.433L293.023 273.803L296.645 270.14ZM300.275 283.372L296.645 286.993L293.023 283.372L296.645 279.742L300.275 283.372ZM301.446 284.543L305.076 288.173L301.454 291.803L297.825 288.173L301.446 284.543ZM302.626 283.372L306.256 279.742L309.877 283.372L306.256 286.993L302.626 283.372ZM311.057 284.543L314.678 288.173L311.057 291.803L307.427 288.173L311.057 284.543ZM315.858 289.344L319.488 292.974L317.137 295.324H314.579L312.228 292.974L315.858 289.344ZM312.228 283.372L315.858 279.742L319.488 283.372L315.858 286.993L312.228 283.372ZM312.228 273.761L315.858 270.14L319.488 273.761L315.858 277.433L312.228 273.761ZM314.678 259.358L311.057 262.988L307.427 259.358L310.675 256.11H311.439L314.678 259.358ZM306.256 258.187L304.179 256.11H308.332L306.256 258.187ZM305.076 259.358L301.454 262.988L297.825 259.358L301.072 256.11H301.837L305.076 259.358ZM298.722 256.11L296.645 258.187L294.577 256.11H298.722ZM292.226 256.11L295.474 259.358L291.844 262.988L288.688 259.823L288.621 258.992L291.462 256.143L292.226 256.11ZM289.12 256.11L288.447 256.783L288.389 256.11H289.12ZM288.895 262.381L290.673 264.159L289.161 265.671L288.895 262.381ZM289.892 274.55L289.751 272.831L290.681 273.761L289.892 274.55ZM290.066 276.735L291.852 274.941L295.482 278.571L291.852 282.192L290.382 280.755L290.066 276.735ZM290.606 283.446V283.289L290.689 283.372L290.615 283.446H290.606ZM291.238 291.18L290.781 285.614L291.852 284.543L295.482 288.173L291.852 291.794L291.238 291.18ZM291.57 295.333L291.503 294.502L291.852 294.153L293.032 295.333H291.57ZM293.032 292.982L296.653 289.352L300.283 292.982L297.933 295.333H295.374L293.032 292.982ZM300.283 295.333L301.463 294.153L302.642 295.333H300.283ZM304.985 295.333L302.634 292.982L306.264 289.352L309.885 292.982L307.543 295.333H304.985ZM309.885 295.333L311.065 294.153L312.244 295.333H309.885ZM320.95 295.333H319.488L320.667 294.153L321.016 294.502L320.95 295.333ZM321.29 291.18L320.667 291.794L317.037 288.173L320.667 284.543L321.739 285.614L321.29 291.18ZM321.93 283.28V283.446L321.855 283.372L321.946 283.28H321.93ZM322.137 280.73L320.626 282.192L316.996 278.571L320.626 274.941L322.42 276.735L322.137 280.73ZM322.636 274.559L321.805 273.728L322.744 272.798L322.636 274.559ZM323.624 262.373L323.358 265.696L321.83 264.142L323.616 262.357L323.624 262.373Z" fill="white"/>
</g>
<path d="M285.689 257.597H326.822C327.575 257.597 328.184 256.987 328.184 256.235V254.333C328.184 253.58 327.575 252.97 326.822 252.97H285.689C284.937 252.97 284.327 253.58 284.327 254.333V256.235C284.327 256.987 284.937 257.597 285.689 257.597Z" fill="#4A3589"/>
<path d="M323.657 294.494H288.846C288.093 294.494 287.483 295.104 287.483 295.856V297.758C287.483 298.511 288.093 299.12 288.846 299.12H323.657C324.41 299.12 325.02 298.511 325.02 297.758V295.856C325.02 295.104 324.41 294.494 323.657 294.494Z" fill="#4A3589"/>
</g>
</svg>
