<svg width="416" height="261" viewBox="0 0 416 261" fill="none" xmlns="http://www.w3.org/2000/svg">
<g opacity="0.5">
<g opacity="0.1">
<path d="M351.961 159.058C351.961 159.139 356.659 156.186 356.929 155.945C360.094 153.383 364.707 146.577 363.064 142.32C361.881 139.253 358.291 138.253 355.482 139.678C352.673 141.102 351.093 144.796 350.559 147.789C349.927 151.304 351.961 159.047 351.961 159.058Z" fill="black"/>
<path d="M294.049 102.45C295.462 105.73 301.43 111.066 301.43 111.066C301.43 111.066 303.727 106.063 303.865 105.724C305.089 101.847 305.181 93.6217 301.464 90.9794C298.788 89.0723 295.238 90.2154 293.681 92.9553C292.124 95.6953 292.842 99.653 294.049 102.45Z" fill="black"/>
<path d="M280.223 121.268C282.359 123.945 288.994 127.317 289.522 127.587C287.589 131.375 285.91 135.288 284.496 139.299C283.658 141.631 282.888 144.009 282.147 146.399C282.319 145.25 282.469 144.233 282.474 144.101C282.635 140.034 280.55 132.073 276.265 130.51C273.18 129.362 270.061 131.418 269.28 134.474C268.499 137.53 270.245 141.148 272.152 143.526C274.059 145.905 279.677 148.92 281.165 149.69C280.889 150.615 280.59 151.528 280.332 152.447C279.028 156.87 277.747 161.287 276.357 165.584C275.869 167.095 275.329 168.571 274.8 170.041C274.955 169.03 275.076 168.174 275.082 168.042C275.243 163.97 273.157 156.014 268.872 154.452C265.788 153.303 262.669 155.359 261.887 158.415C261.106 161.471 262.852 165.09 264.76 167.462C266.667 169.834 271.727 172.551 273.485 173.453C272.91 174.947 272.302 176.446 271.664 177.865C271.204 178.824 270.831 179.783 270.314 180.737C269.797 181.69 269.338 182.609 268.861 183.534C267.867 185.257 266.856 187.078 265.851 188.756C265.156 189.904 264.478 191.053 263.795 192.139C264.294 190.64 265.225 187.681 265.271 187.423C266.046 183.402 265.19 175.245 261.192 173.063C258.32 171.483 254.92 173.022 253.691 175.935C252.461 178.847 253.627 182.678 255.144 185.315C256.815 188.221 262.611 192.409 263.329 192.932C262.18 194.77 261.066 196.545 259.98 198.205C256.235 203.949 252.898 208.59 250.514 211.812L252.772 213.926L252.978 213.633C255.316 210.325 258.596 205.551 262.261 199.658C263.41 197.797 264.627 195.781 265.845 193.707C267.988 194.538 270.176 195.245 272.399 195.827C272.399 199.273 274.726 205.511 275.03 206.315C273.071 207.223 271.153 208.084 269.332 208.866C263.013 211.594 257.683 213.627 253.92 215L256.396 217.298C260.049 215.856 264.874 213.852 270.429 211.318C272.428 210.405 274.542 209.394 276.702 208.331C277.207 209.049 281.36 214.885 284.249 216.586C286.874 218.119 290.642 219.349 293.618 218.114C296.593 216.879 298.098 213.518 296.542 210.646C294.376 206.625 286.202 205.706 282.181 206.447C281.946 206.493 279.436 207.252 277.862 207.757C278.741 207.32 279.585 206.907 280.504 206.442C282.291 205.54 284.048 204.592 285.944 203.57L288.666 201.984C289.586 201.473 290.493 200.835 291.418 200.232C293.532 198.831 295.611 197.309 297.667 195.729C298.46 197.297 301.361 202.811 303.733 204.736C306.106 206.66 309.632 208.441 312.757 207.671C315.882 206.901 317.881 203.811 316.778 200.721C315.25 196.424 307.312 194.27 303.239 194.402C302.987 194.402 300.074 194.827 298.483 195.091C299.712 194.126 300.942 193.178 302.154 192.168C305.652 189.25 309.104 186.188 312.562 183.144C313.619 182.213 314.687 181.3 315.75 180.381C316.026 180.955 319.328 187.567 321.982 189.726C324.343 191.645 327.887 193.431 331.012 192.662C334.137 191.892 336.136 188.801 335.033 185.705C333.505 181.415 325.561 179.261 321.494 179.387C321.19 179.387 317.002 180.002 315.945 180.208C318.283 178.181 320.638 176.187 323.039 174.309C326.268 171.753 329.658 169.408 333.189 167.29C333.315 167.548 336.727 174.487 339.45 176.693C341.811 178.611 345.349 180.398 348.48 179.628C351.61 178.858 353.604 175.774 352.501 172.678C350.967 168.381 343.029 166.233 338.962 166.359C338.692 166.359 335.515 166.83 333.993 167.083C333.942 166.951 333.953 166.974 333.901 166.836C337.526 164.807 341.325 163.106 345.252 161.753C347.394 160.977 349.485 160.357 351.536 159.805C352.041 161.161 354.408 167.336 356.636 169.57C358.773 171.736 362.099 173.901 365.287 173.482C368.475 173.063 370.807 170.208 370.049 167.014C369.003 162.574 361.347 159.547 357.286 159.242C357.067 159.242 354.804 159.294 353.156 159.369C354.086 159.133 355.04 158.869 355.93 158.662C359.29 157.864 362.409 157.347 365.178 156.904C366.758 156.669 368.182 156.485 369.526 156.33C370.715 157.404 375.558 161.672 378.521 162.649C381.485 163.625 385.363 163.975 388.005 162.132C390.647 160.288 391.394 156.686 389.246 154.193C386.27 150.747 378.091 151.597 374.34 153.182C374.012 153.32 369.17 156.054 369.251 156.1L369.325 156.163C368.033 156.29 366.648 156.439 365.138 156.629C362.352 157.008 359.21 157.462 355.827 158.185C352.169 158.933 348.557 159.892 345.01 161.057C341.032 162.34 337.176 163.974 333.488 165.94L333.361 166.015C334.292 165.055 336.808 162.287 336.969 162.051C339.347 158.748 341.995 150.959 339.266 147.289C337.313 144.647 333.585 144.624 331.225 146.743C328.864 148.863 328.352 152.843 328.617 155.871C328.921 159.288 332.597 165.756 332.89 166.267C329.202 168.359 325.656 170.693 322.275 173.252C320.288 174.734 318.335 176.291 316.399 177.876C317.174 177.02 317.864 176.251 317.95 176.153C320.322 172.844 322.976 165.061 320.248 161.391C318.3 158.748 314.572 158.725 312.206 160.816C309.839 162.907 309.334 166.911 309.598 169.938C309.862 172.965 312.895 178.594 313.717 180.059L311.499 181.897C307.972 184.867 304.469 187.842 300.942 190.657C299.695 191.651 298.437 192.581 297.179 193.529C297.869 192.771 298.443 192.122 298.518 192.018C300.896 188.71 303.544 180.926 300.815 177.256C298.862 174.614 295.14 174.591 292.774 176.71C290.407 178.83 289.901 182.805 290.166 185.832C290.43 188.767 293.17 193.942 294.135 195.689C292.819 196.608 291.498 197.533 290.183 198.365C289.27 198.911 288.46 199.514 287.483 200.002L284.726 201.53C282.94 202.438 281.102 203.386 279.338 204.224C278.115 204.799 276.937 205.373 275.754 205.913C277 204.942 279.407 202.984 279.591 202.794C282 200.144 283.691 196.92 284.502 193.431C284.784 193.149 285.04 192.841 285.266 192.512C287.024 189.899 286.472 186.194 283.543 184.66C279.522 182.506 272.198 186.245 269.269 189.071C269.096 189.238 267.419 191.254 266.397 192.547C266.891 191.697 267.379 190.875 267.879 189.991C268.872 188.267 269.814 186.487 270.831 184.591L272.227 181.765C272.709 180.834 273.106 179.789 273.554 178.79C274.547 176.452 275.438 174.039 276.282 171.586C277.804 172.454 283.267 175.452 286.306 175.751C289.344 176.05 293.273 175.584 295.456 173.218C297.639 170.851 297.604 167.175 294.973 165.205C291.326 162.465 283.52 165.05 280.194 167.399C279.987 167.548 277.787 169.501 276.604 170.598C277.098 169.116 277.603 167.646 278.057 166.135C279.367 161.77 280.556 157.312 281.762 152.866C282.13 151.505 282.515 150.155 282.911 148.8C283.451 149.115 289.867 152.82 293.25 153.159C296.272 153.452 300.212 152.993 302.395 150.626C304.578 148.26 304.543 144.583 301.918 142.584C298.271 139.85 290.43 142.435 287.133 144.784C286.886 144.957 283.727 147.777 282.963 148.53C283.795 145.548 284.657 142.584 285.622 139.695C286.905 135.788 288.44 131.967 290.217 128.259C290.464 128.408 297.139 132.28 300.631 132.653C303.659 132.946 307.593 132.486 309.776 130.12C311.959 127.753 311.924 124.071 309.299 122.078C305.652 119.338 297.811 121.923 294.52 124.272C294.296 124.427 291.889 126.57 290.769 127.621L290.683 127.5C292.576 123.818 294.794 120.311 297.311 117.023C298.673 115.197 300.074 113.525 301.476 111.934C302.625 112.79 308.03 116.633 311.137 117.287C314.113 117.914 318.076 117.862 320.506 115.771C322.936 113.68 323.303 109.998 320.908 107.729C317.588 104.604 309.541 106.316 305.973 108.304C305.778 108.413 303.929 109.722 302.596 110.693C303.239 109.981 303.888 109.234 304.52 108.568C306.881 106.052 309.196 103.898 311.264 102.002C312.447 100.94 313.561 99.9977 314.572 99.1303C316.158 99.3716 322.551 100.279 325.555 99.4233C328.559 98.5674 331.988 96.758 333.172 93.7653C334.355 90.7726 332.999 87.3492 329.834 86.4588C325.446 85.2181 319.099 90.4452 316.841 93.8343C316.646 94.1272 314.124 99.0614 314.205 99.0786H314.302C313.291 99.8943 312.223 100.802 311.068 101.778C308.955 103.628 306.588 105.742 304.176 108.212C301.526 110.846 299.033 113.633 296.708 116.558C294.108 119.823 291.801 123.312 289.815 126.983L289.752 127.121C289.993 125.806 290.562 122.112 290.574 121.825C290.734 117.753 288.649 109.797 284.364 108.235C281.28 107.086 278.161 109.142 277.379 112.198C276.598 115.254 278.321 118.884 280.223 121.268Z" fill="black"/>
<path opacity="0.3" d="M294.049 102.45C295.462 105.73 301.43 111.066 301.43 111.066C301.43 111.066 303.727 106.063 303.865 105.724C305.089 101.847 305.181 93.6217 301.464 90.9794C298.788 89.0723 295.238 90.2154 293.681 92.9553C292.124 95.6953 292.842 99.653 294.049 102.45Z" fill="black"/>
<path opacity="0.3" d="M351.961 159.058C351.961 159.139 356.659 156.186 356.929 155.945C360.094 153.383 364.707 146.577 363.064 142.32C361.881 139.253 358.291 138.253 355.482 139.678C352.673 141.102 351.093 144.796 350.559 147.789C349.927 151.304 351.961 159.047 351.961 159.058Z" fill="black"/>
<path opacity="0.3" d="M280.223 121.268C282.359 123.945 288.994 127.317 289.522 127.587C287.589 131.375 285.91 135.288 284.496 139.299C283.658 141.631 282.888 144.009 282.147 146.399C282.319 145.25 282.469 144.233 282.474 144.101C282.635 140.034 280.55 132.073 276.265 130.51C273.18 129.362 270.061 131.418 269.28 134.474C268.499 137.53 270.245 141.148 272.152 143.526C274.059 145.905 279.677 148.92 281.165 149.69C280.889 150.615 280.59 151.528 280.332 152.447C279.028 156.87 277.747 161.287 276.357 165.584C275.869 167.095 275.329 168.571 274.8 170.041C274.955 169.03 275.076 168.174 275.082 168.042C275.243 163.97 273.157 156.014 268.872 154.452C265.788 153.303 262.669 155.359 261.887 158.415C261.106 161.471 262.852 165.09 264.76 167.462C266.667 169.834 271.727 172.551 273.485 173.453C272.91 174.947 272.302 176.446 271.664 177.865C271.204 178.824 270.831 179.783 270.314 180.737C269.797 181.69 269.338 182.609 268.861 183.534C267.867 185.257 266.856 187.078 265.851 188.756C265.156 189.904 264.478 191.053 263.795 192.139C264.294 190.64 265.225 187.681 265.271 187.423C266.046 183.402 265.19 175.245 261.192 173.063C258.32 171.483 254.92 173.022 253.691 175.935C252.461 178.847 253.627 182.678 255.144 185.315C256.815 188.221 262.611 192.409 263.329 192.932C262.18 194.77 261.066 196.545 259.98 198.205C256.235 203.949 252.898 208.59 250.514 211.812L252.772 213.926L252.978 213.633C255.316 210.325 258.596 205.551 262.261 199.658C263.41 197.797 264.627 195.781 265.845 193.707C267.988 194.538 270.176 195.245 272.399 195.827C272.399 199.273 274.726 205.511 275.03 206.315C273.071 207.223 271.153 208.084 269.332 208.866C263.013 211.594 257.683 213.627 253.92 215L256.396 217.298C260.049 215.856 264.874 213.852 270.429 211.318C272.428 210.405 274.542 209.394 276.702 208.331C277.207 209.049 281.36 214.885 284.249 216.586C286.874 218.119 290.642 219.349 293.618 218.114C296.593 216.879 298.098 213.518 296.542 210.646C294.376 206.625 286.202 205.706 282.181 206.447C281.946 206.493 279.436 207.252 277.862 207.757C278.741 207.32 279.585 206.907 280.504 206.442C282.291 205.54 284.048 204.592 285.944 203.57L288.666 201.984C289.586 201.473 290.493 200.835 291.418 200.232C293.532 198.831 295.611 197.309 297.667 195.729C298.46 197.297 301.361 202.811 303.733 204.736C306.106 206.66 309.632 208.441 312.757 207.671C315.882 206.901 317.881 203.811 316.778 200.721C315.25 196.424 307.312 194.27 303.239 194.402C302.987 194.402 300.074 194.827 298.483 195.091C299.712 194.126 300.942 193.178 302.154 192.168C305.652 189.25 309.104 186.188 312.562 183.144C313.619 182.213 314.687 181.3 315.75 180.381C316.026 180.955 319.328 187.567 321.982 189.726C324.343 191.645 327.887 193.431 331.012 192.662C334.137 191.892 336.136 188.801 335.033 185.705C333.505 181.415 325.561 179.261 321.494 179.387C321.19 179.387 317.002 180.002 315.945 180.208C318.283 178.181 320.638 176.187 323.039 174.309C326.268 171.753 329.658 169.408 333.189 167.29C333.315 167.548 336.727 174.487 339.45 176.693C341.811 178.611 345.349 180.398 348.48 179.628C351.61 178.858 353.604 175.774 352.501 172.678C350.967 168.381 343.029 166.233 338.962 166.359C338.692 166.359 335.515 166.83 333.993 167.083C333.942 166.951 333.953 166.974 333.901 166.836C337.526 164.807 341.325 163.106 345.252 161.753C347.394 160.977 349.485 160.357 351.536 159.805C352.041 161.161 354.408 167.336 356.636 169.57C358.773 171.736 362.099 173.901 365.287 173.482C368.475 173.063 370.807 170.208 370.049 167.014C369.003 162.574 361.347 159.547 357.286 159.242C357.067 159.242 354.804 159.294 353.156 159.369C354.086 159.133 355.04 158.869 355.93 158.662C359.29 157.864 362.409 157.347 365.178 156.904C366.758 156.669 368.182 156.485 369.526 156.33C370.715 157.404 375.558 161.672 378.521 162.649C381.485 163.625 385.363 163.975 388.005 162.132C390.647 160.288 391.394 156.686 389.246 154.193C386.27 150.747 378.091 151.597 374.34 153.182C374.012 153.32 369.17 156.054 369.251 156.1L369.325 156.163C368.033 156.29 366.648 156.439 365.138 156.629C362.352 157.008 359.21 157.462 355.827 158.185C352.169 158.933 348.557 159.892 345.01 161.057C341.032 162.34 337.176 163.974 333.488 165.94L333.361 166.015C334.292 165.055 336.808 162.287 336.969 162.051C339.347 158.748 341.995 150.959 339.266 147.289C337.313 144.647 333.585 144.624 331.225 146.743C328.864 148.863 328.352 152.843 328.617 155.871C328.921 159.288 332.597 165.756 332.89 166.267C329.202 168.359 325.656 170.693 322.275 173.252C320.288 174.734 318.335 176.291 316.399 177.876C317.174 177.02 317.864 176.251 317.95 176.153C320.322 172.844 322.976 165.061 320.248 161.391C318.3 158.748 314.572 158.725 312.206 160.816C309.839 162.907 309.334 166.911 309.598 169.938C309.862 172.965 312.895 178.594 313.717 180.059L311.499 181.897C307.972 184.867 304.469 187.842 300.942 190.657C299.695 191.651 298.437 192.581 297.179 193.529C297.869 192.771 298.443 192.122 298.518 192.018C300.896 188.71 303.544 180.926 300.815 177.256C298.862 174.614 295.14 174.591 292.774 176.71C290.407 178.83 289.901 182.805 290.166 185.832C290.43 188.767 293.17 193.942 294.135 195.689C292.819 196.608 291.498 197.533 290.183 198.365C289.27 198.911 288.46 199.514 287.483 200.002L284.726 201.53C282.94 202.438 281.102 203.386 279.338 204.224C278.115 204.799 276.937 205.373 275.754 205.913C277 204.942 279.407 202.984 279.591 202.794C282 200.144 283.691 196.92 284.502 193.431C284.784 193.149 285.04 192.841 285.266 192.512C287.024 189.899 286.472 186.194 283.543 184.66C279.522 182.506 272.198 186.245 269.269 189.071C269.096 189.238 267.419 191.254 266.397 192.547C266.891 191.697 267.379 190.875 267.879 189.991C268.872 188.267 269.814 186.487 270.831 184.591L272.227 181.765C272.709 180.834 273.106 179.789 273.554 178.79C274.547 176.452 275.438 174.039 276.282 171.586C277.804 172.454 283.267 175.452 286.306 175.751C289.344 176.05 293.273 175.584 295.456 173.218C297.639 170.851 297.604 167.175 294.973 165.205C291.326 162.465 283.52 165.05 280.194 167.399C279.987 167.548 277.787 169.501 276.604 170.598C277.098 169.116 277.603 167.646 278.057 166.135C279.367 161.77 280.556 157.312 281.762 152.866C282.13 151.505 282.515 150.155 282.911 148.8C283.451 149.115 289.867 152.82 293.25 153.159C296.272 153.452 300.212 152.993 302.395 150.626C304.578 148.26 304.543 144.583 301.918 142.584C298.271 139.85 290.43 142.435 287.133 144.784C286.886 144.957 283.727 147.777 282.963 148.53C283.795 145.548 284.657 142.584 285.622 139.695C286.905 135.788 288.44 131.967 290.217 128.259C290.464 128.408 297.139 132.28 300.631 132.653C303.659 132.946 307.593 132.486 309.776 130.12C311.959 127.753 311.924 124.071 309.299 122.078C305.652 119.338 297.811 121.923 294.52 124.272C294.296 124.427 291.889 126.57 290.769 127.621L290.683 127.5C292.576 123.818 294.794 120.311 297.311 117.023C298.673 115.197 300.074 113.525 301.476 111.934C302.625 112.79 308.03 116.633 311.137 117.287C314.113 117.914 318.076 117.862 320.506 115.771C322.936 113.68 323.303 109.998 320.908 107.729C317.588 104.604 309.541 106.316 305.973 108.304C305.778 108.413 303.929 109.722 302.596 110.693C303.239 109.981 303.888 109.234 304.52 108.568C306.881 106.052 309.196 103.898 311.264 102.002C312.447 100.94 313.561 99.9977 314.572 99.1303C316.158 99.3716 322.551 100.279 325.555 99.4233C328.559 98.5674 331.988 96.758 333.172 93.7653C334.355 90.7726 332.999 87.3492 329.834 86.4588C325.446 85.2181 319.099 90.4452 316.841 93.8343C316.646 94.1272 314.124 99.0614 314.205 99.0786H314.302C313.291 99.8943 312.223 100.802 311.068 101.778C308.955 103.628 306.588 105.742 304.176 108.212C301.526 110.846 299.033 113.633 296.708 116.558C294.108 119.823 291.801 123.312 289.815 126.983L289.752 127.121C289.993 125.806 290.562 122.112 290.574 121.825C290.734 117.753 288.649 109.797 284.364 108.235C281.28 107.086 278.161 109.142 277.379 112.198C276.598 115.254 278.321 118.884 280.223 121.268Z" fill="black"/>
</g>
<g opacity="0.1">
<path d="M46.5582 159.059C46.5582 159.139 41.8596 156.186 41.5896 155.945C38.4246 153.383 33.8121 146.577 35.4549 142.32C36.6382 139.253 40.2282 138.253 43.0371 139.678C45.846 141.102 47.4256 144.796 47.9598 147.789C48.5859 151.304 46.5582 159.047 46.5582 159.059Z" fill="black"/>
<path d="M104.464 102.45C103.051 105.73 97.0833 111.067 97.0833 111.067C97.0833 111.067 94.7569 106.063 94.6478 105.725C93.4243 101.847 93.3324 93.6217 97.0488 90.9794C99.7256 89.0724 103.275 90.2155 104.832 92.9554C106.389 95.6953 105.671 99.653 104.464 102.45Z" fill="black"/>
<path d="M118.291 121.268C116.148 123.945 109.519 127.317 108.991 127.587C110.924 131.375 112.603 135.287 114.017 139.299C114.856 141.631 115.625 144.009 116.366 146.398C116.194 145.25 116.045 144.233 116.039 144.101C115.878 140.034 117.963 132.073 122.248 130.51C125.333 129.361 128.452 131.418 129.233 134.474C130.014 137.53 128.268 141.148 126.361 143.526C124.454 145.904 118.836 148.92 117.349 149.69C117.624 150.615 117.923 151.528 118.181 152.447C119.485 156.87 120.766 161.287 122.156 165.584C122.645 167.094 123.185 168.571 123.713 170.041C123.558 169.03 123.437 168.174 123.432 168.042C123.271 163.97 125.356 156.014 129.641 154.452C132.726 153.303 135.845 155.359 136.626 158.415C137.407 161.471 135.661 165.09 133.754 167.462C131.847 169.834 126.775 172.569 125.005 173.493C125.58 174.987 126.189 176.486 126.826 177.905C127.286 178.864 127.659 179.823 128.176 180.777C128.693 181.73 129.153 182.65 129.629 183.574C130.623 185.298 131.634 187.118 132.639 188.796C133.334 189.945 134.012 191.093 134.696 192.179C134.19 190.68 133.265 187.722 133.22 187.463C132.444 183.442 133.3 175.286 137.298 173.103C140.17 171.523 143.57 173.063 144.8 175.975C146.029 178.887 144.863 182.718 143.346 185.355C141.675 188.262 135.879 192.449 135.161 192.972C136.31 194.81 137.424 196.585 138.51 198.245C142.255 203.989 145.592 208.63 147.976 211.853L145.719 213.966L145.512 213.673C143.174 210.365 139.894 205.591 136.229 199.698C135.081 197.837 133.863 195.821 132.645 193.747C130.503 194.578 128.314 195.285 126.091 195.867C126.091 199.313 123.765 205.551 123.46 206.355C125.419 207.263 127.338 208.125 129.158 208.906C135.477 211.634 140.808 213.668 144.57 215.041L142.094 217.338C138.441 215.896 133.616 213.892 128.061 211.359C126.062 210.445 123.949 209.434 121.789 208.372C121.283 209.09 117.13 214.926 114.241 216.626C111.616 218.16 107.848 219.389 104.872 218.154C101.897 216.919 100.392 213.559 101.949 210.686C104.114 206.666 112.288 205.747 116.309 206.488C116.544 206.534 119.055 207.292 120.628 207.797C119.75 207.361 118.905 206.947 117.986 206.482C116.2 205.58 114.442 204.632 112.547 203.61L109.824 202.024C108.905 201.513 107.997 200.876 107.072 200.272C104.959 198.871 102.879 197.349 100.823 195.769C100.03 197.337 97.1293 202.852 94.757 204.776C92.3847 206.7 88.8578 208.481 85.733 207.711C82.6083 206.941 80.6093 203.851 81.7122 200.761C83.2401 196.464 91.1785 194.31 95.251 194.442C95.5038 194.442 98.416 194.867 100.007 195.131C98.7779 194.166 97.5487 193.219 96.3367 192.208C92.8385 189.29 89.3863 186.228 85.9283 183.184C84.8714 182.253 83.803 181.34 82.7404 180.421C82.4647 180.995 79.1618 187.607 76.508 189.766C74.1472 191.685 70.6031 193.471 67.4783 192.702C64.3535 191.932 62.3546 188.842 63.4574 185.746C64.9854 181.455 72.9237 179.301 76.9963 179.427C77.3007 179.427 81.4882 180.042 82.5451 180.248C80.2072 178.221 77.8521 176.228 75.4511 174.349C72.222 171.801 68.8317 169.464 65.3013 167.353C65.1749 167.611 61.7629 174.55 59.0402 176.756C56.6794 178.675 53.141 180.461 50.0105 179.691C46.88 178.922 44.8867 175.837 45.9896 172.741C47.5233 168.444 55.4616 166.296 59.5285 166.422C59.7984 166.422 62.9749 166.893 64.4971 167.146C64.5488 167.014 64.5373 167.037 64.5833 166.899C60.9737 164.874 57.1906 163.174 53.2789 161.821C51.1363 161.046 49.0455 160.426 46.9948 159.874C46.4894 161.23 44.1228 167.405 41.8941 169.639C39.7573 171.805 36.4314 173.97 33.2435 173.551C30.0555 173.132 27.7234 170.277 28.4816 167.083C29.527 162.643 37.1839 159.616 41.245 159.311C41.4633 159.311 43.7264 159.363 45.375 159.438C44.4445 159.202 43.4909 158.938 42.6006 158.731C39.246 157.887 36.127 157.37 33.3468 156.927C31.7672 156.692 30.3369 156.508 28.9986 156.353C27.8095 157.427 22.9673 161.695 20.0033 162.672C17.0393 163.648 13.1621 163.998 10.5198 162.155C7.8775 160.311 7.13076 156.709 9.27906 154.216C12.2545 150.77 20.4341 151.62 24.2137 153.205C24.5411 153.343 29.3834 156.077 29.303 156.123L29.2283 156.186C30.5207 156.313 31.9051 156.462 33.4158 156.652C36.2017 157.031 39.3437 157.485 42.727 158.208C46.3844 158.958 49.9957 159.917 53.5431 161.08C57.5211 162.363 61.3772 163.997 65.0658 165.963L65.1922 166.038C64.2616 165.078 61.7457 162.31 61.5849 162.074C59.2068 158.771 56.5588 150.982 59.2872 147.312C61.2402 144.67 64.9681 144.647 67.3002 146.766C69.6323 148.886 70.1723 152.866 69.9081 155.893C69.6036 159.311 65.9274 165.779 65.6344 166.29C69.337 168.384 72.8966 170.721 76.2897 173.287C78.2772 174.769 80.2302 176.325 82.166 177.911C81.3905 177.055 80.7012 176.285 80.6151 176.187C78.2427 172.879 75.589 165.096 78.3174 161.425C80.2647 158.783 83.9926 158.76 86.3304 160.851C88.6683 162.942 89.2025 166.945 88.9383 169.972C88.674 172.999 85.6411 178.629 84.8197 180.093L87.037 181.932C90.5638 184.901 94.0677 187.877 97.5946 190.691C98.8411 191.685 100.099 192.616 101.357 193.563C100.668 192.805 100.093 192.156 100.019 192.053C97.6406 188.744 94.9925 180.961 97.721 177.29C99.674 174.648 103.396 174.625 105.734 176.745C108.072 178.864 108.606 182.839 108.342 185.866C108.078 188.801 105.338 193.977 104.373 195.723C105.688 196.642 107.003 197.567 108.325 198.4C109.238 198.946 110.077 199.549 111.024 200.037L113.782 201.565C115.568 202.472 117.406 203.42 119.169 204.259C120.393 204.833 121.571 205.408 122.754 205.948C121.507 204.977 119.101 203.018 118.917 202.829C116.503 200.181 114.811 196.957 114.006 193.466C113.723 193.183 113.467 192.876 113.242 192.547C111.484 189.933 112.035 186.228 114.965 184.694C118.986 182.54 126.309 186.28 129.239 189.106C129.411 189.272 131.083 191.289 132.111 192.581C131.617 191.731 131.129 190.91 130.629 190.025C129.635 188.302 128.693 186.521 127.676 184.625L126.281 181.799C125.798 180.869 125.402 179.823 124.954 178.824C123.96 176.486 123.07 174.074 122.225 171.621C120.697 172.488 115.241 175.487 112.202 175.785C109.163 176.084 105.234 175.619 103.052 173.252C100.869 170.886 100.903 167.209 103.534 165.239C107.182 162.499 114.988 165.084 118.314 167.433C118.52 167.583 120.715 169.536 121.904 170.633C121.41 169.151 120.904 167.68 120.45 166.17C119.141 161.804 117.952 157.347 116.745 152.901C116.378 151.539 115.993 150.19 115.597 148.834C115.062 149.15 108.646 152.855 105.257 153.194C102.23 153.487 98.2954 153.027 96.1126 150.661C93.9299 148.294 93.9644 144.618 96.5894 142.619C100.237 139.885 108.049 142.47 111.375 144.819C111.622 144.991 114.781 147.812 115.545 148.564C114.712 145.583 113.822 142.619 112.885 139.73C111.603 135.822 110.068 132.002 108.29 128.293C108.043 128.442 101.368 132.314 97.8761 132.687C94.8489 132.98 90.9142 132.521 88.7315 130.154C86.5487 127.788 86.5832 124.106 89.2082 122.112C92.8557 119.372 100.668 121.957 103.988 124.307C104.212 124.462 106.619 126.604 107.739 127.655L107.945 127.495C106.052 123.812 103.834 120.306 101.317 117.017C99.9555 115.191 98.5539 113.519 97.1523 111.928C96.0035 112.784 90.5983 116.627 87.4907 117.282C84.5153 117.908 80.5519 117.856 78.1221 115.765C75.6924 113.674 75.3247 109.992 77.72 107.723C81.0401 104.599 89.0876 106.31 92.6547 108.298C92.85 108.407 94.6996 109.717 96.0322 110.687C95.3889 109.975 94.7398 109.228 94.1079 108.562C91.7471 106.046 89.4323 103.892 87.3644 101.997C86.1811 100.934 85.0667 99.9919 84.0558 99.1245C82.4704 99.3658 76.0772 100.273 73.0731 99.4175C70.0689 98.5616 66.6397 96.7522 65.4564 93.7595C64.2731 90.7668 65.6287 87.3434 68.7937 86.453C73.1822 85.2123 79.5294 90.4394 81.7869 93.8285C81.9822 94.1214 84.5038 99.0556 84.4177 99.0728H84.3257C85.3367 99.8885 86.4051 100.796 87.5597 101.773C89.6678 103.622 92.0401 105.736 94.4526 108.206C97.1037 110.839 99.5971 113.626 101.92 116.552C104.532 119.815 106.849 123.304 108.842 126.978L108.905 127.116C108.664 125.8 108.095 122.107 108.083 121.819C107.923 117.747 110.008 109.791 114.293 108.229C117.377 107.08 120.496 109.136 121.278 112.192C122.059 115.248 120.192 118.884 118.291 121.268Z" fill="black"/>
<path opacity="0.3" d="M104.464 102.45C103.051 105.73 97.0833 111.067 97.0833 111.067C97.0833 111.067 94.7569 106.063 94.6478 105.725C93.4243 101.847 93.3324 93.6217 97.0488 90.9794C99.7256 89.0724 103.275 90.2155 104.832 92.9554C106.389 95.6953 105.671 99.653 104.464 102.45Z" fill="black"/>
<path opacity="0.3" d="M46.5582 159.059C46.5582 159.139 41.8596 156.186 41.5896 155.945C38.4246 153.383 33.8121 146.577 35.4549 142.32C36.6382 139.253 40.2282 138.253 43.0371 139.678C45.846 141.102 47.4256 144.796 47.9598 147.789C48.5859 151.304 46.5582 159.047 46.5582 159.059Z" fill="black"/>
<path opacity="0.3" d="M118.291 121.268C116.148 123.945 109.519 127.317 108.991 127.587C110.924 131.375 112.603 135.287 114.017 139.299C114.856 141.631 115.625 144.009 116.366 146.398C116.194 145.25 116.045 144.233 116.039 144.101C115.878 140.034 117.963 132.073 122.248 130.51C125.333 129.361 128.452 131.418 129.233 134.474C130.014 137.53 128.268 141.148 126.361 143.526C124.454 145.904 118.836 148.92 117.349 149.69C117.624 150.615 117.923 151.528 118.181 152.447C119.485 156.87 120.766 161.287 122.156 165.584C122.645 167.094 123.185 168.571 123.713 170.041C123.558 169.03 123.437 168.174 123.432 168.042C123.271 163.97 125.356 156.014 129.641 154.452C132.726 153.303 135.845 155.359 136.626 158.415C137.407 161.471 135.661 165.09 133.754 167.462C131.847 169.834 126.775 172.569 125.005 173.493C125.58 174.987 126.189 176.486 126.826 177.905C127.286 178.864 127.659 179.823 128.176 180.777C128.693 181.73 129.153 182.65 129.629 183.574C130.623 185.298 131.634 187.118 132.639 188.796C133.334 189.945 134.012 191.093 134.696 192.179C134.19 190.68 133.265 187.722 133.22 187.463C132.444 183.442 133.3 175.286 137.298 173.103C140.17 171.523 143.57 173.063 144.8 175.975C146.029 178.887 144.863 182.718 143.346 185.355C141.675 188.262 135.879 192.449 135.161 192.972C136.31 194.81 137.424 196.585 138.51 198.245C142.255 203.989 145.592 208.63 147.976 211.853L145.719 213.966L145.512 213.673C143.174 210.365 139.894 205.591 136.229 199.698C135.081 197.837 133.863 195.821 132.645 193.747C130.503 194.578 128.314 195.285 126.091 195.867C126.091 199.313 123.765 205.551 123.46 206.355C125.419 207.263 127.338 208.125 129.158 208.906C135.477 211.634 140.808 213.668 144.57 215.041L142.094 217.338C138.441 215.896 133.616 213.892 128.061 211.359C126.062 210.445 123.949 209.434 121.789 208.372C121.283 209.09 117.13 214.926 114.241 216.626C111.616 218.16 107.848 219.389 104.872 218.154C101.897 216.919 100.392 213.559 101.949 210.686C104.114 206.666 112.288 205.747 116.309 206.488C116.544 206.534 119.055 207.292 120.628 207.797C119.75 207.361 118.905 206.947 117.986 206.482C116.2 205.58 114.442 204.632 112.547 203.61L109.824 202.024C108.905 201.513 107.997 200.876 107.072 200.272C104.959 198.871 102.879 197.349 100.823 195.769C100.03 197.337 97.1293 202.852 94.757 204.776C92.3847 206.7 88.8578 208.481 85.733 207.711C82.6083 206.941 80.6093 203.851 81.7122 200.761C83.2401 196.464 91.1785 194.31 95.251 194.442C95.5038 194.442 98.416 194.867 100.007 195.131C98.7779 194.166 97.5487 193.219 96.3367 192.208C92.8385 189.29 89.3863 186.228 85.9283 183.184C84.8714 182.253 83.803 181.34 82.7404 180.421C82.4647 180.995 79.1618 187.607 76.508 189.766C74.1472 191.685 70.6031 193.471 67.4783 192.702C64.3535 191.932 62.3546 188.842 63.4574 185.746C64.9854 181.455 72.9237 179.301 76.9963 179.427C77.3007 179.427 81.4882 180.042 82.5451 180.248C80.2072 178.221 77.8521 176.228 75.4511 174.349C72.222 171.801 68.8317 169.464 65.3013 167.353C65.1749 167.611 61.7629 174.55 59.0402 176.756C56.6794 178.675 53.141 180.461 50.0105 179.691C46.88 178.922 44.8867 175.837 45.9896 172.741C47.5233 168.444 55.4616 166.296 59.5285 166.422C59.7984 166.422 62.9749 166.893 64.4971 167.146C64.5488 167.014 64.5373 167.037 64.5833 166.899C60.9737 164.874 57.1906 163.174 53.2789 161.821C51.1363 161.046 49.0455 160.426 46.9948 159.874C46.4894 161.23 44.1228 167.405 41.8941 169.639C39.7573 171.805 36.4314 173.97 33.2435 173.551C30.0555 173.132 27.7234 170.277 28.4816 167.083C29.527 162.643 37.1839 159.616 41.245 159.311C41.4633 159.311 43.7264 159.363 45.375 159.438C44.4445 159.202 43.4909 158.938 42.6006 158.731C39.246 157.887 36.127 157.37 33.3468 156.927C31.7672 156.692 30.3369 156.508 28.9986 156.353C27.8095 157.427 22.9673 161.695 20.0033 162.672C17.0393 163.648 13.1621 163.998 10.5198 162.155C7.8775 160.311 7.13076 156.709 9.27906 154.216C12.2545 150.77 20.4341 151.62 24.2137 153.205C24.5411 153.343 29.3834 156.077 29.303 156.123L29.2283 156.186C30.5207 156.313 31.9051 156.462 33.4158 156.652C36.2017 157.031 39.3437 157.485 42.727 158.208C46.3844 158.958 49.9957 159.917 53.5431 161.08C57.5211 162.363 61.3772 163.997 65.0658 165.963L65.1922 166.038C64.2616 165.078 61.7457 162.31 61.5849 162.074C59.2068 158.771 56.5588 150.982 59.2872 147.312C61.2402 144.67 64.9681 144.647 67.3002 146.766C69.6323 148.886 70.1723 152.866 69.9081 155.893C69.6036 159.311 65.9274 165.779 65.6344 166.29C69.337 168.384 72.8966 170.721 76.2897 173.287C78.2772 174.769 80.2302 176.325 82.166 177.911C81.3905 177.055 80.7012 176.285 80.6151 176.187C78.2427 172.879 75.589 165.096 78.3174 161.425C80.2647 158.783 83.9926 158.76 86.3304 160.851C88.6683 162.942 89.2025 166.945 88.9383 169.972C88.674 172.999 85.6411 178.629 84.8197 180.093L87.037 181.932C90.5638 184.901 94.0677 187.877 97.5946 190.691C98.8411 191.685 100.099 192.616 101.357 193.563C100.668 192.805 100.093 192.156 100.019 192.053C97.6406 188.744 94.9925 180.961 97.721 177.29C99.674 174.648 103.396 174.625 105.734 176.745C108.072 178.864 108.606 182.839 108.342 185.866C108.078 188.801 105.338 193.977 104.373 195.723C105.688 196.642 107.003 197.567 108.325 198.4C109.238 198.946 110.077 199.549 111.024 200.037L113.782 201.565C115.568 202.472 117.406 203.42 119.169 204.259C120.393 204.833 121.571 205.408 122.754 205.948C121.507 204.977 119.101 203.018 118.917 202.829C116.503 200.181 114.811 196.957 114.006 193.466C113.723 193.183 113.467 192.876 113.242 192.547C111.484 189.933 112.035 186.228 114.965 184.694C118.986 182.54 126.309 186.28 129.239 189.106C129.411 189.272 131.083 191.289 132.111 192.581C131.617 191.731 131.129 190.91 130.629 190.025C129.635 188.302 128.693 186.521 127.676 184.625L126.281 181.799C125.798 180.869 125.402 179.823 124.954 178.824C123.96 176.486 123.07 174.074 122.225 171.621C120.697 172.488 115.241 175.487 112.202 175.785C109.163 176.084 105.234 175.619 103.052 173.252C100.869 170.886 100.903 167.209 103.534 165.239C107.182 162.499 114.988 165.084 118.314 167.433C118.52 167.583 120.715 169.536 121.904 170.633C121.41 169.151 120.904 167.68 120.45 166.17C119.141 161.804 117.952 157.347 116.745 152.901C116.378 151.539 115.993 150.19 115.597 148.834C115.062 149.15 108.646 152.855 105.257 153.194C102.23 153.487 98.2954 153.027 96.1126 150.661C93.9299 148.294 93.9644 144.618 96.5894 142.619C100.237 139.885 108.049 142.47 111.375 144.819C111.622 144.991 114.781 147.812 115.545 148.564C114.712 145.583 113.822 142.619 112.885 139.73C111.603 135.822 110.068 132.002 108.29 128.293C108.043 128.442 101.368 132.314 97.8761 132.687C94.8489 132.98 90.9142 132.521 88.7315 130.154C86.5487 127.788 86.5832 124.106 89.2082 122.112C92.8557 119.372 100.668 121.957 103.988 124.307C104.212 124.462 106.619 126.604 107.739 127.655L107.945 127.495C106.052 123.812 103.834 120.306 101.317 117.017C99.9555 115.191 98.5539 113.519 97.1523 111.928C96.0035 112.784 90.5983 116.627 87.4907 117.282C84.5153 117.908 80.5519 117.856 78.1221 115.765C75.6924 113.674 75.3247 109.992 77.72 107.723C81.0401 104.599 89.0876 106.31 92.6547 108.298C92.85 108.407 94.6996 109.717 96.0322 110.687C95.3889 109.975 94.7398 109.228 94.1079 108.562C91.7471 106.046 89.4323 103.892 87.3644 101.997C86.1811 100.934 85.0667 99.9919 84.0558 99.1245C82.4704 99.3658 76.0772 100.273 73.0731 99.4175C70.0689 98.5616 66.6397 96.7522 65.4564 93.7595C64.2731 90.7668 65.6287 87.3434 68.7937 86.453C73.1822 85.2123 79.5294 90.4394 81.7869 93.8285C81.9822 94.1214 84.5038 99.0556 84.4177 99.0728H84.3257C85.3367 99.8885 86.4051 100.796 87.5597 101.773C89.6678 103.622 92.0401 105.736 94.4526 108.206C97.1037 110.839 99.5971 113.626 101.92 116.552C104.532 119.815 106.849 123.304 108.842 126.978L108.905 127.116C108.664 125.8 108.095 122.107 108.083 121.819C107.923 117.747 110.008 109.791 114.293 108.229C117.377 107.08 120.496 109.136 121.278 112.192C122.059 115.248 120.192 118.884 118.291 121.268Z" fill="black"/>
</g>
<path d="M379.291 165.164H347.228V194.189H379.291V165.164Z" fill="white" stroke="#263238" stroke-linecap="round" stroke-linejoin="round"/>
<path d="M375.069 167.761H349.962V191.599H375.069V167.761Z" fill="white" stroke="#263238" stroke-linecap="round" stroke-linejoin="round"/>
<path d="M377.832 173.453C377.833 173.601 377.79 173.746 377.709 173.87C377.628 173.993 377.511 174.09 377.375 174.147C377.239 174.205 377.088 174.22 376.943 174.192C376.798 174.164 376.664 174.093 376.559 173.989C376.454 173.885 376.383 173.752 376.353 173.607C376.324 173.462 376.339 173.311 376.395 173.175C376.451 173.038 376.547 172.921 376.67 172.838C376.793 172.756 376.937 172.712 377.085 172.712C377.282 172.712 377.471 172.79 377.611 172.929C377.751 173.068 377.831 173.256 377.832 173.453Z" fill="white" stroke="#263238" stroke-linecap="round" stroke-linejoin="round"/>
<path d="M377.832 178.881C377.832 179.029 377.788 179.173 377.706 179.296C377.624 179.419 377.508 179.515 377.371 179.571C377.235 179.628 377.085 179.643 376.94 179.614C376.795 179.585 376.662 179.514 376.557 179.409C376.453 179.305 376.382 179.172 376.353 179.027C376.324 178.882 376.339 178.732 376.395 178.596C376.452 178.459 376.548 178.342 376.671 178.26C376.793 178.178 376.938 178.135 377.085 178.135C377.283 178.135 377.473 178.213 377.613 178.353C377.753 178.493 377.832 178.683 377.832 178.881Z" fill="white" stroke="#263238" stroke-linecap="round" stroke-linejoin="round"/>
<path d="M377.832 184.281C377.833 184.429 377.79 184.574 377.709 184.697C377.628 184.821 377.511 184.917 377.375 184.975C377.239 185.032 377.088 185.048 376.943 185.02C376.798 184.991 376.664 184.921 376.559 184.817C376.454 184.712 376.383 184.579 376.353 184.434C376.324 184.289 376.339 184.139 376.395 184.002C376.451 183.865 376.547 183.748 376.67 183.666C376.793 183.584 376.937 183.54 377.085 183.54C377.282 183.54 377.471 183.618 377.611 183.756C377.751 183.895 377.831 184.084 377.832 184.281Z" fill="white" stroke="#263238" stroke-linecap="round" stroke-linejoin="round"/>
<path d="M381.985 221.727H344.051V256.748H381.985V221.727Z" fill="white" stroke="#263238" stroke-linecap="round" stroke-linejoin="round"/>
<path d="M381.985 195.832H344.051V200.738H381.985V195.832Z" fill="white" stroke="#263238" stroke-linecap="round" stroke-linejoin="round"/>
<path d="M381.985 202.909H344.051V207.814H381.985V202.909Z" fill="white" stroke="#263238" stroke-linecap="round" stroke-linejoin="round"/>
<path d="M381.985 209.991H344.051V214.897H381.985V209.991Z" fill="white" stroke="#263238" stroke-linecap="round" stroke-linejoin="round"/>
<path d="M381.985 238.7H344.051V256.748H381.985V238.7Z" fill="white" stroke="#263238" stroke-linecap="round" stroke-linejoin="round"/>
<path d="M367.86 228.993H358.176V230.854H367.86V228.993Z" fill="#263238" stroke="#263238" stroke-linecap="round" stroke-linejoin="round"/>
<path d="M367.86 246.874H358.176V248.735H367.86V246.874Z" fill="#263238" stroke="#263238" stroke-linecap="round" stroke-linejoin="round"/>
<path d="M344.149 258.368C344.213 258.208 344.247 258.036 344.246 257.863V196.711H381.439V258.236C381.436 258.28 381.436 258.324 381.439 258.368H384.311C384.315 258.324 384.315 258.28 384.311 258.236V195.281C384.311 194.9 384.16 194.535 383.891 194.265C383.622 193.996 383.256 193.845 382.875 193.845H342.81C342.429 193.845 342.064 193.996 341.795 194.265C341.526 194.535 341.374 194.9 341.374 195.281V257.891C341.377 258.064 341.41 258.236 341.472 258.397L344.149 258.368Z" fill="white" stroke="#263238" stroke-linecap="round" stroke-linejoin="round"/>
<path d="M362.811 65.0907C363.416 64.2375 363.946 63.3344 364.397 62.391C371.422 47.7435 358.762 27.059 336.119 16.1969C313.475 5.33483 289.419 8.39643 282.394 23.0439C282.273 23.2966 282.158 23.5436 282.049 23.8021" stroke="#263238" stroke-linecap="round" stroke-linejoin="round"/>
<path d="M362.448 65.8632C369.475 51.216 356.815 30.535 334.17 19.671C311.526 8.80697 287.472 11.8739 280.445 26.5212C273.418 41.1684 286.078 61.8494 308.722 72.7134C331.367 83.5775 355.421 80.5105 362.448 65.8632Z" stroke="#263238" stroke-linecap="round" stroke-linejoin="round"/>
<path d="M321.255 31.7223C323.13 27.8152 319.752 22.2985 313.711 19.4003C307.67 16.5021 301.254 17.32 299.379 21.2271C297.505 25.1342 300.882 30.6509 306.923 33.5491C312.964 36.4473 319.381 35.6294 321.255 31.7223Z" stroke="#263238" stroke-linecap="round" stroke-linejoin="round"/>
<path d="M315.072 62.2991C313.2 66.2051 306.783 67.0265 300.712 64.1257C294.64 61.2249 291.326 55.6991 293.199 51.8046C295.071 47.9101 301.493 47.083 307.559 49.978C313.625 52.873 316.95 58.3931 315.072 62.2991Z" stroke="#263238" stroke-linecap="round" stroke-linejoin="round"/>
<path d="M349.135 41.7869C347.256 45.6929 340.84 46.5143 334.774 43.6135C328.709 40.7128 325.354 35.1984 327.232 31.2924C329.111 27.3864 335.521 26.565 341.593 29.4658C347.664 32.3666 350.996 37.8924 349.135 41.7869Z" stroke="#263238" stroke-linecap="round" stroke-linejoin="round"/>
<path d="M340.616 73.2933C338.743 77.1993 332.327 78.0149 326.285 75.1199C320.242 72.2249 316.87 66.7048 318.743 62.793C320.615 58.8813 327.031 58.0714 333.074 60.9722C339.117 63.8729 342.489 69.3815 340.616 73.2933Z" stroke="#263238" stroke-linecap="round" stroke-linejoin="round"/>
<path d="M303.463 41.5514C301.585 45.4631 295.169 46.2788 289.103 43.378C283.037 40.4772 279.712 34.9686 281.59 31.0569C283.468 27.1452 289.879 26.3352 295.921 29.2303C301.964 32.1253 305.336 37.6454 303.463 41.5514Z" stroke="#263238" stroke-linecap="round" stroke-linejoin="round"/>
<path d="M358.8 62.8339C360.674 58.9268 357.297 53.4101 351.256 50.5119C345.215 47.6137 338.798 48.4316 336.924 52.3387C335.049 56.2458 338.427 61.7625 344.468 64.6607C350.508 67.5588 356.925 66.741 358.8 62.8339Z" stroke="#263238" stroke-linecap="round" stroke-linejoin="round"/>
<path d="M29.4983 65.0907C28.894 64.2375 28.3636 63.3344 27.9129 62.391C20.8879 47.7435 33.5479 27.059 56.1911 16.1969C78.8344 5.33483 102.891 8.39643 109.916 23.0439C110.036 23.2966 110.151 23.5436 110.26 23.8021" stroke="#263238" stroke-linecap="round" stroke-linejoin="round"/>
<path d="M83.5728 72.7225C106.217 61.8585 118.878 41.1775 111.85 26.5302C104.823 11.8829 80.7694 8.81598 58.1249 19.68C35.4804 30.544 22.8201 51.225 29.8473 65.8723C36.8746 80.5195 60.9283 83.5865 83.5728 72.7225Z" stroke="#263238" stroke-linecap="round" stroke-linejoin="round"/>
<path d="M85.3717 33.5556C91.4125 30.6575 94.79 25.1407 92.9155 21.2336C91.0411 17.3265 84.6245 16.5087 78.5836 19.4068C72.5428 22.305 69.1653 27.8217 71.0398 31.7288C72.9143 35.6359 79.3309 36.4538 85.3717 33.5556Z" stroke="#263238" stroke-linecap="round" stroke-linejoin="round"/>
<path d="M77.2318 62.2991C79.1101 66.2051 85.5263 67.0265 91.5633 64.1257C97.6004 61.2249 100.984 55.7106 99.1053 51.8046C97.227 47.8986 90.8166 47.083 84.7738 49.955C78.731 52.8271 75.3592 58.3931 77.2318 62.2991Z" stroke="#263238" stroke-linecap="round" stroke-linejoin="round"/>
<path d="M57.5079 43.619C63.5488 40.7209 66.9262 35.2041 65.0518 31.297C63.1773 27.39 56.7607 26.5721 50.7199 29.4702C44.679 32.3684 41.3015 37.8852 43.176 41.7922C45.0505 45.6993 51.4671 46.5172 57.5079 43.619Z" stroke="#263238" stroke-linecap="round" stroke-linejoin="round"/>
<path d="M51.6936 73.2933C53.5662 77.1993 59.9824 78.0149 66.0194 75.1199C72.0565 72.2249 75.4397 66.7048 73.5672 62.793C71.6946 58.8813 65.2727 58.0714 59.2069 60.9722C53.1411 63.8729 49.8153 69.3815 51.6936 73.2933Z" stroke="#263238" stroke-linecap="round" stroke-linejoin="round"/>
<path d="M103.179 43.388C109.22 40.4898 112.597 34.973 110.723 31.066C108.848 27.1589 102.432 26.341 96.3908 29.2392C90.3499 32.1373 86.9724 37.6541 88.8469 41.5612C90.7214 45.4682 97.138 46.2861 103.179 43.388Z" stroke="#263238" stroke-linecap="round" stroke-linejoin="round"/>
<path d="M47.8292 64.6701C53.87 61.772 57.2475 56.2552 55.3731 52.3481C53.4986 48.4411 47.082 47.6232 41.0411 50.5213C35.0003 53.4195 31.6228 58.9362 33.4973 62.8433C35.3718 66.7504 41.7884 67.5683 47.8292 64.6701Z" stroke="#263238" stroke-linecap="round" stroke-linejoin="round"/>
<path d="M293.555 217.981C280.797 209.273 251.341 206.131 243.007 203.472C234.672 200.812 226.774 197.182 223.988 188.233C221.202 179.283 223.758 160.179 223.758 160.179L198.013 165.498L172.268 160.179C172.268 160.179 174.818 179.283 172.038 188.233C169.258 197.182 161.366 200.812 153.02 203.472C144.673 206.131 115.212 209.273 102.471 217.981C89.731 226.69 84.8428 258.368 84.8428 258.368H311.218C311.218 258.368 306.335 226.69 293.555 217.981Z" fill="white" stroke="#263238" stroke-linecap="round" stroke-linejoin="round"/>
<path d="M198.369 178.416L203.407 171.219L192.12 164.263L172.274 160.161C172.274 160.161 174.106 173.907 172.963 183.54L198.369 178.416Z" fill="#263238" stroke="#263238" stroke-linecap="round" stroke-linejoin="round"/>
<path d="M182.269 223.364L187.352 224.237" stroke="#263238" stroke-linecap="round" stroke-linejoin="round"/>
<path d="M149.033 217.654L177.627 222.565" stroke="#263238" stroke-linecap="round" stroke-linejoin="round"/>
<path d="M239.6 218.039L208.249 224.622" stroke="#263238" stroke-linecap="round" stroke-linejoin="round"/>
<path d="M276.225 78.348C276.225 72.8107 273.043 67.8535 272.072 62.4426C270.883 55.8599 266.707 51.5288 261.6 47.3873C261.6 47.3873 261.669 45.5205 259.303 40.2187C255.856 32.4756 244.397 26.1686 244.397 26.1686C241.685 24.2858 238.503 23.1939 235.206 23.0151C235.206 23.0151 231.518 15.8464 216.302 11.8313C201.086 7.81619 199.099 10.401 199.099 10.401C199.099 10.401 197.094 7.82194 181.901 11.8313C166.708 15.8407 162.974 23.0151 162.974 23.0151C159.677 23.1939 156.495 24.2858 153.784 26.1686C153.784 26.1686 142.295 32.4871 138.878 40.2187C136.517 45.5205 136.58 47.3873 136.58 47.3873C131.479 51.5346 127.303 55.8599 126.114 62.4426C125.138 67.8535 121.961 72.782 121.961 78.348C121.961 83.7992 125.115 90.9851 125.115 90.9851C125.115 90.9851 124.253 99.6012 127.412 105.345C130.572 111.089 134.88 113.387 134.88 113.387C134.88 113.387 132.008 118.832 139.182 123.991C146.356 129.149 150.096 129.16 150.096 129.16C150.096 129.16 149.521 130.884 154.117 131.458C156.95 131.765 159.8 131.054 162.158 129.453C162.158 129.453 152.123 93.6159 161.871 76.9867C171.619 60.3575 185.629 53.4014 190.787 52.827C193.546 52.497 196.32 52.3053 199.099 52.2526C199.099 52.2526 202.252 52.2526 207.416 52.827C212.58 53.4014 226.624 60.2943 236.372 76.912C246.12 93.5297 236.085 129.379 236.085 129.379C238.443 130.979 241.293 131.69 244.127 131.383C248.722 130.809 248.148 129.086 248.148 129.086C248.148 129.086 251.87 129.086 259.061 123.916C266.253 118.746 263.364 113.312 263.364 113.312C263.364 113.312 267.666 111.015 270.831 105.271C273.996 99.5265 273.129 90.9104 273.129 90.9104C273.129 90.9104 276.225 83.7992 276.225 78.348Z" fill="#4A3589" stroke="#263238" stroke-linecap="round" stroke-linejoin="round"/>
<path d="M139.55 111.549C139.55 111.549 146.776 112.48 151.779 111.181" stroke="#263238" stroke-linecap="round" stroke-linejoin="round"/>
<path d="M128.24 90.2326C128.24 90.2326 142.33 93.7595 148.074 92.4613" stroke="#263238" stroke-linecap="round" stroke-linejoin="round"/>
<path d="M138.464 49.0876C138.464 49.0876 146.437 61.6901 155.122 64.6541" stroke="#263238" stroke-linecap="round" stroke-linejoin="round"/>
<path d="M168.259 36.6631C170.022 40.437 172.176 44.2108 174.393 46.1236" stroke="#263238" stroke-linecap="round" stroke-linejoin="round"/>
<path d="M164.014 25.9159C164.014 25.9159 164.973 28.8971 166.501 32.6365" stroke="#263238" stroke-linecap="round" stroke-linejoin="round"/>
<path d="M233.891 26.2892C233.891 26.2892 229.261 41.1148 224.252 46.5085" stroke="#263238" stroke-linecap="round" stroke-linejoin="round"/>
<path d="M259.469 51.3105C259.469 51.3105 247.602 61.3225 241.283 63.1664" stroke="#263238" stroke-linecap="round" stroke-linejoin="round"/>
<path d="M269.108 91.3469C269.108 91.3469 255.207 95.9824 247.981 95.0519" stroke="#263238" stroke-linecap="round" stroke-linejoin="round"/>
<path d="M243.903 111.922C243.903 111.922 249.279 114.329 257.43 112.847" stroke="#263238" stroke-linecap="round" stroke-linejoin="round"/>
<path d="M157.046 69.5653C147.855 91.4389 155.518 121.768 162.061 142.326C163.077 145.531 164.157 148.708 165.249 151.89C168.735 162.091 189.11 176.164 191.798 178.043C194.486 179.921 202.832 179.272 205.521 177.928C208.209 176.584 226.199 160.213 229.146 152.964C232.093 145.715 244.896 102.002 243.104 88.2566C239.882 63.557 227.268 57.8416 213.304 53.545C199.34 49.2484 181.355 51.1268 171.688 57.5659C164.68 62.2416 159.999 62.5575 157.046 69.5653Z" fill="white" stroke="#263238" stroke-linecap="round" stroke-linejoin="round"/>
<path d="M170.028 106.046L168.5 108.878" stroke="#263238" stroke-linecap="round" stroke-linejoin="round"/>
<path d="M183.768 110.624C183.768 110.624 178.529 111.716 174.606 111.279C170.683 110.842 166.535 107.792 166.535 107.792C166.535 107.792 165.668 110.842 169.373 112.589C173.078 114.335 177.88 113.68 183.768 110.624Z" fill="#263238" stroke="#263238" stroke-linecap="round" stroke-linejoin="round"/>
<path d="M225.981 106.046L227.509 108.878" stroke="#263238" stroke-linecap="round" stroke-linejoin="round"/>
<path d="M212.241 110.624C212.241 110.624 217.474 111.716 221.403 111.279C225.332 110.842 229.445 107.792 229.445 107.792C229.445 107.792 230.37 110.842 226.636 112.566C222.902 114.289 218.129 113.68 212.241 110.624Z" fill="#263238" stroke="#263238" stroke-linecap="round" stroke-linejoin="round"/>
<path d="M190.086 130.252C190.086 130.252 189.001 134.612 189.874 136.57C190.456 137.803 191.358 138.856 192.487 139.62" stroke="#263238" stroke-linecap="round" stroke-linejoin="round"/>
<path d="M205.452 130.252C205.452 130.252 206.543 134.612 205.67 136.57C205.084 137.802 204.18 138.856 203.051 139.62" stroke="#263238" stroke-linecap="round" stroke-linejoin="round"/>
<path d="M191.833 137.013C191.833 137.013 193.263 136.335 194.572 137.863C195.882 139.391 197.875 140.499 199.168 139.844C200.46 139.19 202.499 136.794 202.499 136.794C202.947 136.471 203.504 136.335 204.05 136.415" stroke="#263238" stroke-linecap="round" stroke-linejoin="round"/>
<path d="M184.681 150.919C184.681 150.919 188.127 153.688 190.999 156.456C193.871 159.225 197.594 159.328 200.362 159.093C203.131 158.857 205.768 157.37 206.957 155.646C208.146 153.923 211.833 150.505 211.833 150.505L184.681 150.919Z" fill="#4A3589" stroke="#263238" stroke-linecap="round" stroke-linejoin="round"/>
<path d="M215.142 148.547C215.142 148.547 210.966 149.414 209.702 149.006C207.123 148.168 202.947 147.668 201.431 147.49C200.167 147.341 198.708 147.898 197.668 148.415C196.629 147.898 195.17 147.341 193.906 147.49C192.344 147.674 187.949 148.248 185.393 149.081C184.245 149.454 180.855 149.081 180.855 149.081C180.855 149.081 184.25 150.707 185.393 150.954C188.007 151.528 192.642 152.499 194.911 152.774C195.486 152.843 195.934 152.889 196.359 152.924C197.229 153.016 198.107 153.016 198.978 152.924C199.403 152.889 199.88 152.843 200.431 152.774C202.557 152.516 206.75 151.626 209.444 151.051C210.84 150.747 215.142 148.547 215.142 148.547Z" fill="#4A3589" stroke="#263238" stroke-linecap="round" stroke-linejoin="round"/>
<path d="M187.559 93.2597C187.559 93.2597 174.146 91.2493 169.413 91.6571C164.68 92.065 163.29 97.3553 163.29 97.3553C163.29 97.3553 164.772 94.5751 170.051 94.3856C175.33 94.196 184.021 96.7464 186.875 96.1088C189.73 95.4712 191.241 95.2013 190.218 94.0984C189.867 93.7673 189.445 93.5199 188.985 93.3747C188.524 93.2295 188.037 93.1902 187.559 93.2597Z" fill="#263238"/>
<path d="M208.605 93.2597C208.605 93.2597 222.012 91.2493 226.745 91.6571C231.478 92.065 232.868 97.3553 232.868 97.3553C232.868 97.3553 231.386 94.5751 226.107 94.3856C220.829 94.196 212.138 96.7464 209.283 96.1088C206.428 95.4712 204.917 95.2013 205.94 94.0984C206.292 93.7668 206.715 93.5192 207.177 93.374C207.638 93.2287 208.126 93.1897 208.605 93.2597Z" fill="#263238"/>
<path d="M191.614 89.0148L190.511 88.6932" stroke="#4A3589" stroke-linecap="round" stroke-linejoin="round"/>
<path d="M188.168 88.0613C182.607 86.6081 171.762 84.1554 166.598 85.5799C164.84 86.0912 163.2 86.9452 161.772 88.0926C160.345 89.2401 159.158 90.6584 158.281 92.266" stroke="#4A3589" stroke-linecap="round" stroke-linejoin="round" stroke-dasharray="4.23 4.23"/>
<path d="M157.718 93.3459C157.552 93.6913 157.406 94.0461 157.282 94.4085" stroke="#4A3589" stroke-linecap="round" stroke-linejoin="round"/>
<path d="M203.372 89.0148L204.475 88.6932" stroke="#4A3589" stroke-linecap="round" stroke-linejoin="round"/>
<path d="M206.819 88.0613C212.379 86.6081 223.23 84.1554 228.388 85.5799C230.148 86.0903 231.789 86.9438 233.218 88.0913C234.646 89.2388 235.833 90.6576 236.711 92.266" stroke="#4A3589" stroke-linecap="round" stroke-linejoin="round" stroke-dasharray="4.23 4.23"/>
<path d="M237.262 93.3459C237.425 93.6919 237.569 94.0467 237.693 94.4085" stroke="#4A3589" stroke-linecap="round" stroke-linejoin="round"/>
<path d="M156.546 118.689C156.546 118.689 173.957 132.664 188.179 117.46" stroke="#4A3589" stroke-linecap="round" stroke-linejoin="round" stroke-dasharray="4 4"/>
<path d="M162.675 136.587C164.47 137.671 166.501 138.304 168.593 138.432C170.686 138.56 172.778 138.18 174.692 137.323C181.315 134.382 189.161 123.836 189.161 123.836" stroke="#4A3589" stroke-linecap="round" stroke-linejoin="round" stroke-dasharray="4 4"/>
<path d="M237.963 118.689C237.963 118.689 220.553 132.664 206.331 117.46" stroke="#4A3589" stroke-linecap="round" stroke-linejoin="round" stroke-dasharray="4 4"/>
<path d="M231.834 136.587C230.04 137.672 228.009 138.305 225.917 138.433C223.824 138.561 221.731 138.18 219.818 137.323C213.195 134.382 205.348 123.836 205.348 123.836" stroke="#4A3589" stroke-linecap="round" stroke-linejoin="round" stroke-dasharray="4 4"/>
<path d="M187.042 173.413C187.042 173.413 196.049 176.67 210.989 173.131" stroke="#4A3589" stroke-linecap="round" stroke-linejoin="round" stroke-dasharray="4 4"/>
<path d="M198.725 160.38V174.539" stroke="#4A3589" stroke-linecap="round" stroke-linejoin="round" stroke-dasharray="4 4"/>
<path d="M157.517 133.359C157.088 133.369 156.666 133.241 156.315 132.992C155.965 132.744 155.703 132.389 155.57 131.981C148.154 106.856 148.815 87.4525 155.185 73.3909C158.444 66.1837 163.806 60.1305 170.568 56.0265C180.873 49.6563 199.501 47.9503 213.901 52.0573C226.113 55.5497 241.473 65.1711 245.109 91.2263C246.332 99.9344 242.472 119.763 239.307 130.803C239.145 131.299 238.798 131.714 238.338 131.962C237.879 132.21 237.342 132.272 236.837 132.136C236.589 132.085 236.353 131.985 236.145 131.84C235.937 131.696 235.76 131.511 235.626 131.296C235.491 131.081 235.402 130.841 235.364 130.59C235.325 130.339 235.338 130.084 235.401 129.838C240.657 111.503 241.932 97.608 241.1 91.7088C239.233 78.4227 232.794 61.38 212.712 55.6474C199.575 51.8907 182.05 53.4359 172.808 59.1513C166.696 62.8595 161.852 68.3329 158.913 74.8499C152.905 88.0613 152.302 106.689 159.487 130.97C159.553 131.214 159.568 131.468 159.532 131.718C159.495 131.968 159.408 132.208 159.276 132.423C159.144 132.638 158.969 132.824 158.762 132.969C158.556 133.114 158.322 133.216 158.074 133.267C157.894 133.323 157.706 133.354 157.517 133.359Z" fill="#4A3589" stroke="#263238" stroke-linecap="round" stroke-linejoin="round"/>
<path d="M324.713 210.235L322.076 205.808L242.105 253.443L244.742 257.869L324.713 210.235Z" fill="white" stroke="#263238" stroke-linecap="round" stroke-linejoin="round"/>
<path d="M321.751 258.371L324.446 253.979L245.105 205.301L242.41 209.693L321.751 258.371Z" fill="white" stroke="#263238" stroke-linecap="round" stroke-linejoin="round"/>
<path d="M247.01 202.771H241.611V258.179H247.01V202.771Z" fill="white" stroke="#263238" stroke-linecap="round" stroke-linejoin="round"/>
<path d="M326.52 202.771H321.121V258.179H326.52V202.771Z" fill="white" stroke="#263238" stroke-linecap="round" stroke-linejoin="round"/>
<path d="M326.52 202.771H241.611V207.809H326.52V202.771Z" fill="white" stroke="#263238" stroke-linecap="round" stroke-linejoin="round"/>
<path d="M283.577 151.953C283.577 151.953 284.956 154.997 285.249 155.503C285.542 156.008 284.014 158.191 283.359 158.26C282.704 158.329 281.693 157.686 280.97 157.175C280.246 156.663 279.373 153.154 279.591 152.579C279.809 152.005 283.577 151.953 283.577 151.953Z" fill="white" stroke="#263238" stroke-linecap="round" stroke-linejoin="round"/>
<path d="M281.234 154.498C281.234 154.498 281.205 154.877 282.055 155.445C282.79 155.817 283.604 156.003 284.427 155.985" stroke="#263238" stroke-linecap="round" stroke-linejoin="round"/>
<path d="M284.238 156.836C284.238 156.836 283.887 156.014 283.445 156.014C283.003 156.014 282.497 157.06 282.497 157.404C282.497 157.749 283.037 158.197 283.037 158.197" stroke="#263238" stroke-linecap="round" stroke-linejoin="round"/>
<path d="M282.469 155.733C282.469 155.733 281.647 156.014 281.521 156.52C281.471 156.903 281.548 157.292 281.739 157.628" stroke="#263238" stroke-linecap="round" stroke-linejoin="round"/>
<path d="M281.676 155.227C281.388 155.306 281.134 155.48 280.957 155.721C280.78 155.962 280.689 156.255 280.7 156.554" stroke="#263238" stroke-linecap="round" stroke-linejoin="round"/>
<path d="M256.637 164.372C256.637 164.372 256.637 177.216 257.126 178.985C257.614 180.754 259.998 196.315 259.998 196.315C259.998 196.315 259.038 196.659 259.038 196.998C259.038 197.337 259.176 198.566 259.176 198.566C259.176 198.566 257.884 199.796 257.131 200.548C256.379 201.301 255.563 201.295 255.408 201.978C255.381 202.185 255.419 202.394 255.516 202.577C255.614 202.761 255.767 202.909 255.954 203.001C255.954 203.001 259.705 203.478 261.48 203.478C263.255 203.478 266.46 203.07 266.46 203.07C266.692 202.631 266.788 202.133 266.735 201.64C266.554 200.554 266.303 199.482 265.983 198.429C265.983 198.429 265.914 196.705 265.914 195.976C265.914 195.246 265.231 191.955 265.231 191.955L264.771 177.198L266.712 165.411L269.585 165.796C269.585 165.796 272.933 176.71 273.479 177.75L283.118 195.855C283.118 195.855 282.026 196.062 282.026 196.47C282.151 197.1 282.334 197.717 282.572 198.314C281.972 199.05 281.336 199.755 280.665 200.428C280.05 200.973 279.16 201.312 279.516 201.795C279.872 202.277 285.45 202.541 286.61 202.541C287.77 202.541 289.137 201.726 289.27 201.243C289.402 200.761 288.247 197.9 288.247 197.699C288.292 196.785 288.225 195.868 288.046 194.971C287.77 194.011 286.817 192.857 286.679 192.242C286.541 191.628 280.809 173.545 280.809 173.545L279.66 163.166L279.459 161.936C279.459 161.936 266.219 163.085 263.22 162.683C260.222 162.281 256.942 161.592 256.942 161.592L256.637 164.372Z" fill="#263238" stroke="#263238" stroke-linecap="round" stroke-linejoin="round"/>
<path d="M257.901 131.447C257.901 131.447 256.471 142.854 256.58 144.991C256.689 147.128 256.689 154.32 256.689 155.802C256.689 157.284 255.816 165.946 255.816 165.946L259.435 167.094L260.814 163.918V167.755C260.814 167.755 268.987 167.812 272.715 167.261C276.443 166.71 281.165 164.579 283.083 163.148L280.395 153.441C281.219 153.532 282.052 153.495 282.865 153.332C283.63 152.999 284.32 152.514 284.893 151.907C284.893 151.907 282.532 141.648 280.998 137.202C279.465 132.756 277.213 125.519 275.898 124.479C274.582 123.439 271.836 122.997 271.836 122.997C271.836 122.997 265.472 121.791 260.101 124.203C260.096 124.203 258.516 125.628 257.901 131.447Z" fill="white" stroke="#263238" stroke-linecap="round" stroke-linejoin="round"/>
<path d="M260.584 108.792C260.265 109.318 260.059 109.905 259.981 110.515C259.929 111.394 260.038 111.779 259.602 112.491C259.165 113.203 257.953 113.312 257.878 113.588C257.804 113.864 258.591 115.122 258.591 115.122C258.689 116.391 258.854 117.655 259.085 118.907C259.303 119.619 261.44 119.677 261.44 119.677L261.773 122.417C263.433 121.738 265.169 121.259 266.942 120.992C269.355 120.717 269.688 120.717 269.688 120.717C269.688 120.717 268.643 117.919 268.752 116.121C268.861 114.323 269.522 110.033 268.149 107.678C266.776 105.322 262.945 105.61 260.584 108.792Z" fill="white" stroke="#263238" stroke-linecap="round" stroke-linejoin="round"/>
<path d="M260.647 112.491C260.584 112.824 260.434 113.065 260.314 113.065C260.193 113.065 260.147 112.755 260.21 112.422C260.273 112.089 260.417 111.848 260.538 111.848C260.658 111.848 260.71 112.158 260.647 112.491Z" fill="white" stroke="#263238" stroke-linecap="round" stroke-linejoin="round"/>
<path d="M260.239 110.894C260.239 110.894 260.756 110.038 261.279 111.417L260.239 110.894Z" fill="white"/>
<path d="M260.239 110.894C260.239 110.894 260.756 110.038 261.279 111.417" stroke="#263238" stroke-linecap="round" stroke-linejoin="round"/>
<path d="M263.111 103.731C262.556 103.959 262.054 104.301 261.639 104.734C261.223 105.168 260.903 105.683 260.698 106.247C259.82 108.499 260.256 110.308 261.572 111.515C262.887 112.721 265.087 116.834 264.369 117.988C263.651 119.143 262.232 118.482 262.232 118.482C262.232 118.482 263.766 121.113 265.742 121.354C267.591 121.572 269.458 121.126 271.009 120.096C272.543 119.108 275.07 116.253 275.122 113.203C275.187 110.796 274.45 108.436 273.025 106.494C271.003 103.806 266.247 102.445 263.111 103.731Z" fill="#263238" stroke="#263238" stroke-linecap="round" stroke-linejoin="round"/>
<path d="M259.665 123.106C259.665 123.106 261.583 120.636 266.414 120.527C271.245 120.418 271.951 121.791 272.06 122.336C272.169 122.882 272.227 123.382 272.227 123.382C272.227 123.382 267.781 122.94 265.041 123.543C262.301 124.146 261.365 124.312 261.365 124.312L259.665 123.106Z" fill="white" stroke="#263238" stroke-linecap="round" stroke-linejoin="round"/>
<path d="M239.463 100.268L248.578 101.238C248.75 101.259 248.907 101.346 249.015 101.482C249.123 101.617 249.172 101.79 249.153 101.962C249.131 102.133 249.043 102.29 248.908 102.397C248.773 102.504 248.601 102.554 248.429 102.536L239.239 101.56L237.866 100.704L239.463 100.268Z" fill="white" stroke="#263238" stroke-linecap="round" stroke-linejoin="round"/>
<path d="M239.348 100.296L237.866 100.71L239.124 101.497L239.348 100.296Z" stroke="#263238" stroke-linecap="round" stroke-linejoin="round"/>
<path d="M238.773 100.457L237.866 100.71L238.653 101.204L238.773 100.457Z" stroke="#263238" stroke-linecap="round" stroke-linejoin="round"/>
<path d="M248.578 101.238L247.384 101.112C247.235 101.428 247.159 101.774 247.16 102.123C247.154 102.217 247.154 102.311 247.16 102.404L248.423 102.542C248.595 102.56 248.767 102.51 248.902 102.403C249.038 102.295 249.126 102.139 249.147 101.968C249.168 101.796 249.12 101.622 249.014 101.486C248.907 101.349 248.751 101.26 248.578 101.238Z" fill="white" stroke="#263238" stroke-linecap="round" stroke-linejoin="round"/>
<path d="M246.522 108.292C246.522 108.292 246.08 106.213 246.005 105.506C245.839 104.674 245.615 103.854 245.333 103.054C245.101 102.489 244.828 101.942 244.518 101.416C244.156 100.894 243.403 100.044 242.88 99.9689C242.358 99.8943 242.306 99.8943 242.099 100.078C241.892 100.262 241.467 100.566 241.467 100.566C240.934 100.725 240.432 100.976 239.985 101.307C239.636 101.88 239.384 102.507 239.239 103.163C239.239 103.278 238.664 104.059 238.831 104.311C238.997 104.564 240.428 103.415 240.428 103.415C240.428 103.415 241.284 105.575 241.508 106.132C241.732 106.69 243.231 108.062 243.231 108.062L244.081 110.624L246.522 108.292Z" fill="white" stroke="#263238" stroke-linecap="round" stroke-linejoin="round"/>
<path d="M241.467 100.566C241.798 100.527 242.133 100.576 242.438 100.71C242.731 100.918 242.962 101.202 243.104 101.531" stroke="#263238" stroke-linecap="round" stroke-linejoin="round"/>
<path d="M239.985 101.307C240.4 101.215 240.829 101.202 241.249 101.267C241.547 101.47 241.821 101.708 242.065 101.974" stroke="#263238" stroke-linecap="round" stroke-linejoin="round"/>
<path d="M239.239 103.163C239.239 103.163 239.721 102.387 240.02 102.313C240.408 102.294 240.798 102.344 241.169 102.462" stroke="#263238" stroke-linecap="round" stroke-linejoin="round"/>
<path d="M264.972 125.41L256.638 121.842L252.042 119.378L246.499 107.856L243.053 109.998C243.053 109.998 249.193 126.082 249.854 127.001C250.514 127.92 257.091 132.544 257.091 132.544L260.164 135.284" fill="white"/>
<path d="M264.972 125.41L256.638 121.842L252.042 119.378L246.499 107.856L243.053 109.998C243.053 109.998 249.193 126.082 249.854 127.001C250.514 127.92 257.091 132.544 257.091 132.544L260.164 135.284" stroke="#263238" stroke-linecap="round" stroke-linejoin="round"/>
<path d="M280.389 153.441L276.834 140.08L275.421 128.678" stroke="#263238" stroke-linecap="round" stroke-linejoin="round"/>
<path d="M268.855 128.305C268.855 128.305 269.941 129.614 271.032 134.474" stroke="#263238" stroke-linecap="round" stroke-linejoin="round"/>
<path d="M271.319 132.515C271.669 133.766 271.841 135.059 271.831 136.358" stroke="#263238" stroke-linecap="round" stroke-linejoin="round"/>
<path d="M256.741 151.66C256.741 151.66 257.539 151.953 257.89 152.097C258.681 152.261 259.48 152.382 260.285 152.459L260.21 153.762C260.21 153.762 258.326 153.981 257.166 153.188" stroke="#263238" stroke-linecap="round" stroke-linejoin="round"/>
<path d="M9.48584 258.368H415.318" stroke="#263238" stroke-linecap="round" stroke-linejoin="round"/>
<path d="M326.296 159.294C326.296 159.294 324.234 160.592 323.999 161.431C323.845 162.043 323.615 162.633 323.315 163.188C323.16 163.418 320.948 164.257 320.948 164.716C321.051 165.249 321.231 165.764 321.483 166.244C321.483 166.244 320.793 170.977 321.023 171.127C321.674 171.309 322.339 171.437 323.011 171.512V174.028L329.421 173.717L329.496 171.506C331.006 170.573 332.459 169.553 333.85 168.45C334.918 167.456 335.987 166.388 335.682 164.021C335.378 161.655 332.781 157.841 330.26 157.703C327.738 157.565 325.992 157.082 326.296 159.294Z" fill="white" stroke="#263238" stroke-linecap="round" stroke-linejoin="round"/>
<path d="M335.688 164.027C335.383 161.661 332.787 157.846 330.265 157.709C327.744 157.571 325.992 157.1 326.296 159.311C326.296 159.311 327.52 160.609 327.52 161.373C327.52 162.137 325.837 161.373 325.532 162.212C325.228 163.051 326.221 164.734 326.221 164.734C326.221 164.734 325.302 165.423 325.613 165.957C325.923 166.491 326.296 166.641 326.526 166.336C326.756 166.032 327.445 165.647 328.433 166.336C329.421 167.025 328.054 168.858 327.445 169.162C327.011 169.35 326.538 169.429 326.066 169.392C326.567 170.009 327.131 170.571 327.749 171.069C328.407 171.301 329.105 171.393 329.8 171.339C331.209 170.465 332.563 169.506 333.855 168.467C334.912 167.462 335.992 166.394 335.688 164.027Z" fill="#263238" stroke="#263238" stroke-linecap="round" stroke-linejoin="round"/>
<path d="M329.048 172.655L322.861 173.344L320.799 175.636L327.06 174.717L331.184 175.326L330.036 172.81L329.048 172.655Z" fill="white" stroke="#263238" stroke-linecap="round" stroke-linejoin="round"/>
<path d="M316.551 176.887L306.6 178.915L309.695 194.1L319.646 192.072L316.551 176.887Z" fill="white" stroke="#263238" stroke-linecap="round" stroke-linejoin="round"/>
<path d="M315.855 177.026L307.289 178.772L310.228 193.192L318.794 191.446L315.855 177.026Z" fill="white" stroke="#263238" stroke-linecap="round" stroke-linejoin="round"/>
<path d="M312.281 176.986L312.235 176.762C312.19 176.543 312.061 176.351 311.875 176.228C311.69 176.104 311.462 176.06 311.244 176.104C311.025 176.148 310.833 176.277 310.71 176.463C310.586 176.649 310.542 176.876 310.586 177.095L310.632 177.319L309.437 177.566L309.713 178.91L313.676 178.106L313.401 176.756L312.281 176.986Z" fill="white" stroke="#263238" stroke-linecap="round" stroke-linejoin="round"/>
<path d="M310.414 189.146C310.414 189.146 310.109 187.009 310.109 186.4C310.109 185.792 309.116 184.103 308.662 183.419C308.208 182.736 308.047 181.122 307.593 180.903C307.14 180.685 306.749 180.518 306.6 180.978C306.507 181.253 306.43 181.533 306.37 181.817C306.37 181.817 305.146 183.5 305.301 183.879C305.457 184.258 305.451 186.176 305.681 186.55C306.38 187.327 307.12 188.068 307.898 188.767L307.972 190.37L310.414 189.146Z" fill="white" stroke="#263238" stroke-linecap="round" stroke-linejoin="round"/>
<path d="M306.37 181.817L306.904 183.959" stroke="#263238" stroke-linecap="round" stroke-linejoin="round"/>
<path d="M315.716 224.352C315.716 224.352 317.14 235.645 317.14 236.242C317.14 236.839 318.593 247.966 318.743 249.235C318.892 250.505 317.916 252.159 318.065 252.98C318.214 253.802 318.444 255.45 318.519 255.68C318.593 255.91 315.595 257.627 314.774 257.851C313.952 258.075 314.096 259.121 314.55 259.5C315.003 259.879 319.265 260.074 320.765 260.074C322.264 260.074 325.406 260.597 325.934 260C326.242 259.652 326.471 259.243 326.606 258.799C326.73 259.129 326.958 259.411 327.255 259.6C327.552 259.79 327.903 259.878 328.255 259.85C329.45 259.701 329.904 259.85 330.426 259.247C330.949 258.644 331.173 257.001 330.949 256.254C330.692 255.51 330.692 254.701 330.949 253.957C331.248 252.98 331.248 252.383 331.248 250.286C331.248 248.19 331.322 245.639 331.248 245.415C331.173 245.191 330.955 235.581 330.955 235.357C330.955 235.133 332.879 223.002 332.879 223.002L315.899 222.703L315.716 224.352Z" fill="#263238" stroke="#263238" stroke-linecap="round" stroke-linejoin="round"/>
<path d="M322.097 174.792C322.097 174.792 314.538 178.003 314.463 178.307C314.389 178.611 310.799 191.059 310.799 191.059L310.264 188.612C309.596 188.643 308.955 188.884 308.432 189.301C307.736 190.002 307.144 190.799 306.674 191.668C306.674 191.668 309.041 201.433 309.426 201.749C309.811 202.065 311.407 202.053 312.097 201.668C312.786 201.283 315.302 197.395 315.302 197.395L313.314 213.047L311.936 224.576C311.936 224.576 318.254 226.942 322.85 226.942C327.445 226.942 332.931 225.414 332.931 225.414L335.447 224.266C335.447 224.266 335.297 205.31 335.217 202.961C335.136 200.611 334.763 196.642 334.763 196.642C334.763 196.642 335.067 197.866 335.751 197.791C336.435 197.716 338.347 196.642 338.577 195.045C338.81 193.505 338.68 191.931 338.198 190.45C337.738 189.232 337.13 183.425 337.13 182.891C337.13 182.357 336.136 178.083 335.676 177.474C335.217 176.865 331.173 175.337 331.173 175.337C331.173 175.337 329.743 173.344 322.097 174.792Z" fill="white" stroke="#263238" stroke-linecap="round" stroke-linejoin="round"/>
<path d="M334.774 196.631L335.917 182.431" stroke="#263238" stroke-linecap="round" stroke-linejoin="round"/>
<path d="M315.302 197.395L315.606 187.009L314.998 181.512" stroke="#263238" stroke-linecap="round" stroke-linejoin="round"/>
<path d="M331.644 189.376C331.644 189.376 326.905 199.836 326.526 200.6" stroke="#263238" stroke-linecap="round" stroke-linejoin="round"/>
<path d="M327.135 197.32L325.228 201.823" stroke="#263238" stroke-linecap="round" stroke-linejoin="round"/>
<path d="M310.799 191.059L308.811 195.867" stroke="#263238" stroke-linecap="round" stroke-linejoin="round"/>
<path d="M121.734 210.227L119.097 205.801L39.1258 253.435L41.7625 257.862L121.734 210.227Z" fill="white" stroke="#263238" stroke-linecap="round" stroke-linejoin="round"/>
<path d="M118.765 258.371L121.459 253.979L42.1185 205.302L39.424 209.693L118.765 258.371Z" fill="white" stroke="#263238" stroke-linecap="round" stroke-linejoin="round"/>
<path d="M44.0252 202.771H38.6257V258.179H44.0252V202.771Z" fill="white" stroke="#263238" stroke-linecap="round" stroke-linejoin="round"/>
<path d="M123.535 202.771H118.135V258.179H123.535V202.771Z" fill="white" stroke="#263238" stroke-linecap="round" stroke-linejoin="round"/>
<path d="M123.535 202.771H38.6257V207.809H123.535V202.771Z" fill="white" stroke="#263238" stroke-linecap="round" stroke-linejoin="round"/>
<path d="M77.5765 199.06C77.5765 199.06 77.0423 201.932 76.9389 202.84C76.8355 203.748 75.4053 205.201 74.1703 205.511C72.9353 205.821 71.3959 205.097 71.2982 203.661C71.2006 202.225 73.6648 198.75 73.6648 198.75L77.5765 199.06Z" fill="#263238" stroke="#263238" stroke-linecap="round" stroke-linejoin="round"/>
<path d="M79.5238 145.945L78.9091 170.886L72.7515 198.75L78.1394 199.06L86.2961 171.5L89.8402 154.716L91.8391 171.5L92.919 198.75H97.3822L100.157 170.575L97.6924 145.79L79.5238 145.945Z" fill="#263238" stroke="#263238" stroke-linecap="round" stroke-linejoin="round"/>
<path d="M87.8756 114.501L85.1586 116.69L84.9231 147.823H94.6881L92.2353 117.04C92.2353 117.04 88.8406 114.329 87.8756 114.501Z" fill="white" stroke="#263238" stroke-linecap="round" stroke-linejoin="round"/>
<path d="M90.9776 117.253C90.9776 117.253 92.0804 128.85 92.2355 135.301C92.3906 141.751 92.5457 165.882 92.5457 165.882C92.5457 165.882 95.4982 166.658 96.8997 166.422C98.4783 166.063 100.037 165.622 101.57 165.101L97.5488 132.503L97.3133 118.425L90.8569 116.328L90.9776 117.253Z" fill="white" stroke="#263238" stroke-linecap="round" stroke-linejoin="round"/>
<path d="M84.5325 115.237L77.002 118.97L77.8578 138.805L75.7612 165.802C77.7168 166.146 79.6902 166.38 81.6719 166.503C83.4583 166.503 86.4108 166.193 86.4108 166.193L86.6463 131.573L87.1116 119.051L87.3069 116.811L84.5325 115.237Z" fill="white" stroke="#263238" stroke-linecap="round" stroke-linejoin="round"/>
<path d="M91.5174 101.112C92.2965 101.925 92.9877 102.819 93.5796 103.777C94.0161 104.702 93.8553 105.139 94.3435 105.248C94.8318 105.357 96.0266 105.518 96.0266 105.822C95.7907 106.404 95.4798 106.952 95.1017 107.453C95.2682 108.678 95.3603 109.911 95.3775 111.147C95.2683 111.721 92.0057 112.451 92.0057 112.451L91.4313 115.771C91.4313 115.771 91.2647 120.556 91.1039 121.475C90.943 122.394 90.1791 125.392 90.1791 125.392L87.1864 119.849L85.3942 114.358L84.8485 112.451L84.4177 111.095C84.8666 111.148 85.3215 111.085 85.7395 110.913C86.1575 110.741 86.5249 110.466 86.8073 110.113C88.1283 108.462 89.1755 106.61 89.9091 104.627C90.3575 103.365 90.6319 102.047 90.7247 100.71C90.7247 100.71 90.7879 100.405 91.5174 101.112Z" fill="white" stroke="#263238" stroke-linecap="round" stroke-linejoin="round"/>
<path d="M89.7196 108.401C90.1376 108.206 90.4819 107.882 90.7018 107.476C91.0235 106.822 90.7018 105.518 90.7018 105.518C91.3861 104.691 91.7689 103.656 91.7875 102.582C91.7875 100.859 91.6266 98.9924 88.9154 98.6133C86.2042 98.2342 82.3959 99.3715 80.9254 102.582C79.4549 105.793 80.2188 108.941 81.3045 110.303C82.3901 111.664 85.0037 113.617 87.0486 112.968C89.0935 112.319 89.7196 108.401 89.7196 108.401Z" fill="#263238" stroke="#263238" stroke-linecap="round" stroke-linejoin="round"/>
<path d="M90.6444 108.671C90.6444 108.671 89.8287 106.712 88.9211 107.31C88.0136 107.907 88.3812 109.378 89.0877 110.245C89.7942 111.112 90.7707 110.245 90.7707 110.245" fill="white"/>
<path d="M90.6444 108.671C90.6444 108.671 89.8287 106.712 88.9211 107.31C88.0136 107.907 88.3812 109.378 89.0877 110.245C89.7942 111.112 90.7707 110.245 90.7707 110.245" stroke="#263238" stroke-linecap="round" stroke-linejoin="round"/>
<path d="M93.5509 105.477C93.6083 105.776 93.5509 106.052 93.4188 106.052C93.2867 106.052 93.1316 105.862 93.0684 105.564C93.0052 105.265 93.0684 104.989 93.2005 104.989C93.3326 104.989 93.4877 105.184 93.5509 105.477Z" fill="#263238"/>
<path d="M94.7226 108.671C94.5126 108.731 94.2901 108.732 94.0795 108.674C93.8688 108.617 93.678 108.502 93.5278 108.344" stroke="#263238" stroke-linecap="round" stroke-linejoin="round"/>
<path d="M82.0569 111.279C82.0569 111.279 80.5347 110.952 80.0464 111.388C79.5582 111.825 78.3577 113.18 79.2308 114.593C80.1039 116.006 82.9242 117.207 83.4699 116.931C84.0156 116.655 85.3712 115.466 85.3712 114.381C85.4023 113.885 85.3479 113.388 85.2104 112.91L82.0569 111.279Z" fill="#263238" stroke="#263238" stroke-linecap="round" stroke-linejoin="round"/>
<path d="M84.9922 114.053L87.2726 118.453L85.153 122.423L83.0334 116.822L84.9922 114.053Z" fill="white" stroke="#263238" stroke-linecap="round" stroke-linejoin="round"/>
<path d="M91.3623 118.947L93.8667 121.664C93.8667 121.664 92.2354 116.282 92.1435 115.92C91.9781 115.456 91.7863 115.001 91.5691 114.559L91.3508 116.242L91.3623 118.947Z" fill="white" stroke="#263238" stroke-linecap="round" stroke-linejoin="round"/>
<path d="M118.009 138.001C118.009 138.001 113.546 139.798 113.288 139.798C113.029 139.798 110.99 139.902 110.99 139.902L112.018 137.69L112.369 137.598C112.7 137.263 113.108 137.013 113.558 136.869C114.109 136.771 118.009 138.001 118.009 138.001Z" fill="white" stroke="#263238" stroke-linecap="round" stroke-linejoin="round"/>
<path d="M97.2903 118.43L103.913 132.435L112.926 136.386L111.312 140.097L100.875 138.144L97.4798 131.194L97.2903 118.43Z" fill="white" stroke="#263238" stroke-linecap="round" stroke-linejoin="round"/>
<path d="M50.9095 143.19L54.3955 154.906L89.8293 144.363L86.3433 132.647L50.9095 143.19Z" fill="white" stroke="#263238" stroke-linecap="round" stroke-linejoin="round"/>
<path d="M51.4926 145.15L53.8123 152.946L89.246 142.403L86.9264 134.607L51.4926 145.15Z" fill="white" stroke="#263238" stroke-linecap="round" stroke-linejoin="round"/>
<path d="M47.6802 137.577L54.7603 161.372L56.5385 160.843L49.4585 137.048L47.6802 137.577Z" fill="white" stroke="#263238" stroke-linecap="round" stroke-linejoin="round"/>
<path d="M130.457 125.915L162.101 116.5" stroke="#263238" stroke-linecap="round" stroke-linejoin="round"/>
<path d="M119.957 126.403L121.398 131.246L132.571 126.076L132.134 124.623L119.957 126.403Z" fill="#4A3589" stroke="#263238" stroke-linecap="round" stroke-linejoin="round"/>
<path d="M113.488 125.072L116.704 135.88L123.261 133.929L120.045 123.121L113.488 125.072Z" fill="white" stroke="#263238" stroke-linecap="round" stroke-linejoin="round"/>
<path d="M73.14 135.253L77.3533 149.413L118.97 137.03L114.757 122.87L73.14 135.253Z" fill="#4A3589" stroke="#263238" stroke-linecap="round" stroke-linejoin="round"/>
<path d="M73.1434 135.25L77.3567 149.411L94.2147 144.395L90.0014 130.234L73.1434 135.25Z" fill="white" stroke="#263238" stroke-linecap="round" stroke-linejoin="round"/>
<path d="M85.8555 131.464L90.0688 145.624L98.3107 143.172L94.0974 129.012L85.8555 131.464Z" fill="#263238" stroke="#263238" stroke-linecap="round" stroke-linejoin="round"/>
<path d="M87.8589 129.928L92.1433 144.111L95.7938 143.008L91.5094 128.825L87.8589 129.928Z" fill="#7A7A7A" stroke="#263238" stroke-width="1.00285" stroke-linecap="round" stroke-linejoin="round"/>
<path d="M113.104 135.795L112.46 133.629" stroke="#263238" stroke-linecap="round" stroke-linejoin="round"/>
<path d="M110.645 136.524L110.002 134.359" stroke="#263238" stroke-linecap="round" stroke-linejoin="round"/>
<path d="M108.193 137.26L107.543 135.088" stroke="#263238" stroke-linecap="round" stroke-linejoin="round"/>
<path d="M105.734 137.989L105.091 135.818" stroke="#263238" stroke-linecap="round" stroke-linejoin="round"/>
<path d="M103.276 138.719L102.632 136.553" stroke="#263238" stroke-linecap="round" stroke-linejoin="round"/>
<path d="M100.823 139.448L100.174 137.283" stroke="#263238" stroke-linecap="round" stroke-linejoin="round"/>
<path d="M80.7242 143.86C80.7242 143.86 83.2114 145.491 83.5963 145.726C84.1725 146.33 84.6218 147.043 84.9174 147.823C84.8876 147.985 84.8235 148.138 84.7294 148.273C84.6352 148.408 84.5133 148.521 84.3717 148.604C83.987 148.622 83.6014 148.595 83.2229 148.524C82.8316 148.899 82.3512 149.167 81.8271 149.305C81.2398 149.461 80.6222 149.461 80.0349 149.305C79.4146 149.144 77.8579 146.433 77.8579 146.433L80.7242 143.86Z" fill="white" stroke="#263238" stroke-linecap="round" stroke-linejoin="round"/>
<path d="M78.9378 117.959L75.0491 119.361L68.6731 137.403L78.237 147.593L81.425 144.015L75.3592 135.456L80.2589 125.117" fill="white"/>
<path d="M78.9378 117.959L75.0491 119.361L68.6731 137.403L78.237 147.593L81.425 144.015L75.3592 135.456L80.2589 125.117" stroke="#263238" stroke-linecap="round" stroke-linejoin="round"/>
<path d="M113.581 138.592C113.581 138.592 113.454 139.913 113.627 139.954C113.799 139.994 114.201 140.04 114.264 139.655C114.327 139.27 114.574 138.558 114.264 138.248C113.713 137.696 113.581 138.592 113.581 138.592Z" fill="white" stroke="#263238" stroke-linecap="round" stroke-linejoin="round"/>
<path d="M114.672 138.001C114.672 138.001 114.517 139.592 114.723 139.643C114.93 139.695 115.442 139.747 115.493 139.282C115.545 138.816 115.867 137.96 115.493 137.587C114.821 136.921 114.672 138.001 114.672 138.001Z" fill="white" stroke="#263238" stroke-linecap="round" stroke-linejoin="round"/>
<path d="M115.694 137.69C115.694 137.69 115.545 139.282 115.746 139.333C115.947 139.385 116.464 139.437 116.516 138.977C116.568 138.518 116.889 137.656 116.516 137.283C115.85 136.616 115.694 137.69 115.694 137.69Z" fill="white" stroke="#263238" stroke-linecap="round" stroke-linejoin="round"/>
<path d="M116.774 137.587C116.774 137.587 116.619 139.178 116.826 139.23C117.033 139.281 117.544 139.333 117.596 138.874C117.647 138.414 117.969 137.553 117.596 137.15C116.929 136.513 116.774 137.587 116.774 137.587Z" fill="white" stroke="#263238" stroke-linecap="round" stroke-linejoin="round"/>
<path d="M97.382 198.727L101.098 200.864C101.098 200.864 104.803 201.479 105.01 201.789C105.217 202.099 104.597 203.018 104.597 203.018H92.2583L92.9189 198.727H97.382Z" fill="#263238" stroke="#263238" stroke-linecap="round" stroke-linejoin="round"/>
</g>
</svg>
